<svg version="1.1" viewBox="0.0 0.0 374.0 392.0" fill="none" stroke="none" stroke-linecap="square" stroke-miterlimit="10" width="374" height="392" xmlns:xlink="http://www.w3.org/1999/xlink" xmlns="http://www.w3.org/2000/svg"><path fill="#ffffff" d="M0 0L374.0 0L374.0 392.0L0 392.0L0 0Z" fill-rule="nonzero"/><path fill="#4472c4" d="M149.22888 81.204445C155.28842 81.204445 161.34059 81.626396 167.34149 82.46723L149.22888 211.73334Z" fill-rule="nonzero"/><path fill="#a5a5a5" d="M122.42011 83.987175C131.2364 82.13699 140.22055 81.204445 149.22888 81.204445L149.22888 211.73334Z" fill-rule="nonzero"/><path fill="#ed7d31" d="M167.34149 82.46723C234.40376 91.863914 283.1433 150.98495 279.5766 218.60835C276.0099 286.23175 221.32155 339.8976 153.64288 342.18756C85.964226 344.4775 27.773483 294.63098 19.644007 227.40334C11.514529 160.17569 56.14638 97.89537 122.42011 83.987175L149.22888 211.73334Z" fill-rule="nonzero"/><path fill="#000000" d="M141.68706 315.90524Q141.68706 316.46774 141.60893 317.0615Q141.54643 317.65524 141.37456 318.20212Q141.2183 318.73337 140.93706 319.21774Q140.6558 319.6865 140.23393 320.04587Q139.82768 320.38962 139.24956 320.59274Q138.67143 320.79587 137.9058 320.79587Q137.60893 320.79587 137.32768 320.76462Q137.04643 320.73337 136.82768 320.67087Q136.60893 320.60837 136.45268 320.5615Q136.31206 320.499 136.23393 320.4365Q136.17143 320.374 136.14018 320.26462Q136.10893 320.15524 136.10893 319.98337Q136.10893 319.82712 136.10893 319.749Q136.12456 319.65524 136.14018 319.60837Q136.17143 319.5615 136.20268 319.54587Q136.24956 319.51462 136.29643 319.51462Q136.37456 319.51462 136.51518 319.57712Q136.6558 319.624 136.85893 319.6865Q137.06206 319.749 137.3433 319.79587Q137.62456 319.84274 137.98393 319.84274Q138.64018 319.84274 139.10893 319.59274Q139.5933 319.34274 139.89018 318.92087Q140.18706 318.48337 140.3433 317.92087Q140.49956 317.34274 140.49956 316.71774Q140.14018 316.92087 139.62456 317.09274Q139.12456 317.249 138.4683 317.249Q137.73393 317.249 137.23393 317.04587Q136.73393 316.84274 136.42143 316.499Q136.12456 316.15524 135.98393 315.6865Q135.85893 315.20212 135.85893 314.624Q135.85893 314.04587 136.0308 313.51462Q136.20268 312.98337 136.56206 312.57712Q136.92143 312.17087 137.48393 311.9365Q138.04643 311.70212 138.82768 311.70212Q139.37456 311.70212 139.79643 311.84274Q140.23393 311.96774 140.54643 312.23337Q140.85893 312.499 141.07768 312.874Q141.29643 313.249 141.42143 313.71774Q141.56206 314.1865 141.62456 314.749Q141.68706 315.29587 141.68706 315.90524ZM140.48393 315.76462Q140.48393 314.88962 140.35893 314.29587Q140.24956 313.70212 140.01518 313.32712Q139.79643 312.95212 139.4683 312.79587Q139.14018 312.624 138.7183 312.624Q138.26518 312.624 137.95268 312.79587Q137.64018 312.95212 137.43706 313.23337Q137.23393 313.499 137.14018 313.84274Q137.04643 314.17087 137.04643 314.54587Q137.04643 314.9365 137.12456 315.28024Q137.2183 315.60837 137.4058 315.84274Q137.5933 316.07712 137.9058 316.20212Q138.2183 316.32712 138.67143 316.32712Q139.18706 316.32712 139.6558 316.17087Q140.14018 316.01462 140.48393 315.76462ZM148.98393 318.15524Q148.98393 318.374 148.92143 318.51462Q148.85893 318.63962 148.73393 318.63962L147.73393 318.63962L147.73393 320.499Q147.73393 320.5615 147.70268 320.59274Q147.67143 320.624 147.60893 320.65524Q147.54643 320.6865 147.43706 320.70212Q147.32768 320.71774 147.1558 320.71774Q146.98393 320.71774 146.87456 320.70212Q146.76518 320.6865 146.70268 320.65524Q146.64018 320.624 146.60893 320.59274Q146.5933 320.5615 146.5933 320.499L146.5933 318.63962L142.93706 318.63962Q142.85893 318.63962 142.79643 318.624Q142.74956 318.59274 142.70268 318.54587Q142.6558 318.48337 142.64018 318.38962Q142.62456 318.28024 142.62456 318.124Q142.62456 317.98337 142.62456 317.88962Q142.64018 317.78024 142.6558 317.70212Q142.68706 317.60837 142.7183 317.53024Q142.74956 317.45212 142.79643 317.374L145.98393 311.999Q146.01518 311.9365 146.07768 311.90524Q146.14018 311.85837 146.23393 311.84274Q146.3433 311.8115 146.49956 311.79587Q146.6558 311.78024 146.85893 311.78024Q147.07768 311.78024 147.24956 311.79587Q147.42143 311.8115 147.51518 311.84274Q147.62456 311.874 147.67143 311.92087Q147.73393 311.96774 147.73393 312.03024L147.73393 317.67087L148.73393 317.67087Q148.8433 317.67087 148.9058 317.79587Q148.98393 317.90524 148.98393 318.15524ZM146.5933 312.8115L146.57768 312.8115L143.70268 317.67087L146.5933 317.67087L146.5933 312.8115ZM151.79643 319.92087Q151.79643 320.40524 151.64018 320.57712Q151.48393 320.73337 151.04643 320.73337Q150.64018 320.73337 150.48393 320.57712Q150.32768 320.42087 150.32768 319.95212Q150.32768 319.46774 150.48393 319.3115Q150.6558 319.13962 151.07768 319.13962Q151.48393 319.13962 151.64018 319.29587Q151.79643 319.45212 151.79643 319.92087ZM159.57768 317.82712Q159.57768 318.53024 159.32768 319.09274Q159.0933 319.63962 158.6558 320.03024Q158.2183 320.40524 157.60893 320.60837Q157.01518 320.79587 156.26518 320.79587Q155.85893 320.79587 155.48393 320.73337Q155.12456 320.6865 154.82768 320.60837Q154.54643 320.51462 154.35893 320.4365Q154.17143 320.34274 154.12456 320.29587Q154.07768 320.249 154.04643 320.21774Q154.0308 320.17087 154.01518 320.124Q153.99956 320.0615 153.98393 319.96774Q153.98393 319.874 153.98393 319.749Q153.98393 319.63962 153.99956 319.54587Q154.01518 319.45212 154.0308 319.40524Q154.06206 319.34274 154.0933 319.3115Q154.14018 319.28024 154.18706 319.28024Q154.24956 319.28024 154.39018 319.374Q154.54643 319.45212 154.7808 319.5615Q155.0308 319.65524 155.39018 319.749Q155.74956 319.82712 156.23393 319.82712Q156.68706 319.82712 157.06206 319.71774Q157.45268 319.60837 157.73393 319.374Q158.01518 319.13962 158.17143 318.79587Q158.32768 318.4365 158.32768 317.9365Q158.32768 317.51462 158.18706 317.1865Q158.06206 316.85837 157.7808 316.65524Q157.51518 316.4365 157.07768 316.32712Q156.6558 316.21774 156.07768 316.21774Q155.6558 316.21774 155.3433 316.26462Q155.04643 316.29587 154.79643 316.29587Q154.60893 316.29587 154.51518 316.21774Q154.43706 316.124 154.43706 315.874L154.43706 312.26462Q154.43706 312.04587 154.54643 311.9365Q154.6558 311.82712 154.8433 311.82712L158.76518 311.82712Q158.82768 311.82712 158.87456 311.85837Q158.92143 311.88962 158.95268 311.95212Q158.98393 312.01462 158.99956 312.10837Q159.0308 312.20212 159.0308 312.32712Q159.0308 312.57712 158.95268 312.71774Q158.89018 312.84274 158.76518 312.84274L155.4683 312.84274L155.4683 315.32712Q155.70268 315.29587 155.95268 315.29587Q156.20268 315.28024 156.5308 315.28024Q157.29643 315.28024 157.85893 315.46774Q158.42143 315.63962 158.79643 315.98337Q159.18706 316.3115 159.37456 316.78024Q159.57768 317.249 159.57768 317.82712ZM164.5933 314.01462Q164.5933 314.54587 164.4683 314.98337Q164.35893 315.40524 164.12456 315.71774Q163.89018 316.01462 163.51518 316.1865Q163.1558 316.35837 162.6558 316.35837Q162.1558 316.35837 161.79643 316.20212Q161.45268 316.03024 161.2183 315.73337Q160.99956 315.4365 160.89018 315.01462Q160.79643 314.59274 160.79643 314.04587Q160.79643 313.54587 160.9058 313.124Q161.01518 312.6865 161.24956 312.38962Q161.48393 312.07712 161.8433 311.90524Q162.2183 311.71774 162.70268 311.71774Q163.24956 311.71774 163.60893 311.90524Q163.98393 312.09274 164.20268 312.40524Q164.42143 312.71774 164.49956 313.13962Q164.5933 313.54587 164.5933 314.01462ZM163.64018 314.04587Q163.64018 313.67087 163.57768 313.374Q163.5308 313.07712 163.42143 312.874Q163.31206 312.67087 163.12456 312.57712Q162.93706 312.46774 162.68706 312.46774Q162.43706 312.46774 162.26518 312.57712Q162.0933 312.67087 161.9683 312.85837Q161.85893 313.04587 161.79643 313.34274Q161.74956 313.624 161.74956 313.999Q161.74956 314.46774 161.81206 314.78024Q161.89018 315.09274 161.99956 315.28024Q162.12456 315.45212 162.29643 315.53024Q162.48393 315.59274 162.7183 315.59274Q162.98393 315.59274 163.1558 315.499Q163.3433 315.38962 163.43706 315.1865Q163.54643 314.98337 163.5933 314.70212Q163.64018 314.42087 163.64018 314.04587ZM169.81206 318.4365Q169.81206 318.96774 169.68706 319.40524Q169.57768 319.82712 169.3433 320.13962Q169.10893 320.4365 168.73393 320.60837Q168.37456 320.78024 167.87456 320.78024Q167.37456 320.78024 167.01518 320.624Q166.67143 320.45212 166.43706 320.15524Q166.2183 319.85837 166.10893 319.4365Q166.01518 319.01462 166.01518 318.46774Q166.01518 317.96774 166.12456 317.54587Q166.23393 317.10837 166.4683 316.8115Q166.70268 316.499 167.06206 316.32712Q167.43706 316.13962 167.92143 316.13962Q168.4683 316.13962 168.82768 316.32712Q169.20268 316.51462 169.42143 316.82712Q169.64018 317.13962 169.7183 317.5615Q169.81206 317.96774 169.81206 318.4365ZM168.85893 318.46774Q168.85893 318.09274 168.79643 317.79587Q168.74956 317.499 168.64018 317.29587Q168.5308 317.09274 168.3433 316.999Q168.1558 316.88962 167.9058 316.88962Q167.6558 316.88962 167.48393 316.999Q167.31206 317.09274 167.18706 317.28024Q167.07768 317.46774 167.01518 317.76462Q166.9683 318.04587 166.9683 318.42087Q166.9683 318.88962 167.0308 319.20212Q167.10893 319.51462 167.2183 319.70212Q167.3433 319.874 167.51518 319.95212Q167.70268 320.01462 167.93706 320.01462Q168.20268 320.01462 168.37456 319.92087Q168.56206 319.8115 168.6558 319.60837Q168.76518 319.40524 168.81206 319.124Q168.85893 318.84274 168.85893 318.46774ZM162.6558 320.73337Q162.62456 320.78024 162.57768 320.8115Q162.5308 320.84274 162.45268 320.85837Q162.39018 320.88962 162.29643 320.90524Q162.20268 320.92087 162.06206 320.92087Q161.9058 320.92087 161.81206 320.88962Q161.73393 320.85837 161.68706 320.8115Q161.6558 320.78024 161.6558 320.70212Q161.67143 320.63962 161.73393 320.5615L167.87456 311.749Q167.92143 311.70212 167.9683 311.67087Q168.01518 311.624 168.07768 311.60837Q168.1558 311.57712 168.24956 311.57712Q168.3433 311.5615 168.48393 311.5615Q168.62456 311.5615 168.7183 311.59274Q168.81206 311.60837 168.8433 311.65524Q168.89018 311.70212 168.87456 311.78024Q168.87456 311.84274 168.81206 311.92087L162.6558 320.73337Z" fill-rule="nonzero"/><path fill="#4472c4" d="M313.3 56.166668C313.3 59.480373 310.6137 62.166668 307.3 62.166668C303.9863 62.166668 301.3 59.480373 301.3 56.166668C301.3 52.85296 303.9863 50.166668 307.3 50.166668C310.6137 50.166668 313.3 52.85296 313.3 56.166668Z" fill-rule="nonzero"/><path fill="#1a1a1a" d="M325.22186 56.854168Q325.22186 56.932293 325.20624 56.994793Q325.20624 57.057293 325.175 57.104168Q325.15936 57.135418 325.1281 57.151043Q325.09686 57.166668 325.0656 57.166668L322.33124 57.166668Q322.2375 57.166668 322.14374 57.104168Q322.05 57.026043 322.05 56.854168L322.05 51.791668Q322.05 51.619793 322.14374 51.557293Q322.2375 51.479168 322.33124 51.479168L325.03436 51.479168Q325.0656 51.479168 325.09686 51.494793Q325.1281 51.510418 325.14374 51.557293Q325.15936 51.588543 325.175 51.651043Q325.1906 51.713543 325.1906 51.807293Q325.1906 51.885418 325.175 51.947918Q325.15936 51.994793 325.14374 52.041668Q325.1281 52.072918 325.09686 52.088543Q325.0656 52.104168 325.03436 52.104168L322.8156 52.104168L322.8156 53.885418L324.72186 53.885418Q324.7531 53.885418 324.78436 53.916668Q324.8156 53.932293 324.83124 53.963543Q324.84686 53.994793 324.84686 54.057293Q324.8625 54.119793 324.8625 54.213543Q324.8625 54.291668 324.84686 54.354168Q324.84686 54.401043 324.83124 54.447918Q324.8156 54.479168 324.78436 54.494793Q324.7531 54.510418 324.72186 54.510418L322.8156 54.510418L322.8156 56.541668L325.0656 56.541668Q325.09686 56.541668 325.1281 56.557293Q325.15936 56.572918 325.175 56.619793Q325.20624 56.651043 325.20624 56.713543Q325.22186 56.760418 325.22186 56.854168ZM327.425 55.729168Q327.425 56.072918 327.3625 56.354168Q327.3 56.635418 327.14374 56.838543Q327.0031 57.026043 326.7531 57.135418Q326.51874 57.244793 326.15936 57.244793Q326.03436 57.244793 325.90936 57.229168Q325.8 57.213543 325.6906 57.166668Q325.59686 57.135418 325.51874 57.104168Q325.4406 57.072918 325.40936 57.041668Q325.39374 57.010418 325.3781 56.994793Q325.3625 56.963543 325.34686 56.932293Q325.34686 56.885418 325.33124 56.838543Q325.33124 56.776043 325.33124 56.697918Q325.33124 56.604168 325.33124 56.541668Q325.34686 56.479168 325.3625 56.447918Q325.3781 56.401043 325.39374 56.385418Q325.425 56.369793 325.45624 56.369793Q325.5031 56.369793 325.55 56.401043Q325.6125 56.432293 325.6906 56.479168Q325.76874 56.510418 325.8625 56.541668Q325.95624 56.572918 326.09686 56.572918Q326.2531 56.572918 326.34686 56.541668Q326.45624 56.510418 326.51874 56.416668Q326.59686 56.307293 326.6281 56.135418Q326.675 55.947918 326.675 55.666668L326.675 51.588543Q326.675 51.557293 326.6906 51.541668Q326.70624 51.510418 326.7531 51.494793Q326.8 51.463543 326.8625 51.463543Q326.9406 51.447918 327.05 51.447918Q327.15936 51.447918 327.22186 51.463543Q327.3 51.463543 327.34686 51.494793Q327.39374 51.510418 327.40936 51.541668Q327.425 51.557293 327.425 51.588543L327.425 55.729168ZM329.8156 57.057293Q329.8156 57.088543 329.8 57.119793Q329.78436 57.135418 329.7375 57.151043Q329.6906 57.166668 329.6125 57.182293Q329.55 57.197918 329.4406 57.197918Q329.33124 57.197918 329.2531 57.182293Q329.175 57.166668 329.1281 57.151043Q329.09686 57.135418 329.0656 57.119793Q329.05 57.088543 329.05 57.057293L329.05 51.588543Q329.05 51.557293 329.0656 51.541668Q329.09686 51.510418 329.14374 51.494793Q329.1906 51.479168 329.2531 51.463543Q329.33124 51.447918 329.4406 51.447918Q329.55 51.447918 329.6125 51.463543Q329.6906 51.479168 329.7375 51.494793Q329.78436 51.510418 329.8 51.541668Q329.8156 51.557293 329.8156 51.588543L329.8156 57.057293ZM335.425 54.244793Q335.425 54.979168 335.2375 55.541668Q335.05 56.088543 334.6906 56.447918Q334.33124 56.807293 333.8 56.994793Q333.26874 57.166668 332.53436 57.166668L331.33124 57.166668Q331.2375 57.166668 331.14374 57.104168Q331.05 57.026043 331.05 56.854168L331.05 51.791668Q331.05 51.619793 331.14374 51.557293Q331.2375 51.479168 331.33124 51.479168L332.6281 51.479168Q333.3625 51.479168 333.8625 51.682293Q334.3781 51.869793 334.72186 52.229168Q335.0656 52.572918 335.2375 53.088543Q335.425 53.604168 335.425 54.244793ZM334.6281 54.276043Q334.6281 53.807293 334.51874 53.416668Q334.40936 53.010418 334.15936 52.729168Q333.90936 52.432293 333.53436 52.276043Q333.175 52.104168 332.58124 52.104168L331.8156 52.104168L331.8156 56.526043L332.59686 56.526043Q333.1281 56.526043 333.5031 56.401043Q333.8781 56.260418 334.1281 55.979168Q334.3781 55.697918 334.5031 55.276043Q334.6281 54.854168 334.6281 54.276043ZM341.3156 56.901043Q341.34686 56.994793 341.34686 57.057293Q341.34686 57.119793 341.3156 57.151043Q341.28436 57.182293 341.20624 57.182293Q341.1281 57.197918 340.9875 57.197918Q340.84686 57.197918 340.76874 57.182293Q340.6906 57.182293 340.64374 57.166668Q340.59686 57.151043 340.58124 57.119793Q340.5656 57.088543 340.55 57.057293L340.05 55.666668L337.6906 55.666668L337.22186 57.041668Q337.22186 57.072918 337.1906 57.104168Q337.175 57.135418 337.1281 57.166668Q337.08124 57.182293 337.0031 57.182293Q336.9406 57.197918 336.8156 57.197918Q336.675 57.197918 336.59686 57.182293Q336.51874 57.166668 336.4875 57.135418Q336.45624 57.104168 336.45624 57.057293Q336.45624 56.994793 336.4875 56.901043L338.39374 51.604168Q338.425 51.557293 338.4406 51.526043Q338.47186 51.494793 338.51874 51.479168Q338.58124 51.463543 338.65936 51.463543Q338.7531 51.447918 338.89374 51.447918Q339.03436 51.447918 339.1125 51.463543Q339.20624 51.463543 339.26874 51.479168Q339.33124 51.494793 339.3625 51.541668Q339.39374 51.572918 339.40936 51.619793L341.3156 56.901043ZM338.8625 52.229168L338.8625 52.229168L337.8781 55.072918L339.8625 55.072918L338.8625 52.229168ZM345.0031 56.838543Q345.0031 56.932293 344.9875 56.994793Q344.9875 57.041668 344.95624 57.088543Q344.9406 57.119793 344.90936 57.151043Q344.89374 57.166668 344.84686 57.166668L342.33124 57.166668Q342.2375 57.166668 342.14374 57.104168Q342.05 57.026043 342.05 56.854168L342.05 51.588543Q342.05 51.557293 342.0656 51.541668Q342.09686 51.510418 342.1281 51.494793Q342.175 51.479168 342.2531 51.463543Q342.33124 51.447918 342.4406 51.447918Q342.55 51.447918 342.6125 51.463543Q342.6906 51.479168 342.7375 51.494793Q342.78436 51.510418 342.8 51.541668Q342.8156 51.557293 342.8156 51.588543L342.8156 56.510418L344.84686 56.510418Q344.89374 56.510418 344.90936 56.541668Q344.9406 56.557293 344.95624 56.588543Q344.9875 56.619793 344.9875 56.682293Q345.0031 56.744793 345.0031 56.838543Z" fill-rule="nonzero"/><path fill="#ed7d31" d="M313.3 78.166664C313.3 81.48038 310.6137 84.166664 307.3 84.166664C303.9863 84.166664 301.3 81.48038 301.3 78.166664C301.3 74.85296 303.9863 72.166664 307.3 72.166664C310.6137 72.166664 313.3 74.85296 313.3 78.166664Z" fill-rule="nonzero"/><path fill="#1a1a1a" d="M325.55 75.15104Q325.55 75.572914 325.40936 75.916664Q325.26874 76.260414 325.0031 76.510414Q324.7531 76.74479 324.3625 76.885414Q323.9875 77.010414 323.45624 77.010414L322.8156 77.010414L322.8156 79.05729Q322.8156 79.08854 322.78436 79.11979Q322.76874 79.135414 322.72186 79.15104Q322.6906 79.166664 322.6125 79.18229Q322.55 79.197914 322.4406 79.197914Q322.33124 79.197914 322.2531 79.18229Q322.175 79.166664 322.1281 79.15104Q322.09686 79.135414 322.0656 79.11979Q322.05 79.08854 322.05 79.05729L322.05 73.80729Q322.05 73.635414 322.14374 73.55729Q322.2375 73.479164 322.3625 73.479164L323.5656 73.479164Q323.7531 73.479164 323.925 73.49479Q324.09686 73.510414 324.3156 73.55729Q324.55 73.604164 324.78436 73.74479Q325.03436 73.885414 325.1906 74.08854Q325.3625 74.291664 325.45624 74.55729Q325.55 74.822914 325.55 75.15104ZM324.7531 75.21354Q324.7531 74.854164 324.6125 74.635414Q324.4875 74.40104 324.3 74.291664Q324.1125 74.166664 323.90936 74.135414Q323.70624 74.104164 323.5031 74.104164L322.8156 74.104164L322.8156 76.385414L323.4875 76.385414Q323.83124 76.385414 324.05 76.30729Q324.28436 76.21354 324.4406 76.05729Q324.59686 75.90104 324.675 75.68229Q324.7531 75.46354 324.7531 75.21354ZM330.84686 79.05729Q330.84686 79.08854 330.83124 79.11979Q330.8156 79.135414 330.76874 79.166664Q330.7375 79.18229 330.65936 79.18229Q330.58124 79.197914 330.4406 79.197914Q330.33124 79.197914 330.2531 79.18229Q330.1906 79.18229 330.14374 79.166664Q330.09686 79.135414 330.0656 79.104164Q330.05 79.072914 330.03436 79.010414L329.5031 77.666664Q329.40936 77.447914 329.3156 77.260414Q329.22186 77.05729 329.08124 76.93229Q328.9406 76.791664 328.7531 76.71354Q328.58124 76.635414 328.3156 76.635414L327.8156 76.635414L327.8156 79.05729Q327.8156 79.08854 327.78436 79.11979Q327.76874 79.135414 327.72186 79.15104Q327.6906 79.166664 327.6125 79.18229Q327.55 79.197914 327.4406 79.197914Q327.33124 79.197914 327.2531 79.18229Q327.175 79.166664 327.1281 79.15104Q327.09686 79.135414 327.0656 79.11979Q327.05 79.08854 327.05 79.05729L327.05 73.791664Q327.05 73.61979 327.14374 73.55729Q327.2375 73.479164 327.33124 73.479164L328.55 73.479164Q328.76874 73.479164 328.90936 73.49479Q329.05 73.49479 329.15936 73.510414Q329.4875 73.572914 329.7375 73.697914Q330.0031 73.822914 330.15936 74.010414Q330.33124 74.197914 330.40936 74.447914Q330.5031 74.68229 330.5031 74.979164Q330.5031 75.260414 330.425 75.49479Q330.3625 75.71354 330.20624 75.885414Q330.0656 76.05729 329.8625 76.197914Q329.65936 76.322914 329.40936 76.40104Q329.55 76.46354 329.65936 76.55729Q329.78436 76.65104 329.8781 76.791664Q329.97186 76.916664 330.0656 77.08854Q330.15936 77.260414 330.2375 77.479164L330.7531 78.729164Q330.8156 78.885414 330.83124 78.947914Q330.84686 79.010414 330.84686 79.05729ZM329.70624 75.05729Q329.70624 74.729164 329.55 74.49479Q329.40936 74.260414 329.0656 74.166664Q328.95624 74.135414 328.8156 74.11979Q328.675 74.104164 328.45624 74.104164L327.8156 74.104164L327.8156 76.02604L328.55 76.02604Q328.84686 76.02604 329.0656 75.947914Q329.28436 75.86979 329.425 75.74479Q329.58124 75.61979 329.64374 75.447914Q329.70624 75.260414 329.70624 75.05729ZM332.8156 79.05729Q332.8156 79.08854 332.8 79.11979Q332.78436 79.135414 332.7375 79.15104Q332.6906 79.166664 332.6125 79.18229Q332.55 79.197914 332.4406 79.197914Q332.33124 79.197914 332.2531 79.18229Q332.175 79.166664 332.1281 79.15104Q332.09686 79.135414 332.0656 79.11979Q332.05 79.08854 332.05 79.05729L332.05 73.58854Q332.05 73.55729 332.0656 73.541664Q332.09686 73.510414 332.14374 73.49479Q332.1906 73.479164 332.2531 73.46354Q332.33124 73.447914 332.4406 73.447914Q332.55 73.447914 332.6125 73.46354Q332.6906 73.479164 332.7375 73.49479Q332.78436 73.510414 332.8 73.541664Q332.8156 73.55729 332.8156 73.58854L332.8156 79.05729ZM336.34686 79.041664Q336.33124 79.08854 336.3 79.11979Q336.26874 79.15104 336.20624 79.166664Q336.15936 79.18229 336.0656 79.18229Q335.9875 79.197914 335.8625 79.197914Q335.76874 79.197914 335.6906 79.18229Q335.6281 79.18229 335.5656 79.166664Q335.51874 79.166664 335.47186 79.166664Q335.4406 79.15104 335.40936 79.135414Q335.39374 79.11979 335.3781 79.104164Q335.3625 79.072914 335.34686 79.02604L333.4875 73.74479Q333.45624 73.65104 333.45624 73.58854Q333.45624 73.52604 333.4875 73.49479Q333.53436 73.46354 333.6125 73.46354Q333.70624 73.447914 333.84686 73.447914Q333.97186 73.447914 334.05 73.46354Q334.1281 73.46354 334.15936 73.479164Q334.20624 73.49479 334.22186 73.52604Q334.2375 73.55729 334.2531 73.604164L335.89374 78.385414L335.89374 78.385414L337.47186 73.604164Q337.4875 73.55729 337.5031 73.52604Q337.53436 73.49479 337.5656 73.479164Q337.6125 73.46354 337.6906 73.46354Q337.76874 73.447914 337.90936 73.447914Q338.03436 73.447914 338.1125 73.46354Q338.20624 73.479164 338.22186 73.510414Q338.2531 73.541664 338.2375 73.604164Q338.2375 73.65104 338.20624 73.74479L336.34686 79.041664ZM343.3156 78.90104Q343.34686 78.99479 343.34686 79.05729Q343.34686 79.11979 343.3156 79.15104Q343.28436 79.18229 343.20624 79.18229Q343.1281 79.197914 342.9875 79.197914Q342.84686 79.197914 342.76874 79.18229Q342.6906 79.18229 342.64374 79.166664Q342.59686 79.15104 342.58124 79.11979Q342.5656 79.08854 342.55 79.05729L342.05 77.666664L339.6906 77.666664L339.22186 79.041664Q339.22186 79.072914 339.1906 79.104164Q339.175 79.135414 339.1281 79.166664Q339.08124 79.18229 339.0031 79.18229Q338.9406 79.197914 338.8156 79.197914Q338.675 79.197914 338.59686 79.18229Q338.51874 79.166664 338.4875 79.135414Q338.45624 79.104164 338.45624 79.05729Q338.45624 78.99479 338.4875 78.90104L340.39374 73.604164Q340.425 73.55729 340.4406 73.52604Q340.47186 73.49479 340.51874 73.479164Q340.58124 73.46354 340.65936 73.46354Q340.7531 73.447914 340.89374 73.447914Q341.03436 73.447914 341.1125 73.46354Q341.20624 73.46354 341.26874 73.479164Q341.33124 73.49479 341.3625 73.541664Q341.39374 73.572914 341.40936 73.61979L343.3156 78.90104ZM340.8625 74.229164L340.8625 74.229164L339.8781 77.072914L341.8625 77.072914L340.8625 74.229164ZM348.425 76.24479Q348.425 76.979164 348.2375 77.541664Q348.05 78.08854 347.6906 78.447914Q347.33124 78.80729 346.8 78.99479Q346.26874 79.166664 345.53436 79.166664L344.33124 79.166664Q344.2375 79.166664 344.14374 79.104164Q344.05 79.02604 344.05 78.854164L344.05 73.791664Q344.05 73.61979 344.14374 73.55729Q344.2375 73.479164 344.33124 73.479164L345.6281 73.479164Q346.3625 73.479164 346.8625 73.68229Q347.3781 73.86979 347.72186 74.229164Q348.0656 74.572914 348.2375 75.08854Q348.425 75.604164 348.425 76.24479ZM347.6281 76.27604Q347.6281 75.80729 347.51874 75.416664Q347.40936 75.010414 347.15936 74.729164Q346.90936 74.43229 346.53436 74.27604Q346.175 74.104164 345.58124 74.104164L344.8156 74.104164L344.8156 78.52604L345.59686 78.52604Q346.1281 78.52604 346.5031 78.40104Q346.8781 78.260414 347.1281 77.979164Q347.3781 77.697914 347.5031 77.27604Q347.6281 76.854164 347.6281 76.27604ZM354.8156 76.260414Q354.8156 76.947914 354.64374 77.510414Q354.4875 78.05729 354.15936 78.447914Q353.84686 78.83854 353.3625 79.041664Q352.8781 79.24479 352.22186 79.24479Q351.58124 79.24479 351.1125 79.05729Q350.64374 78.86979 350.33124 78.510414Q350.03436 78.135414 349.8781 77.604164Q349.7375 77.05729 349.7375 76.354164Q349.7375 75.68229 349.89374 75.135414Q350.0656 74.58854 350.3781 74.197914Q350.70624 73.80729 351.1906 73.604164Q351.6906 73.40104 352.33124 73.40104Q352.97186 73.40104 353.425 73.58854Q353.89374 73.77604 354.20624 74.135414Q354.51874 74.49479 354.65936 75.041664Q354.8156 75.572914 354.8156 76.260414ZM354.01874 76.30729Q354.01874 75.822914 353.925 75.416664Q353.84686 74.99479 353.64374 74.697914Q353.45624 74.385414 353.1125 74.21354Q352.78436 74.041664 352.3 74.041664Q351.8 74.041664 351.45624 74.229164Q351.1281 74.416664 350.925 74.729164Q350.72186 75.02604 350.6281 75.447914Q350.53436 75.854164 350.53436 76.30729Q350.53436 76.80729 350.6125 77.229164Q350.70624 77.65104 350.89374 77.96354Q351.09686 78.260414 351.425 78.43229Q351.76874 78.58854 352.26874 78.58854Q352.7531 78.58854 353.09686 78.416664Q353.4406 78.229164 353.64374 77.916664Q353.84686 77.604164 353.925 77.197914Q354.01874 76.77604 354.01874 76.30729Z" fill-rule="nonzero"/><path fill="#a5a5a5" d="M313.3 100.166664C313.3 103.48038 310.6137 106.166664 307.3 106.166664C303.9863 106.166664 301.3 103.48038 301.3 100.166664C301.3 96.85296 303.9863 94.166664 307.3 94.166664C310.6137 94.166664 313.3 96.85296 313.3 100.166664Z" fill-rule="nonzero"/><path fill="#1a1a1a" d="M325.55 97.15104Q325.55 97.572914 325.40936 97.916664Q325.26874 98.260414 325.0031 98.510414Q324.7531 98.74479 324.3625 98.885414Q323.9875 99.010414 323.45624 99.010414L322.8156 99.010414L322.8156 101.05729Q322.8156 101.08854 322.78436 101.11979Q322.76874 101.135414 322.72186 101.15104Q322.6906 101.166664 322.6125 101.18229Q322.55 101.197914 322.4406 101.197914Q322.33124 101.197914 322.2531 101.18229Q322.175 101.166664 322.1281 101.15104Q322.09686 101.135414 322.0656 101.11979Q322.05 101.08854 322.05 101.05729L322.05 95.80729Q322.05 95.635414 322.14374 95.55729Q322.2375 95.479164 322.3625 95.479164L323.5656 95.479164Q323.7531 95.479164 323.925 95.49479Q324.09686 95.510414 324.3156 95.55729Q324.55 95.604164 324.78436 95.74479Q325.03436 95.885414 325.1906 96.08854Q325.3625 96.291664 325.45624 96.55729Q325.55 96.822914 325.55 97.15104ZM324.7531 97.21354Q324.7531 96.854164 324.6125 96.635414Q324.4875 96.40104 324.3 96.291664Q324.1125 96.166664 323.90936 96.135414Q323.70624 96.104164 323.5031 96.104164L322.8156 96.104164L322.8156 98.385414L323.4875 98.385414Q323.83124 98.385414 324.05 98.30729Q324.28436 98.21354 324.4406 98.05729Q324.59686 97.90104 324.675 97.68229Q324.7531 97.46354 324.7531 97.21354ZM331.33124 99.072914Q331.33124 99.58854 331.175 99.99479Q331.03436 100.40104 330.7531 100.68229Q330.47186 100.96354 330.0656 101.104164Q329.65936 101.24479 329.14374 101.24479Q328.675 101.24479 328.28436 101.11979Q327.89374 100.979164 327.6125 100.71354Q327.34686 100.447914 327.1906 100.05729Q327.05 99.65104 327.05 99.11979L327.05 95.58854Q327.05 95.55729 327.0656 95.541664Q327.08124 95.510414 327.1281 95.49479Q327.175 95.479164 327.2375 95.46354Q327.3156 95.447914 327.425 95.447914Q327.53436 95.447914 327.59686 95.46354Q327.675 95.479164 327.72186 95.49479Q327.76874 95.510414 327.78436 95.541664Q327.8 95.55729 327.8 95.58854L327.8 99.02604Q327.8 99.43229 327.89374 99.729164Q327.9875 100.010414 328.175 100.21354Q328.3625 100.40104 328.6125 100.510414Q328.8781 100.604164 329.1906 100.604164Q329.51874 100.604164 329.76874 100.510414Q330.03436 100.416664 330.20624 100.229164Q330.39374 100.02604 330.4875 99.74479Q330.58124 99.447914 330.58124 99.072914L330.58124 95.58854Q330.58124 95.55729 330.59686 95.541664Q330.6125 95.510414 330.65936 95.49479Q330.70624 95.479164 330.76874 95.46354Q330.84686 95.447914 330.95624 95.447914Q331.0656 95.447914 331.1281 95.46354Q331.20624 95.479164 331.2531 95.49479Q331.3 95.510414 331.3156 95.541664Q331.33124 95.55729 331.33124 95.58854L331.33124 99.072914ZM336.8 99.541664Q336.8 99.80729 336.7375 100.041664Q336.675 100.260414 336.55 100.447914Q336.425 100.61979 336.2531 100.760414Q336.08124 100.885414 335.8625 100.979164Q335.64374 101.072914 335.39374 101.11979Q335.14374 101.166664 334.8156 101.166664L333.33124 101.166664Q333.2375 101.166664 333.14374 101.104164Q333.05 101.02604 333.05 100.854164L333.05 95.791664Q333.05 95.61979 333.14374 95.55729Q333.2375 95.479164 333.33124 95.479164L334.6281 95.479164Q335.14374 95.479164 335.45624 95.572914Q335.78436 95.666664 336.0031 95.854164Q336.22186 96.041664 336.33124 96.30729Q336.4406 96.572914 336.4406 96.916664Q336.4406 97.11979 336.39374 97.30729Q336.34686 97.49479 336.2531 97.65104Q336.15936 97.80729 336.01874 97.93229Q335.8781 98.041664 335.6906 98.11979Q335.925 98.166664 336.1281 98.291664Q336.33124 98.40104 336.47186 98.58854Q336.6281 98.760414 336.70624 99.010414Q336.8 99.24479 336.8 99.541664ZM335.65936 96.99479Q335.65936 96.791664 335.59686 96.61979Q335.55 96.447914 335.425 96.33854Q335.3 96.21354 335.09686 96.15104Q334.90936 96.08854 334.58124 96.08854L333.8 96.08854L333.8 97.93229L334.65936 97.93229Q334.95624 97.93229 335.1281 97.854164Q335.3156 97.77604 335.425 97.65104Q335.55 97.52604 335.59686 97.354164Q335.65936 97.18229 335.65936 96.99479ZM336.0031 99.572914Q336.0031 99.322914 335.925 99.135414Q335.84686 98.93229 335.6906 98.80729Q335.53436 98.68229 335.3 98.61979Q335.0656 98.541664 334.70624 98.541664L333.8 98.541664L333.8 100.541664L334.90936 100.541664Q335.15936 100.541664 335.34686 100.479164Q335.55 100.416664 335.6906 100.30729Q335.84686 100.18229 335.925 100.010414Q336.0031 99.822914 336.0031 99.572914ZM341.0031 100.83854Q341.0031 100.93229 340.9875 100.99479Q340.9875 101.041664 340.95624 101.08854Q340.9406 101.11979 340.90936 101.15104Q340.89374 101.166664 340.84686 101.166664L338.33124 101.166664Q338.2375 101.166664 338.14374 101.104164Q338.05 101.02604 338.05 100.854164L338.05 95.58854Q338.05 95.55729 338.0656 95.541664Q338.09686 95.510414 338.1281 95.49479Q338.175 95.479164 338.2531 95.46354Q338.33124 95.447914 338.4406 95.447914Q338.55 95.447914 338.6125 95.46354Q338.6906 95.479164 338.7375 95.49479Q338.78436 95.510414 338.8 95.541664Q338.8156 95.55729 338.8156 95.58854L338.8156 100.510414L340.84686 100.510414Q340.89374 100.510414 340.90936 100.541664Q340.9406 100.55729 340.95624 100.58854Q340.9875 100.61979 340.9875 100.68229Q341.0031 100.74479 341.0031 100.83854ZM342.8156 101.05729Q342.8156 101.08854 342.8 101.11979Q342.78436 101.135414 342.7375 101.15104Q342.6906 101.166664 342.6125 101.18229Q342.55 101.197914 342.4406 101.197914Q342.33124 101.197914 342.2531 101.18229Q342.175 101.166664 342.1281 101.15104Q342.09686 101.135414 342.0656 101.11979Q342.05 101.08854 342.05 101.05729L342.05 95.58854Q342.05 95.55729 342.0656 95.541664Q342.09686 95.510414 342.14374 95.49479Q342.1906 95.479164 342.2531 95.46354Q342.33124 95.447914 342.4406 95.447914Q342.55 95.447914 342.6125 95.46354Q342.6906 95.479164 342.7375 95.49479Q342.78436 95.510414 342.8 95.541664Q342.8156 95.55729 342.8156 95.58854L342.8156 101.05729ZM347.84686 100.36979Q347.84686 100.43229 347.84686 100.49479Q347.84686 100.541664 347.83124 100.58854Q347.8156 100.61979 347.8 100.65104Q347.78436 100.68229 347.7375 100.729164Q347.70624 100.760414 347.5656 100.854164Q347.425 100.947914 347.20624 101.041664Q347.0031 101.11979 346.72186 101.18229Q346.45624 101.24479 346.14374 101.24479Q345.58124 101.24479 345.1281 101.05729Q344.6906 100.86979 344.3781 100.510414Q344.0656 100.15104 343.89374 99.61979Q343.72186 99.08854 343.72186 98.40104Q343.72186 97.697914 343.90936 97.15104Q344.09686 96.58854 344.425 96.197914Q344.7531 95.80729 345.20624 95.61979Q345.675 95.416664 346.22186 95.416664Q346.47186 95.416664 346.70624 95.46354Q346.9406 95.49479 347.1281 95.572914Q347.33124 95.635414 347.4875 95.729164Q347.64374 95.822914 347.6906 95.885414Q347.7531 95.947914 347.76874 95.979164Q347.8 96.010414 347.8 96.05729Q347.8156 96.08854 347.8156 96.15104Q347.83124 96.197914 347.83124 96.291664Q347.83124 96.36979 347.8156 96.43229Q347.8156 96.49479 347.8 96.541664Q347.78436 96.572914 347.7531 96.604164Q347.7375 96.61979 347.6906 96.61979Q347.6281 96.61979 347.51874 96.541664Q347.40936 96.447914 347.2375 96.354164Q347.0656 96.24479 346.8156 96.166664Q346.5656 96.072914 346.22186 96.072914Q345.84686 96.072914 345.53436 96.229164Q345.22186 96.36979 345.0031 96.666664Q344.78436 96.96354 344.65936 97.385414Q344.55 97.80729 344.55 98.354164Q344.55 98.90104 344.65936 99.322914Q344.78436 99.729164 344.9875 100.010414Q345.20624 100.27604 345.51874 100.43229Q345.84686 100.572914 346.2375 100.572914Q346.58124 100.572914 346.83124 100.49479Q347.08124 100.40104 347.2531 100.30729Q347.4406 100.197914 347.55 100.11979Q347.675 100.02604 347.7375 100.02604Q347.76874 100.02604 347.78436 100.041664Q347.8156 100.05729 347.83124 100.104164Q347.84686 100.135414 347.84686 100.197914Q347.84686 100.260414 347.84686 100.36979ZM353.8156 98.260414Q353.8156 98.947914 353.64374 99.510414Q353.4875 100.05729 353.15936 100.447914Q352.84686 100.83854 352.3625 101.041664Q351.8781 101.24479 351.22186 101.24479Q350.58124 101.24479 350.1125 101.05729Q349.64374 100.86979 349.33124 100.510414Q349.03436 100.135414 348.8781 99.604164Q348.7375 99.05729 348.7375 98.354164Q348.7375 97.68229 348.89374 97.135414Q349.0656 96.58854 349.3781 96.197914Q349.70624 95.80729 350.1906 95.604164Q350.6906 95.40104 351.33124 95.40104Q351.97186 95.40104 352.425 95.58854Q352.89374 95.77604 353.20624 96.135414Q353.51874 96.49479 353.65936 97.041664Q353.8156 97.572914 353.8156 98.260414ZM353.01874 98.30729Q353.01874 97.822914 352.925 97.416664Q352.84686 96.99479 352.64374 96.697914Q352.45624 96.385414 352.1125 96.21354Q351.78436 96.041664 351.3 96.041664Q350.8 96.041664 350.45624 96.229164Q350.1281 96.416664 349.925 96.729164Q349.72186 97.02604 349.6281 97.447914Q349.53436 97.854164 349.53436 98.30729Q349.53436 98.80729 349.6125 99.229164Q349.70624 99.65104 349.89374 99.96354Q350.09686 100.260414 350.425 100.43229Q350.76874 100.58854 351.26874 100.58854Q351.7531 100.58854 352.09686 100.416664Q352.4406 100.229164 352.64374 99.916664Q352.84686 99.604164 352.925 99.197914Q353.01874 98.77604 353.01874 98.30729Z" fill-rule="nonzero"/><path fill="#757575" d="M87.765625 24.121876Q87.765625 24.809376 87.609375 25.371876Q87.46875 25.934376 87.140625 26.325Q86.8125 26.715626 86.296875 26.95Q85.796875 27.16875 85.09375 27.16875Q84.359375 27.16875 83.84375 26.95Q83.34375 26.715626 83.046875 26.325Q82.75 25.934376 82.625 25.403126Q82.5 24.85625 82.5 24.184376Q82.5 23.528126 82.65625 22.98125Q82.8125 22.434376 83.125 22.028126Q83.453125 21.621876 83.953125 21.403126Q84.453125 21.16875 85.171875 21.16875Q85.953125 21.16875 86.453125 21.41875Q86.96875 21.653126 87.25 22.059376Q87.546875 22.465626 87.65625 22.996876Q87.765625 23.528126 87.765625 24.121876ZM86.03125 24.184376Q86.03125 23.7 85.96875 23.371876Q85.921875 23.028126 85.8125 22.825Q85.71875 22.60625 85.53125 22.5125Q85.359375 22.403126 85.125 22.403126Q84.90625 22.403126 84.734375 22.496876Q84.578125 22.590626 84.46875 22.79375Q84.359375 22.996876 84.296875 23.340626Q84.25 23.66875 84.25 24.1375Q84.25 24.684376 84.3125 25.028126Q84.375 25.371876 84.484375 25.575Q84.59375 25.778126 84.765625 25.85625Q84.9375 25.91875 85.15625 25.91875Q85.40625 25.91875 85.5625 25.825Q85.734375 25.715626 85.828125 25.5125Q85.9375 25.29375 85.984375 24.965626Q86.03125 24.6375 86.03125 24.184376ZM94.609375 29.809376Q94.609375 30.496876 94.453125 31.059376Q94.3125 31.621876 93.984375 32.0125Q93.65625 32.403126 93.140625 32.6375Q92.640625 32.85625 91.9375 32.85625Q91.203125 32.85625 90.6875 32.6375Q90.1875 32.403126 89.890625 32.0125Q89.59375 31.621876 89.46875 31.090626Q89.34375 30.54375 89.34375 29.871876Q89.34375 29.215626 89.5 28.66875Q89.65625 28.121876 89.96875 27.715626Q90.296875 27.309376 90.796875 27.090626Q91.296875 26.85625 92.015625 26.85625Q92.796875 26.85625 93.296875 27.10625Q93.8125 27.340626 94.09375 27.746876Q94.390625 28.153126 94.5 28.684376Q94.609375 29.215626 94.609375 29.809376ZM92.875 29.871876Q92.875 29.3875 92.8125 29.059376Q92.765625 28.715626 92.65625 28.5125Q92.5625 28.29375 92.375 28.2Q92.203125 28.090626 91.96875 28.090626Q91.75 28.090626 91.578125 28.184376Q91.421875 28.278126 91.3125 28.48125Q91.203125 28.684376 91.140625 29.028126Q91.09375 29.35625 91.09375 29.825Q91.09375 30.371876 91.15625 30.715626Q91.21875 31.059376 91.328125 31.2625Q91.4375 31.465626 91.609375 31.54375Q91.78125 31.60625 92.0 31.60625Q92.25 31.60625 92.40625 31.5125Q92.578125 31.403126 92.671875 31.2Q92.78125 30.98125 92.828125 30.653126Q92.875 30.325 92.875 29.871876ZM85.359375 32.6375Q85.28125 32.746876 85.1875 32.809376Q85.109375 32.871876 84.984375 32.91875Q84.875 32.965626 84.6875 32.98125Q84.515625 32.996876 84.265625 32.996876Q83.96875 32.996876 83.796875 32.965626Q83.625 32.934376 83.546875 32.85625Q83.484375 32.79375 83.5 32.7Q83.515625 32.60625 83.609375 32.465626L91.703125 21.371876Q91.78125 21.278126 91.859375 21.215626Q91.953125 21.1375 92.078125 21.090626Q92.203125 21.04375 92.375 21.028126Q92.546875 21.0125 92.8125 21.0125Q93.09375 21.0125 93.265625 21.04375Q93.4375 21.075 93.515625 21.153126Q93.59375 21.215626 93.578125 21.325Q93.5625 21.41875 93.46875 21.54375L85.359375 32.6375ZM108.0 28.371876Q108.0 29.41875 107.765625 30.2625Q107.546875 31.090626 107.109375 31.684376Q106.6875 32.2625 106.046875 32.590626Q105.40625 32.903126 104.578125 32.903126Q104.234375 32.903126 103.953125 32.840626Q103.671875 32.778126 103.390625 32.6375Q103.125 32.496876 102.859375 32.29375Q102.609375 32.090626 102.328125 31.825L102.328125 35.5125Q102.328125 35.60625 102.265625 35.66875Q102.21875 35.746876 102.09375 35.79375Q101.96875 35.840626 101.75 35.85625Q101.546875 35.8875 101.21875 35.8875Q100.890625 35.8875 100.671875 35.85625Q100.46875 35.840626 100.34375 35.79375Q100.21875 35.746876 100.15625 35.66875Q100.109375 35.60625 100.109375 35.5125L100.109375 24.559376Q100.109375 24.465626 100.15625 24.403126Q100.203125 24.340626 100.3125 24.29375Q100.421875 24.246876 100.59375 24.23125Q100.78125 24.215626 101.046875 24.215626Q101.3125 24.215626 101.484375 24.23125Q101.671875 24.246876 101.78125 24.29375Q101.890625 24.340626 101.9375 24.403126Q101.984375 24.465626 101.984375 24.559376L101.984375 25.48125Q102.328125 25.1375 102.65625 24.871876Q102.984375 24.590626 103.328125 24.41875Q103.671875 24.23125 104.03125 24.153126Q104.390625 24.059376 104.8125 24.059376Q105.671875 24.059376 106.28125 24.403126Q106.890625 24.73125 107.265625 25.325Q107.65625 25.91875 107.828125 26.7Q108.0 27.48125 108.0 28.371876ZM105.703125 28.528126Q105.703125 28.028126 105.625 27.575Q105.546875 27.10625 105.359375 26.746876Q105.1875 26.3875 104.890625 26.16875Q104.59375 25.95 104.15625 25.95Q103.9375 25.95 103.71875 26.0125Q103.515625 26.075 103.28125 26.23125Q103.0625 26.3875 102.828125 26.621876Q102.59375 26.85625 102.328125 27.2L102.328125 29.79375Q102.78125 30.371876 103.203125 30.7Q103.625 31.028126 104.09375 31.028126Q104.515625 31.028126 104.8125 30.809376Q105.125 30.575 105.3125 30.23125Q105.515625 29.871876 105.609375 29.41875Q105.703125 28.965626 105.703125 28.528126ZM118.03125 28.403126Q118.03125 29.403126 117.765625 30.23125Q117.515625 31.059376 116.96875 31.653126Q116.4375 32.246876 115.625 32.575Q114.8125 32.903126 113.734375 32.903126Q112.6875 32.903126 111.90625 32.621876Q111.140625 32.325 110.625 31.778126Q110.125 31.215626 109.875 30.403126Q109.640625 29.590626 109.640625 28.559376Q109.640625 27.559376 109.90625 26.73125Q110.171875 25.903126 110.703125 25.309376Q111.234375 24.715626 112.03125 24.3875Q112.84375 24.059376 113.9375 24.059376Q114.984375 24.059376 115.75 24.35625Q116.53125 24.6375 117.03125 25.184376Q117.546875 25.73125 117.78125 26.54375Q118.03125 27.35625 118.03125 28.403126ZM115.765625 28.496876Q115.765625 27.903126 115.671875 27.41875Q115.578125 26.934376 115.359375 26.575Q115.140625 26.215626 114.765625 26.0125Q114.40625 25.809376 113.859375 25.809376Q113.359375 25.809376 112.984375 25.996876Q112.625 26.16875 112.375 26.5125Q112.140625 26.85625 112.015625 27.35625Q111.90625 27.840626 111.90625 28.465626Q111.90625 29.04375 112.0 29.528126Q112.109375 30.0125 112.3125 30.3875Q112.53125 30.746876 112.890625 30.95Q113.265625 31.1375 113.8125 31.1375Q114.3125 31.1375 114.6875 30.965626Q115.0625 30.778126 115.296875 30.434376Q115.53125 30.090626 115.640625 29.60625Q115.765625 29.10625 115.765625 28.496876ZM125.59375 31.79375Q125.59375 32.04375 125.5625 32.23125Q125.546875 32.403126 125.5 32.5125Q125.453125 32.621876 125.375 32.66875Q125.3125 32.7 125.21875 32.7L120.09375 32.7Q119.859375 32.7 119.734375 32.54375Q119.609375 32.3875 119.609375 32.028126L119.609375 31.621876Q119.609375 31.465626 119.625 31.340626Q119.640625 31.2 119.671875 31.090626Q119.71875 30.965626 119.78125 30.840626Q119.84375 30.715626 119.953125 30.575L122.890625 26.04375L120.109375 26.04375Q119.9375 26.04375 119.828125 25.840626Q119.734375 25.621876 119.734375 25.153126Q119.734375 24.8875 119.75 24.73125Q119.78125 24.559376 119.828125 24.465626Q119.875 24.35625 119.9375 24.309376Q120.015625 24.2625 120.109375 24.2625L124.890625 24.2625Q125.015625 24.2625 125.109375 24.29375Q125.203125 24.309376 125.25 24.3875Q125.3125 24.45 125.34375 24.575Q125.375 24.7 125.375 24.8875L125.375 25.309376Q125.375 25.496876 125.359375 25.6375Q125.34375 25.7625 125.296875 25.8875Q125.265625 26.0125 125.203125 26.1375Q125.140625 26.2625 125.046875 26.403126L122.125 30.91875L125.21875 30.91875Q125.296875 30.91875 125.359375 30.965626Q125.4375 30.996876 125.484375 31.090626Q125.546875 31.184376 125.5625 31.35625Q125.59375 31.528126 125.59375 31.79375ZM135.03125 28.403126Q135.03125 29.403126 134.76562 30.23125Q134.51562 31.059376 133.96875 31.653126Q133.4375 32.246876 132.625 32.575Q131.8125 32.903126 130.73438 32.903126Q129.6875 32.903126 128.90625 32.621876Q128.14062 32.325 127.625 31.778126Q127.125 31.215626 126.875 30.403126Q126.640625 29.590626 126.640625 28.559376Q126.640625 27.559376 126.90625 26.73125Q127.171875 25.903126 127.703125 25.309376Q128.23438 24.715626 129.03125 24.3875Q129.84375 24.059376 130.9375 24.059376Q131.98438 24.059376 132.75 24.35625Q133.53125 24.6375 134.03125 25.184376Q134.54688 25.73125 134.78125 26.54375Q135.03125 27.35625 135.03125 28.403126ZM132.76562 28.496876Q132.76562 27.903126 132.67188 27.41875Q132.57812 26.934376 132.35938 26.575Q132.14062 26.215626 131.76562 26.0125Q131.40625 25.809376 130.85938 25.809376Q130.35938 25.809376 129.98438 25.996876Q129.625 26.16875 129.375 26.5125Q129.14062 26.85625 129.01562 27.35625Q128.90625 27.840626 128.90625 28.465626Q128.90625 29.04375 129.0 29.528126Q129.10938 30.0125 129.3125 30.3875Q129.53125 30.746876 129.89062 30.95Q130.26562 31.1375 130.8125 31.1375Q131.3125 31.1375 131.6875 30.965626Q132.0625 30.778126 132.29688 30.434376Q132.53125 30.090626 132.64062 29.60625Q132.76562 29.10625 132.76562 28.496876ZM142.625 30.184376Q142.625 30.85625 142.375 31.371876Q142.125 31.871876 141.67188 32.215626Q141.21875 32.559376 140.59375 32.73125Q139.96875 32.903126 139.23438 32.903126Q138.79688 32.903126 138.39062 32.840626Q138.0 32.778126 137.67188 32.684376Q137.35938 32.575 137.14062 32.465626Q136.9375 32.35625 136.84375 32.2625Q136.75 32.16875 136.6875 31.98125Q136.64062 31.778126 136.64062 31.3875Q136.64062 31.1375 136.65625 30.98125Q136.67188 30.825 136.70312 30.73125Q136.75 30.6375 136.79688 30.60625Q136.85938 30.575 136.9375 30.575Q137.03125 30.575 137.21875 30.684376Q137.40625 30.79375 137.6875 30.934376Q137.96875 31.059376 138.34375 31.184376Q138.71875 31.29375 139.1875 31.29375Q139.48438 31.29375 139.71875 31.23125Q139.95312 31.16875 140.125 31.059376Q140.29688 30.934376 140.375 30.7625Q140.46875 30.590626 140.46875 30.35625Q140.46875 30.090626 140.3125 29.903126Q140.15625 29.715626 139.875 29.575Q139.60938 29.434376 139.26562 29.325Q138.9375 29.2 138.57812 29.04375Q138.21875 28.8875 137.875 28.7Q137.54688 28.5125 137.28125 28.23125Q137.01562 27.95 136.84375 27.559376Q136.6875 27.153126 136.6875 26.60625Q136.6875 26.04375 136.90625 25.575Q137.125 25.090626 137.53125 24.7625Q137.95312 24.434376 138.54688 24.246876Q139.14062 24.059376 139.875 24.059376Q140.25 24.059376 140.59375 24.121876Q140.9375 24.16875 141.21875 24.246876Q141.5 24.325 141.6875 24.41875Q141.89062 24.5125 141.96875 24.575Q142.0625 24.6375 142.09375 24.715626Q142.125 24.778126 142.14062 24.871876Q142.15625 24.95 142.17188 25.090626Q142.1875 25.23125 142.1875 25.434376Q142.1875 25.66875 142.17188 25.825Q142.15625 25.965626 142.125 26.059376Q142.09375 26.1375 142.04688 26.16875Q142.0 26.2 141.92188 26.2Q141.84375 26.2 141.67188 26.10625Q141.51562 26.0125 141.26562 25.91875Q141.01562 25.809376 140.67188 25.715626Q140.34375 25.621876 139.92188 25.621876Q139.625 25.621876 139.40625 25.684376Q139.1875 25.746876 139.04688 25.871876Q138.90625 25.98125 138.82812 26.1375Q138.76562 26.278126 138.76562 26.465626Q138.76562 26.73125 138.9375 26.91875Q139.10938 27.10625 139.375 27.246876Q139.64062 27.3875 139.98438 27.5125Q140.34375 27.621876 140.6875 27.778126Q141.04688 27.91875 141.39062 28.121876Q141.75 28.309376 142.01562 28.590626Q142.29688 28.871876 142.45312 29.2625Q142.625 29.653126 142.625 30.184376ZM156.0 28.371876Q156.0 29.41875 155.76562 30.2625Q155.54688 31.090626 155.10938 31.684376Q154.6875 32.2625 154.04688 32.590626Q153.40625 32.903126 152.57812 32.903126Q152.23438 32.903126 151.95312 32.840626Q151.67188 32.778126 151.39062 32.6375Q151.125 32.496876 150.85938 32.29375Q150.60938 32.090626 150.32812 31.825L150.32812 35.5125Q150.32812 35.60625 150.26562 35.66875Q150.21875 35.746876 150.09375 35.79375Q149.96875 35.840626 149.75 35.85625Q149.54688 35.8875 149.21875 35.8875Q148.89062 35.8875 148.67188 35.85625Q148.46875 35.840626 148.34375 35.79375Q148.21875 35.746876 148.15625 35.66875Q148.10938 35.60625 148.10938 35.5125L148.10938 24.559376Q148.10938 24.465626 148.15625 24.403126Q148.20312 24.340626 148.3125 24.29375Q148.42188 24.246876 148.59375 24.23125Q148.78125 24.215626 149.04688 24.215626Q149.3125 24.215626 149.48438 24.23125Q149.67188 24.246876 149.78125 24.29375Q149.89062 24.340626 149.9375 24.403126Q149.98438 24.465626 149.98438 24.559376L149.98438 25.48125Q150.32812 25.1375 150.65625 24.871876Q150.98438 24.590626 151.32812 24.41875Q151.67188 24.23125 152.03125 24.153126Q152.39062 24.059376 152.8125 24.059376Q153.67188 24.059376 154.28125 24.403126Q154.89062 24.73125 155.26562 25.325Q155.65625 25.91875 155.82812 26.7Q156.0 27.48125 156.0 28.371876ZM153.70312 28.528126Q153.70312 28.028126 153.625 27.575Q153.54688 27.10625 153.35938 26.746876Q153.1875 26.3875 152.89062 26.16875Q152.59375 25.95 152.15625 25.95Q151.9375 25.95 151.71875 26.0125Q151.51562 26.075 151.28125 26.23125Q151.0625 26.3875 150.82812 26.621876Q150.59375 26.85625 150.32812 27.2L150.32812 29.79375Q150.78125 30.371876 151.20312 30.7Q151.625 31.028126 152.09375 31.028126Q152.51562 31.028126 152.8125 30.809376Q153.125 30.575 153.3125 30.23125Q153.51562 29.871876 153.60938 29.41875Q153.70312 28.965626 153.70312 28.528126ZM166.03125 28.403126Q166.03125 29.403126 165.76562 30.23125Q165.51562 31.059376 164.96875 31.653126Q164.4375 32.246876 163.625 32.575Q162.8125 32.903126 161.73438 32.903126Q160.6875 32.903126 159.90625 32.621876Q159.14062 32.325 158.625 31.778126Q158.125 31.215626 157.875 30.403126Q157.64062 29.590626 157.64062 28.559376Q157.64062 27.559376 157.90625 26.73125Q158.17188 25.903126 158.70312 25.309376Q159.23438 24.715626 160.03125 24.3875Q160.84375 24.059376 161.9375 24.059376Q162.98438 24.059376 163.75 24.35625Q164.53125 24.6375 165.03125 25.184376Q165.54688 25.73125 165.78125 26.54375Q166.03125 27.35625 166.03125 28.403126ZM163.76562 28.496876Q163.76562 27.903126 163.67188 27.41875Q163.57812 26.934376 163.35938 26.575Q163.14062 26.215626 162.76562 26.0125Q162.40625 25.809376 161.85938 25.809376Q161.35938 25.809376 160.98438 25.996876Q160.625 26.16875 160.375 26.5125Q160.14062 26.85625 160.01562 27.35625Q159.90625 27.840626 159.90625 28.465626Q159.90625 29.04375 160.0 29.528126Q160.10938 30.0125 160.3125 30.3875Q160.53125 30.746876 160.89062 30.95Q161.26562 31.1375 161.8125 31.1375Q162.3125 31.1375 162.6875 30.965626Q163.0625 30.778126 163.29688 30.434376Q163.53125 30.090626 163.64062 29.60625Q163.76562 29.10625 163.76562 28.496876ZM173.14062 25.29375Q173.14062 25.60625 173.125 25.809376Q173.10938 26.0125 173.0625 26.1375Q173.03125 26.246876 172.96875 26.29375Q172.92188 26.325 172.84375 26.325Q172.76562 26.325 172.67188 26.29375Q172.59375 26.2625 172.48438 26.23125Q172.375 26.2 172.23438 26.16875Q172.10938 26.1375 171.95312 26.1375Q171.76562 26.1375 171.57812 26.215626Q171.39062 26.278126 171.1875 26.45Q171.0 26.60625 170.78125 26.871876Q170.5625 27.121876 170.32812 27.5125L170.32812 32.403126Q170.32812 32.48125 170.26562 32.559376Q170.21875 32.621876 170.09375 32.66875Q169.96875 32.715626 169.75 32.73125Q169.54688 32.746876 169.21875 32.746876Q168.89062 32.746876 168.67188 32.73125Q168.46875 32.715626 168.34375 32.66875Q168.21875 32.621876 168.15625 32.559376Q168.10938 32.48125 168.10938 32.403126L168.10938 24.559376Q168.10938 24.465626 168.15625 24.403126Q168.20312 24.340626 168.3125 24.29375Q168.42188 24.246876 168.59375 24.23125Q168.78125 24.215626 169.0625 24.215626Q169.34375 24.215626 169.51562 24.23125Q169.70312 24.246876 169.79688 24.29375Q169.90625 24.340626 169.95312 24.403126Q170.0 24.465626 170.0 24.559376L170.0 25.54375Q170.3125 25.090626 170.57812 24.809376Q170.84375 24.528126 171.09375 24.35625Q171.34375 24.184376 171.57812 24.121876Q171.82812 24.059376 172.07812 24.059376Q172.1875 24.059376 172.3125 24.075Q172.45312 24.090626 172.59375 24.121876Q172.73438 24.153126 172.84375 24.2Q172.95312 24.23125 173.0 24.278126Q173.04688 24.309376 173.0625 24.371876Q173.09375 24.41875 173.10938 24.5125Q173.125 24.60625 173.125 24.79375Q173.14062 24.98125 173.14062 25.29375ZM185.8125 22.278126Q185.8125 22.528126 185.78125 22.715626Q185.76562 22.8875 185.71875 22.996876Q185.67188 23.10625 185.60938 23.16875Q185.54688 23.215626 185.46875 23.215626L182.60938 23.215626L182.60938 32.3875Q182.60938 32.465626 182.54688 32.54375Q182.5 32.60625 182.35938 32.653126Q182.23438 32.7 182.01562 32.715626Q181.79688 32.746876 181.45312 32.746876Q181.125 32.746876 180.89062 32.715626Q180.67188 32.7 180.53125 32.653126Q180.40625 32.60625 180.34375 32.54375Q180.29688 32.465626 180.29688 32.3875L180.29688 23.215626L177.45312 23.215626Q177.35938 23.215626 177.29688 23.16875Q177.23438 23.10625 177.1875 22.996876Q177.15625 22.8875 177.125 22.715626Q177.10938 22.528126 177.10938 22.278126Q177.10938 22.0125 177.125 21.825Q177.15625 21.6375 177.1875 21.528126Q177.23438 21.41875 177.29688 21.371876Q177.35938 21.325 177.45312 21.325L185.46875 21.325Q185.54688 21.325 185.60938 21.371876Q185.67188 21.41875 185.71875 21.528126Q185.76562 21.6375 185.78125 21.825Q185.8125 22.0125 185.8125 22.278126ZM189.32812 32.403126Q189.32812 32.48125 189.26562 32.559376Q189.21875 32.621876 189.09375 32.66875Q188.96875 32.715626 188.75 32.73125Q188.54688 32.746876 188.21875 32.746876Q187.89062 32.746876 187.67188 32.73125Q187.46875 32.715626 187.34375 32.66875Q187.21875 32.621876 187.15625 32.559376Q187.10938 32.48125 187.10938 32.403126L187.10938 24.575Q187.10938 24.496876 187.15625 24.434376Q187.21875 24.35625 187.34375 24.309376Q187.46875 24.2625 187.67188 24.246876Q187.89062 24.215626 188.21875 24.215626Q188.54688 24.215626 188.75 24.246876Q188.96875 24.2625 189.09375 24.309376Q189.21875 24.35625 189.26562 24.434376Q189.32812 24.496876 189.32812 24.575L189.32812 32.403126ZM189.48438 21.903126Q189.48438 22.575 189.20312 22.840626Q188.9375 23.090626 188.20312 23.090626Q187.45312 23.090626 187.1875 22.840626Q186.9375 22.590626 186.9375 21.95Q186.9375 21.278126 187.20312 21.028126Q187.48438 20.7625 188.21875 20.7625Q188.96875 20.7625 189.21875 21.0125Q189.48438 21.2625 189.48438 21.903126ZM199.0 28.371876Q199.0 29.41875 198.76562 30.2625Q198.54688 31.090626 198.10938 31.684376Q197.6875 32.2625 197.04688 32.590626Q196.40625 32.903126 195.57812 32.903126Q195.23438 32.903126 194.95312 32.840626Q194.67188 32.778126 194.39062 32.6375Q194.125 32.496876 193.85938 32.29375Q193.60938 32.090626 193.32812 31.825L193.32812 35.5125Q193.32812 35.60625 193.26562 35.66875Q193.21875 35.746876 193.09375 35.79375Q192.96875 35.840626 192.75 35.85625Q192.54688 35.8875 192.21875 35.8875Q191.89062 35.8875 191.67188 35.85625Q191.46875 35.840626 191.34375 35.79375Q191.21875 35.746876 191.15625 35.66875Q191.10938 35.60625 191.10938 35.5125L191.10938 24.559376Q191.10938 24.465626 191.15625 24.403126Q191.20312 24.340626 191.3125 24.29375Q191.42188 24.246876 191.59375 24.23125Q191.78125 24.215626 192.04688 24.215626Q192.3125 24.215626 192.48438 24.23125Q192.67188 24.246876 192.78125 24.29375Q192.89062 24.340626 192.9375 24.403126Q192.98438 24.465626 192.98438 24.559376L192.98438 25.48125Q193.32812 25.1375 193.65625 24.871876Q193.98438 24.590626 194.32812 24.41875Q194.67188 24.23125 195.03125 24.153126Q195.39062 24.059376 195.8125 24.059376Q196.67188 24.059376 197.28125 24.403126Q197.89062 24.73125 198.26562 25.325Q198.65625 25.91875 198.82812 26.7Q199.0 27.48125 199.0 28.371876ZM196.70312 28.528126Q196.70312 28.028126 196.625 27.575Q196.54688 27.10625 196.35938 26.746876Q196.1875 26.3875 195.89062 26.16875Q195.59375 25.95 195.15625 25.95Q194.9375 25.95 194.71875 26.0125Q194.51562 26.075 194.28125 26.23125Q194.0625 26.3875 193.82812 26.621876Q193.59375 26.85625 193.32812 27.2L193.32812 29.79375Q193.78125 30.371876 194.20312 30.7Q194.625 31.028126 195.09375 31.028126Q195.51562 31.028126 195.8125 30.809376Q196.125 30.575 196.3125 30.23125Q196.51562 29.871876 196.60938 29.41875Q196.70312 28.965626 196.70312 28.528126ZM209.03125 28.403126Q209.03125 29.403126 208.76562 30.23125Q208.51562 31.059376 207.96875 31.653126Q207.4375 32.246876 206.625 32.575Q205.8125 32.903126 204.73438 32.903126Q203.6875 32.903126 202.90625 32.621876Q202.14062 32.325 201.625 31.778126Q201.125 31.215626 200.875 30.403126Q200.64062 29.590626 200.64062 28.559376Q200.64062 27.559376 200.90625 26.73125Q201.17188 25.903126 201.70312 25.309376Q202.23438 24.715626 203.03125 24.3875Q203.84375 24.059376 204.9375 24.059376Q205.98438 24.059376 206.75 24.35625Q207.53125 24.6375 208.03125 25.184376Q208.54688 25.73125 208.78125 26.54375Q209.03125 27.35625 209.03125 28.403126ZM206.76562 28.496876Q206.76562 27.903126 206.67188 27.41875Q206.57812 26.934376 206.35938 26.575Q206.14062 26.215626 205.76562 26.0125Q205.40625 25.809376 204.85938 25.809376Q204.35938 25.809376 203.98438 25.996876Q203.625 26.16875 203.375 26.5125Q203.14062 26.85625 203.01562 27.35625Q202.90625 27.840626 202.90625 28.465626Q202.90625 29.04375 203.0 29.528126Q203.10938 30.0125 203.3125 30.3875Q203.53125 30.746876 203.89062 30.95Q204.26562 31.1375 204.8125 31.1375Q205.3125 31.1375 205.6875 30.965626Q206.0625 30.778126 206.29688 30.434376Q206.53125 30.090626 206.64062 29.60625Q206.76562 29.10625 206.76562 28.496876ZM223.10938 30.98125Q223.10938 31.2 223.09375 31.35625Q223.07812 31.496876 223.04688 31.621876Q223.03125 31.73125 222.98438 31.809376Q222.9375 31.8875 222.84375 31.996876Q222.75 32.090626 222.46875 32.246876Q222.1875 32.403126 221.78125 32.54375Q221.39062 32.684376 220.875 32.778126Q220.35938 32.8875 219.76562 32.8875Q218.59375 32.8875 217.65625 32.528126Q216.71875 32.16875 216.04688 31.45Q215.39062 30.73125 215.03125 29.66875Q214.6875 28.590626 214.6875 27.16875Q214.6875 25.715626 215.07812 24.590626Q215.46875 23.465626 216.15625 22.7Q216.85938 21.934376 217.82812 21.54375Q218.79688 21.1375 219.96875 21.1375Q220.4375 21.1375 220.875 21.215626Q221.32812 21.29375 221.6875 21.434376Q222.0625 21.559376 222.35938 21.73125Q222.67188 21.8875 222.78125 22.0125Q222.90625 22.121876 222.9375 22.2Q222.98438 22.278126 223.01562 22.403126Q223.04688 22.528126 223.0625 22.7Q223.07812 22.871876 223.07812 23.10625Q223.07812 23.371876 223.04688 23.559376Q223.03125 23.746876 222.98438 23.85625Q222.95312 23.965626 222.89062 24.028126Q222.82812 24.075 222.75 24.075Q222.60938 24.075 222.40625 23.91875Q222.20312 23.7625 221.875 23.575Q221.5625 23.3875 221.125 23.246876Q220.6875 23.090626 220.0625 23.090626Q219.39062 23.090626 218.85938 23.371876Q218.32812 23.6375 217.95312 24.153126Q217.57812 24.66875 217.375 25.403126Q217.1875 26.121876 217.1875 27.04375Q217.1875 28.04375 217.39062 28.778126Q217.60938 29.5125 217.98438 29.996876Q218.375 30.465626 218.90625 30.7Q219.45312 30.91875 220.125 30.91875Q220.73438 30.91875 221.1875 30.778126Q221.64062 30.6375 221.95312 30.465626Q222.28125 30.278126 222.48438 30.1375Q222.6875 29.996876 222.8125 29.996876Q222.89062 29.996876 222.9375 30.04375Q223.0 30.075 223.03125 30.184376Q223.07812 30.278126 223.09375 30.465626Q223.10938 30.653126 223.10938 30.98125ZM233.03125 28.403126Q233.03125 29.403126 232.76562 30.23125Q232.51562 31.059376 231.96875 31.653126Q231.4375 32.246876 230.625 32.575Q229.8125 32.903126 228.73438 32.903126Q227.6875 32.903126 226.90625 32.621876Q226.14062 32.325 225.625 31.778126Q225.125 31.215626 224.875 30.403126Q224.64062 29.590626 224.64062 28.559376Q224.64062 27.559376 224.90625 26.73125Q225.17188 25.903126 225.70312 25.309376Q226.23438 24.715626 227.03125 24.3875Q227.84375 24.059376 228.9375 24.059376Q229.98438 24.059376 230.75 24.35625Q231.53125 24.6375 232.03125 25.184376Q232.54688 25.73125 232.78125 26.54375Q233.03125 27.35625 233.03125 28.403126ZM230.76562 28.496876Q230.76562 27.903126 230.67188 27.41875Q230.57812 26.934376 230.35938 26.575Q230.14062 26.215626 229.76562 26.0125Q229.40625 25.809376 228.85938 25.809376Q228.35938 25.809376 227.98438 25.996876Q227.625 26.16875 227.375 26.5125Q227.14062 26.85625 227.01562 27.35625Q226.90625 27.840626 226.90625 28.465626Q226.90625 29.04375 227.0 29.528126Q227.10938 30.0125 227.3125 30.3875Q227.53125 30.746876 227.89062 30.95Q228.26562 31.1375 228.8125 31.1375Q229.3125 31.1375 229.6875 30.965626Q230.0625 30.778126 230.29688 30.434376Q230.53125 30.090626 230.64062 29.60625Q230.76562 29.10625 230.76562 28.496876ZM242.59375 32.403126Q242.59375 32.48125 242.53125 32.559376Q242.48438 32.621876 242.35938 32.66875Q242.25 32.715626 242.03125 32.73125Q241.8125 32.746876 241.5 32.746876Q241.17188 32.746876 240.95312 32.73125Q240.73438 32.715626 240.60938 32.66875Q240.5 32.621876 240.4375 32.559376Q240.39062 32.48125 240.39062 32.403126L240.39062 27.934376Q240.39062 27.35625 240.29688 27.028126Q240.21875 26.7 240.0625 26.48125Q239.90625 26.246876 239.65625 26.121876Q239.40625 25.98125 239.07812 25.98125Q238.65625 25.98125 238.21875 26.29375Q237.78125 26.60625 237.32812 27.184376L237.32812 32.403126Q237.32812 32.48125 237.26562 32.559376Q237.21875 32.621876 237.09375 32.66875Q236.96875 32.715626 236.75 32.73125Q236.54688 32.746876 236.21875 32.746876Q235.89062 32.746876 235.67188 32.73125Q235.46875 32.715626 235.34375 32.66875Q235.21875 32.621876 235.15625 32.559376Q235.10938 32.48125 235.10938 32.403126L235.10938 24.559376Q235.10938 24.465626 235.15625 24.403126Q235.20312 24.340626 235.3125 24.29375Q235.42188 24.246876 235.59375 24.23125Q235.78125 24.215626 236.0625 24.215626Q236.34375 24.215626 236.51562 24.23125Q236.70312 24.246876 236.79688 24.29375Q236.90625 24.340626 236.95312 24.403126Q237.0 24.465626 237.0 24.559376L237.0 25.465626Q237.64062 24.7625 238.3125 24.41875Q239.0 24.059376 239.71875 24.059376Q240.51562 24.059376 241.0625 24.325Q241.625 24.590626 241.95312 25.04375Q242.29688 25.496876 242.4375 26.10625Q242.59375 26.7 242.59375 27.559376L242.59375 32.403126ZM251.04688 31.153126Q251.04688 31.3875 251.03125 31.54375Q251.01562 31.684376 250.98438 31.79375Q250.96875 31.903126 250.9375 31.965626Q250.90625 32.028126 250.79688 32.1375Q250.70312 32.23125 250.4375 32.3875Q250.1875 32.528126 249.85938 32.6375Q249.53125 32.746876 249.14062 32.809376Q248.76562 32.8875 248.375 32.8875Q247.46875 32.8875 246.76562 32.60625Q246.0625 32.325 245.57812 31.778126Q245.10938 31.23125 244.875 30.45Q244.64062 29.653126 244.64062 28.6375Q244.64062 27.45 244.92188 26.590626Q245.21875 25.73125 245.75 25.16875Q246.28125 24.60625 247.0 24.340626Q247.71875 24.075 248.57812 24.075Q248.9375 24.075 249.26562 24.1375Q249.60938 24.184376 249.90625 24.29375Q250.20312 24.403126 250.42188 24.54375Q250.65625 24.66875 250.75 24.7625Q250.85938 24.85625 250.89062 24.934376Q250.9375 24.996876 250.95312 25.10625Q250.98438 25.2 250.98438 25.35625Q251.0 25.5125 251.0 25.73125Q251.0 26.246876 250.90625 26.45Q250.82812 26.653126 250.6875 26.653126Q250.54688 26.653126 250.375 26.528126Q250.20312 26.403126 249.96875 26.2625Q249.75 26.10625 249.42188 25.98125Q249.10938 25.85625 248.67188 25.85625Q247.8125 25.85625 247.35938 26.528126Q246.90625 27.184376 246.90625 28.465626Q246.90625 29.10625 247.01562 29.590626Q247.125 30.075 247.34375 30.403126Q247.57812 30.715626 247.90625 30.8875Q248.25 31.04375 248.70312 31.04375Q249.15625 31.04375 249.48438 30.91875Q249.8125 30.778126 250.0625 30.60625Q250.3125 30.434376 250.46875 30.309376Q250.64062 30.16875 250.76562 30.16875Q250.84375 30.16875 250.89062 30.215626Q250.9375 30.2625 250.96875 30.3875Q251.0 30.496876 251.01562 30.684376Q251.04688 30.85625 251.04688 31.153126ZM260.34375 28.246876Q260.34375 28.653126 260.15625 28.85625Q259.98438 29.04375 259.67188 29.04375L254.90625 29.04375Q254.90625 29.54375 255.01562 29.95Q255.14062 30.35625 255.39062 30.653126Q255.65625 30.934376 256.0625 31.090626Q256.46875 31.23125 257.04688 31.23125Q257.625 31.23125 258.0625 31.153126Q258.5 31.059376 258.8125 30.965626Q259.14062 30.85625 259.34375 30.778126Q259.5625 30.7 259.70312 30.7Q259.78125 30.7 259.82812 30.73125Q259.89062 30.7625 259.92188 30.840626Q259.95312 30.91875 259.96875 31.059376Q259.98438 31.2 259.98438 31.41875Q259.98438 31.621876 259.96875 31.7625Q259.96875 31.8875 259.9375 31.996876Q259.92188 32.090626 259.89062 32.153126Q259.85938 32.215626 259.79688 32.278126Q259.75 32.340626 259.48438 32.45Q259.23438 32.54375 258.82812 32.653126Q258.4375 32.746876 257.92188 32.825Q257.42188 32.903126 256.84375 32.903126Q255.79688 32.903126 255.0 32.6375Q254.21875 32.371876 253.6875 31.840626Q253.17188 31.309376 252.90625 30.496876Q252.65625 29.66875 252.65625 28.575Q252.65625 27.528126 252.92188 26.684376Q253.20312 25.840626 253.71875 25.2625Q254.23438 24.66875 254.96875 24.371876Q255.71875 24.059376 256.65625 24.059376Q257.64062 24.059376 258.32812 24.35625Q259.03125 24.6375 259.46875 25.153126Q259.92188 25.66875 260.125 26.371876Q260.34375 27.075 260.34375 27.903126L260.34375 28.246876ZM258.20312 27.621876Q258.23438 26.684376 257.82812 26.153126Q257.4375 25.621876 256.59375 25.621876Q256.17188 25.621876 255.85938 25.778126Q255.54688 25.934376 255.34375 26.215626Q255.14062 26.48125 255.03125 26.840626Q254.92188 27.2 254.90625 27.621876L258.20312 27.621876ZM267.625 30.184376Q267.625 30.85625 267.375 31.371876Q267.125 31.871876 266.67188 32.215626Q266.21875 32.559376 265.59375 32.73125Q264.96875 32.903126 264.23438 32.903126Q263.79688 32.903126 263.39062 32.840626Q263.0 32.778126 262.67188 32.684376Q262.35938 32.575 262.14062 32.465626Q261.9375 32.35625 261.84375 32.2625Q261.75 32.16875 261.6875 31.98125Q261.64062 31.778126 261.64062 31.3875Q261.64062 31.1375 261.65625 30.98125Q261.67188 30.825 261.70312 30.73125Q261.75 30.6375 261.79688 30.60625Q261.85938 30.575 261.9375 30.575Q262.03125 30.575 262.21875 30.684376Q262.40625 30.79375 262.6875 30.934376Q262.96875 31.059376 263.34375 31.184376Q263.71875 31.29375 264.1875 31.29375Q264.48438 31.29375 264.71875 31.23125Q264.95312 31.16875 265.125 31.059376Q265.29688 30.934376 265.375 30.7625Q265.46875 30.590626 265.46875 30.35625Q265.46875 30.090626 265.3125 29.903126Q265.15625 29.715626 264.875 29.575Q264.60938 29.434376 264.26562 29.325Q263.9375 29.2 263.57812 29.04375Q263.21875 28.8875 262.875 28.7Q262.54688 28.5125 262.28125 28.23125Q262.01562 27.95 261.84375 27.559376Q261.6875 27.153126 261.6875 26.60625Q261.6875 26.04375 261.90625 25.575Q262.125 25.090626 262.53125 24.7625Q262.95312 24.434376 263.54688 24.246876Q264.14062 24.059376 264.875 24.059376Q265.25 24.059376 265.59375 24.121876Q265.9375 24.16875 266.21875 24.246876Q266.5 24.325 266.6875 24.41875Q266.89062 24.5125 266.96875 24.575Q267.0625 24.6375 267.09375 24.715626Q267.125 24.778126 267.14062 24.871876Q267.15625 24.95 267.17188 25.090626Q267.1875 25.23125 267.1875 25.434376Q267.1875 25.66875 267.17188 25.825Q267.15625 25.965626 267.125 26.059376Q267.09375 26.1375 267.04688 26.16875Q267.0 26.2 266.92188 26.2Q266.84375 26.2 266.67188 26.10625Q266.51562 26.0125 266.26562 25.91875Q266.01562 25.809376 265.67188 25.715626Q265.34375 25.621876 264.92188 25.621876Q264.625 25.621876 264.40625 25.684376Q264.1875 25.746876 264.04688 25.871876Q263.90625 25.98125 263.82812 26.1375Q263.76562 26.278126 263.76562 26.465626Q263.76562 26.73125 263.9375 26.91875Q264.10938 27.10625 264.375 27.246876Q264.64062 27.3875 264.98438 27.5125Q265.34375 27.621876 265.6875 27.778126Q266.04688 27.91875 266.39062 28.121876Q266.75 28.309376 267.01562 28.590626Q267.29688 28.871876 267.45312 29.2625Q267.625 29.653126 267.625 30.184376ZM271.32812 32.403126Q271.32812 32.48125 271.26562 32.559376Q271.21875 32.621876 271.09375 32.66875Q270.96875 32.715626 270.75 32.73125Q270.54688 32.746876 270.21875 32.746876Q269.89062 32.746876 269.67188 32.73125Q269.46875 32.715626 269.34375 32.66875Q269.21875 32.621876 269.15625 32.559376Q269.10938 32.48125 269.10938 32.403126L269.10938 24.575Q269.10938 24.496876 269.15625 24.434376Q269.21875 24.35625 269.34375 24.309376Q269.46875 24.2625 269.67188 24.246876Q269.89062 24.215626 270.21875 24.215626Q270.54688 24.215626 270.75 24.246876Q270.96875 24.2625 271.09375 24.309376Q271.21875 24.35625 271.26562 24.434376Q271.32812 24.496876 271.32812 24.575L271.32812 32.403126ZM271.48438 21.903126Q271.48438 22.575 271.20312 22.840626Q270.9375 23.090626 270.20312 23.090626Q269.45312 23.090626 269.1875 22.840626Q268.9375 22.590626 268.9375 21.95Q268.9375 21.278126 269.20312 21.028126Q269.48438 20.7625 270.21875 20.7625Q270.96875 20.7625 271.21875 21.0125Q271.48438 21.2625 271.48438 21.903126ZM281.03125 28.403126Q281.03125 29.403126 280.76562 30.23125Q280.51562 31.059376 279.96875 31.653126Q279.4375 32.246876 278.625 32.575Q277.8125 32.903126 276.73438 32.903126Q275.6875 32.903126 274.90625 32.621876Q274.14062 32.325 273.625 31.778126Q273.125 31.215626 272.875 30.403126Q272.64062 29.590626 272.64062 28.559376Q272.64062 27.559376 272.90625 26.73125Q273.17188 25.903126 273.70312 25.309376Q274.23438 24.715626 275.03125 24.3875Q275.84375 24.059376 276.9375 24.059376Q277.98438 24.059376 278.75 24.35625Q279.53125 24.6375 280.03125 25.184376Q280.54688 25.73125 280.78125 26.54375Q281.03125 27.35625 281.03125 28.403126ZM278.76562 28.496876Q278.76562 27.903126 278.67188 27.41875Q278.57812 26.934376 278.35938 26.575Q278.14062 26.215626 277.76562 26.0125Q277.40625 25.809376 276.85938 25.809376Q276.35938 25.809376 275.98438 25.996876Q275.625 26.16875 275.375 26.5125Q275.14062 26.85625 275.01562 27.35625Q274.90625 27.840626 274.90625 28.465626Q274.90625 29.04375 275.0 29.528126Q275.10938 30.0125 275.3125 30.3875Q275.53125 30.746876 275.89062 30.95Q276.26562 31.1375 276.8125 31.1375Q277.3125 31.1375 277.6875 30.965626Q278.0625 30.778126 278.29688 30.434376Q278.53125 30.090626 278.64062 29.60625Q278.76562 29.10625 278.76562 28.496876ZM277.26562 20.715626Q277.32812 20.621876 277.40625 20.559376Q277.5 20.48125 277.625 20.434376Q277.76562 20.3875 277.96875 20.371876Q278.17188 20.35625 278.46875 20.35625Q278.85938 20.35625 279.09375 20.403126Q279.32812 20.434376 279.42188 20.496876Q279.53125 20.559376 279.51562 20.653126Q279.51562 20.73125 279.4375 20.840626L277.73438 22.871876Q277.65625 22.965626 277.57812 23.028126Q277.51562 23.075 277.40625 23.121876Q277.29688 23.153126 277.125 23.16875Q276.96875 23.184376 276.71875 23.184376Q276.40625 23.184376 276.21875 23.153126Q276.04688 23.121876 275.96875 23.075Q275.90625 23.0125 275.92188 22.934376Q275.9375 22.840626 276.01562 22.73125L277.26562 20.715626ZM275.01562 24.2625L275.01562 24.2625ZM290.59375 32.403126Q290.59375 32.48125 290.53125 32.559376Q290.48438 32.621876 290.35938 32.66875Q290.25 32.715626 290.03125 32.73125Q289.8125 32.746876 289.5 32.746876Q289.17188 32.746876 288.95312 32.73125Q288.73438 32.715626 288.60938 32.66875Q288.5 32.621876 288.4375 32.559376Q288.39062 32.48125 288.39062 32.403126L288.39062 27.934376Q288.39062 27.35625 288.29688 27.028126Q288.21875 26.7 288.0625 26.48125Q287.90625 26.246876 287.65625 26.121876Q287.40625 25.98125 287.07812 25.98125Q286.65625 25.98125 286.21875 26.29375Q285.78125 26.60625 285.32812 27.184376L285.32812 32.403126Q285.32812 32.48125 285.26562 32.559376Q285.21875 32.621876 285.09375 32.66875Q284.96875 32.715626 284.75 32.73125Q284.54688 32.746876 284.21875 32.746876Q283.89062 32.746876 283.67188 32.73125Q283.46875 32.715626 283.34375 32.66875Q283.21875 32.621876 283.15625 32.559376Q283.10938 32.48125 283.10938 32.403126L283.10938 24.559376Q283.10938 24.465626 283.15625 24.403126Q283.20312 24.340626 283.3125 24.29375Q283.42188 24.246876 283.59375 24.23125Q283.78125 24.215626 284.0625 24.215626Q284.34375 24.215626 284.51562 24.23125Q284.70312 24.246876 284.79688 24.29375Q284.90625 24.340626 284.95312 24.403126Q285.0 24.465626 285.0 24.559376L285.0 25.465626Q285.64062 24.7625 286.3125 24.41875Q287.0 24.059376 287.71875 24.059376Q288.51562 24.059376 289.0625 24.325Q289.625 24.590626 289.95312 25.04375Q290.29688 25.496876 290.4375 26.10625Q290.59375 26.7 290.59375 27.559376L290.59375 32.403126Z" fill-rule="nonzero"/></svg>