<svg version="1.1" viewBox="0.0 0.0 336.0 382.0" fill="none" stroke="none" stroke-linecap="square" stroke-miterlimit="10" width="336" height="382" xmlns:xlink="http://www.w3.org/1999/xlink" xmlns="http://www.w3.org/2000/svg"><path fill="#ffffff" d="M0 0L336.0 0L336.0 382.0L0 382.0L0 0Z" fill-rule="nonzero"/><path fill="#ed7d31" d="M36.790333 143.306C57.154892 114.562744 90.19373 97.48 125.42 97.48L125.42 206.1Z" fill-rule="nonzero"/><path fill="#4472c4" d="M125.42 97.48C175.52075 97.48 219.12204 131.74733 230.96284 180.42876C242.80365 229.11018 219.81181 279.57498 175.30797 302.58572C130.80412 325.59644 76.335075 315.1828 43.458195 277.37808C10.581316 239.57338 7.8267264 184.18625 36.790333 143.306L125.42 206.1Z" fill-rule="nonzero"/><path fill="#000000" d="M150.25194 276.60483Q150.25194 277.16733 150.04881 277.62045Q149.84569 278.07358 149.45506 278.38608Q149.08006 278.68295 148.50194 278.8392Q147.93944 278.99545 147.20506 278.99545Q146.53319 278.99545 145.98631 278.85483Q145.43944 278.7142 145.06444 278.43295Q144.68944 278.1517 144.48631 277.74545Q144.29881 277.3392 144.29881 276.80795Q144.29881 276.38608 144.42381 276.04233Q144.56444 275.69858 144.81444 275.4017Q145.08006 275.10483 145.45506 274.85483Q145.83006 274.5892 146.31444 274.35483Q145.89256 274.1517 145.58006 273.91733Q145.26756 273.66733 145.04881 273.4017Q144.83006 273.12045 144.72069 272.80795Q144.61131 272.49545 144.61131 272.12045Q144.61131 271.6517 144.76756 271.24545Q144.93944 270.8392 145.26756 270.54233Q145.61131 270.24545 146.12694 270.07358Q146.65819 269.9017 147.36131 269.9017Q148.03319 269.9017 148.51756 270.05795Q149.00194 270.2142 149.31444 270.49545Q149.64256 270.7767 149.78319 271.1517Q149.93944 271.5267 149.93944 271.94858Q149.93944 272.30795 149.83006 272.63608Q149.72069 272.94858 149.50194 273.22983Q149.28319 273.51108 148.95506 273.76108Q148.64256 274.01108 148.23631 274.22983Q148.72069 274.47983 149.09569 274.72983Q149.48631 274.97983 149.73631 275.2767Q149.98631 275.55795 150.11131 275.88608Q150.25194 276.2142 150.25194 276.60483ZM148.78319 272.05795Q148.78319 271.7767 148.67381 271.54233Q148.58006 271.30795 148.39256 271.1517Q148.20506 270.97983 147.90819 270.9017Q147.62694 270.80795 147.26756 270.80795Q146.53319 270.80795 146.14256 271.1517Q145.76756 271.47983 145.76756 272.05795Q145.76756 272.32358 145.86131 272.55795Q145.95506 272.79233 146.14256 272.99545Q146.34569 273.19858 146.64256 273.4017Q146.93944 273.5892 147.34569 273.79233Q148.04881 273.44858 148.40819 273.01108Q148.78319 272.57358 148.78319 272.05795ZM149.06444 276.72983Q149.06444 276.4017 148.93944 276.1517Q148.83006 275.9017 148.59569 275.68295Q148.36131 275.44858 148.00194 275.24545Q147.65819 275.04233 147.18944 274.80795Q146.76756 275.0267 146.43944 275.24545Q146.11131 275.44858 145.90819 275.68295Q145.70506 275.9017 145.59569 276.1517Q145.48631 276.4017 145.48631 276.69858Q145.48631 277.35483 145.93944 277.72983Q146.39256 278.0892 147.29881 278.0892Q148.17381 278.0892 148.61131 277.72983Q149.06444 277.35483 149.06444 276.72983ZM157.42381 276.35483Q157.42381 276.57358 157.36131 276.7142Q157.29881 276.8392 157.17381 276.8392L156.17381 276.8392L156.17381 278.69858Q156.17381 278.76108 156.14256 278.79233Q156.11131 278.82358 156.04881 278.85483Q155.98631 278.88608 155.87694 278.9017Q155.76756 278.91733 155.59569 278.91733Q155.42381 278.91733 155.31444 278.9017Q155.20506 278.88608 155.14256 278.85483Q155.08006 278.82358 155.04881 278.79233Q155.03319 278.76108 155.03319 278.69858L155.03319 276.8392L151.37694 276.8392Q151.29881 276.8392 151.23631 276.82358Q151.18944 276.79233 151.14256 276.74545Q151.09569 276.68295 151.08006 276.5892Q151.06444 276.47983 151.06444 276.32358Q151.06444 276.18295 151.06444 276.0892Q151.08006 275.97983 151.09569 275.9017Q151.12694 275.80795 151.15819 275.72983Q151.18944 275.6517 151.23631 275.57358L154.42381 270.19858Q154.45506 270.13608 154.51756 270.10483Q154.58006 270.05795 154.67381 270.04233Q154.78319 270.01108 154.93944 269.99545Q155.09569 269.97983 155.29881 269.97983Q155.51756 269.97983 155.68944 269.99545Q155.86131 270.01108 155.95506 270.04233Q156.06444 270.07358 156.11131 270.12045Q156.17381 270.16733 156.17381 270.22983L156.17381 275.87045L157.17381 275.87045Q157.28319 275.87045 157.34569 275.99545Q157.42381 276.10483 157.42381 276.35483ZM155.03319 271.01108L155.01756 271.01108L152.14256 275.87045L155.03319 275.87045L155.03319 271.01108ZM160.23631 278.12045Q160.23631 278.60483 160.08006 278.7767Q159.92381 278.93295 159.48631 278.93295Q159.08006 278.93295 158.92381 278.7767Q158.76756 278.62045 158.76756 278.1517Q158.76756 277.66733 158.92381 277.51108Q159.09569 277.3392 159.51756 277.3392Q159.92381 277.3392 160.08006 277.49545Q160.23631 277.6517 160.23631 278.12045ZM168.25194 276.60483Q168.25194 277.16733 168.04881 277.62045Q167.84569 278.07358 167.45506 278.38608Q167.08006 278.68295 166.50194 278.8392Q165.93944 278.99545 165.20506 278.99545Q164.53319 278.99545 163.98631 278.85483Q163.43944 278.7142 163.06444 278.43295Q162.68944 278.1517 162.48631 277.74545Q162.29881 277.3392 162.29881 276.80795Q162.29881 276.38608 162.42381 276.04233Q162.56444 275.69858 162.81444 275.4017Q163.08006 275.10483 163.45506 274.85483Q163.83006 274.5892 164.31444 274.35483Q163.89256 274.1517 163.58006 273.91733Q163.26756 273.66733 163.04881 273.4017Q162.83006 273.12045 162.72069 272.80795Q162.61131 272.49545 162.61131 272.12045Q162.61131 271.6517 162.76756 271.24545Q162.93944 270.8392 163.26756 270.54233Q163.61131 270.24545 164.12694 270.07358Q164.65819 269.9017 165.36131 269.9017Q166.03319 269.9017 166.51756 270.05795Q167.00194 270.2142 167.31444 270.49545Q167.64256 270.7767 167.78319 271.1517Q167.93944 271.5267 167.93944 271.94858Q167.93944 272.30795 167.83006 272.63608Q167.72069 272.94858 167.50194 273.22983Q167.28319 273.51108 166.95506 273.76108Q166.64256 274.01108 166.23631 274.22983Q166.72069 274.47983 167.09569 274.72983Q167.48631 274.97983 167.73631 275.2767Q167.98631 275.55795 168.11131 275.88608Q168.25194 276.2142 168.25194 276.60483ZM166.78319 272.05795Q166.78319 271.7767 166.67381 271.54233Q166.58006 271.30795 166.39256 271.1517Q166.20506 270.97983 165.90819 270.9017Q165.62694 270.80795 165.26756 270.80795Q164.53319 270.80795 164.14256 271.1517Q163.76756 271.47983 163.76756 272.05795Q163.76756 272.32358 163.86131 272.55795Q163.95506 272.79233 164.14256 272.99545Q164.34569 273.19858 164.64256 273.4017Q164.93944 273.5892 165.34569 273.79233Q166.04881 273.44858 166.40819 273.01108Q166.78319 272.57358 166.78319 272.05795ZM167.06444 276.72983Q167.06444 276.4017 166.93944 276.1517Q166.83006 275.9017 166.59569 275.68295Q166.36131 275.44858 166.00194 275.24545Q165.65819 275.04233 165.18944 274.80795Q164.76756 275.0267 164.43944 275.24545Q164.11131 275.44858 163.90819 275.68295Q163.70506 275.9017 163.59569 276.1517Q163.48631 276.4017 163.48631 276.69858Q163.48631 277.35483 163.93944 277.72983Q164.39256 278.0892 165.29881 278.0892Q166.17381 278.0892 166.61131 277.72983Q167.06444 277.35483 167.06444 276.72983ZM173.03319 272.2142Q173.03319 272.74545 172.90819 273.18295Q172.79881 273.60483 172.56444 273.91733Q172.33006 274.2142 171.95506 274.38608Q171.59569 274.55795 171.09569 274.55795Q170.59569 274.55795 170.23631 274.4017Q169.89256 274.22983 169.65819 273.93295Q169.43944 273.63608 169.33006 273.2142Q169.23631 272.79233 169.23631 272.24545Q169.23631 271.74545 169.34569 271.32358Q169.45506 270.88608 169.68944 270.5892Q169.92381 270.2767 170.28319 270.10483Q170.65819 269.91733 171.14256 269.91733Q171.68944 269.91733 172.04881 270.10483Q172.42381 270.29233 172.64256 270.60483Q172.86131 270.91733 172.93944 271.3392Q173.03319 271.74545 173.03319 272.2142ZM172.08006 272.24545Q172.08006 271.87045 172.01756 271.57358Q171.97069 271.2767 171.86131 271.07358Q171.75194 270.87045 171.56444 270.7767Q171.37694 270.66733 171.12694 270.66733Q170.87694 270.66733 170.70506 270.7767Q170.53319 270.87045 170.40819 271.05795Q170.29881 271.24545 170.23631 271.54233Q170.18944 271.82358 170.18944 272.19858Q170.18944 272.66733 170.25194 272.97983Q170.33006 273.29233 170.43944 273.47983Q170.56444 273.6517 170.73631 273.72983Q170.92381 273.79233 171.15819 273.79233Q171.42381 273.79233 171.59569 273.69858Q171.78319 273.5892 171.87694 273.38608Q171.98631 273.18295 172.03319 272.9017Q172.08006 272.62045 172.08006 272.24545ZM178.25194 276.63608Q178.25194 277.16733 178.12694 277.60483Q178.01756 278.0267 177.78319 278.3392Q177.54881 278.63608 177.17381 278.80795Q176.81444 278.97983 176.31444 278.97983Q175.81444 278.97983 175.45506 278.82358Q175.11131 278.6517 174.87694 278.35483Q174.65819 278.05795 174.54881 277.63608Q174.45506 277.2142 174.45506 276.66733Q174.45506 276.16733 174.56444 275.74545Q174.67381 275.30795 174.90819 275.01108Q175.14256 274.69858 175.50194 274.5267Q175.87694 274.3392 176.36131 274.3392Q176.90819 274.3392 177.26756 274.5267Q177.64256 274.7142 177.86131 275.0267Q178.08006 275.3392 178.15819 275.76108Q178.25194 276.16733 178.25194 276.63608ZM177.29881 276.66733Q177.29881 276.29233 177.23631 275.99545Q177.18944 275.69858 177.08006 275.49545Q176.97069 275.29233 176.78319 275.19858Q176.59569 275.0892 176.34569 275.0892Q176.09569 275.0892 175.92381 275.19858Q175.75194 275.29233 175.62694 275.47983Q175.51756 275.66733 175.45506 275.9642Q175.40819 276.24545 175.40819 276.62045Q175.40819 277.0892 175.47069 277.4017Q175.54881 277.7142 175.65819 277.9017Q175.78319 278.07358 175.95506 278.1517Q176.14256 278.2142 176.37694 278.2142Q176.64256 278.2142 176.81444 278.12045Q177.00194 278.01108 177.09569 277.80795Q177.20506 277.60483 177.25194 277.32358Q177.29881 277.04233 177.29881 276.66733ZM171.09569 278.93295Q171.06444 278.97983 171.01756 279.01108Q170.97069 279.04233 170.89256 279.05795Q170.83006 279.0892 170.73631 279.10483Q170.64256 279.12045 170.50194 279.12045Q170.34569 279.12045 170.25194 279.0892Q170.17381 279.05795 170.12694 279.01108Q170.09569 278.97983 170.09569 278.9017Q170.11131 278.8392 170.17381 278.76108L176.31444 269.94858Q176.36131 269.9017 176.40819 269.87045Q176.45506 269.82358 176.51756 269.80795Q176.59569 269.7767 176.68944 269.7767Q176.78319 269.76108 176.92381 269.76108Q177.06444 269.76108 177.15819 269.79233Q177.25194 269.80795 177.28319 269.85483Q177.33006 269.9017 177.31444 269.97983Q177.31444 270.04233 177.25194 270.12045L171.09569 278.93295Z" fill-rule="nonzero"/><path fill="#000000" d="M78.44743 139.8608Q78.44743 140.00142 78.41618 140.09517Q78.40056 140.1733 78.36931 140.2358Q78.33806 140.28267 78.29118 140.31392Q78.24431 140.32954 78.19743 140.32954L73.57243 140.32954Q73.52556 140.32954 73.47868 140.31392Q73.44743 140.28267 73.40056 140.2358Q73.36931 140.1733 73.33806 140.09517Q73.32243 140.00142 73.32243 139.8608Q73.32243 139.7358 73.33806 139.65767Q73.36931 139.56392 73.40056 139.51704Q73.43181 139.45454 73.47868 139.4233Q73.52556 139.39204 73.57243 139.39204L75.41618 139.39204L75.41618 132.65767L73.71306 133.6733Q73.58806 133.75142 73.49431 133.76704Q73.41618 133.76704 73.36931 133.7358Q73.32243 133.68892 73.30681 133.59517Q73.29118 133.4858 73.29118 133.32954Q73.29118 133.20454 73.29118 133.12642Q73.30681 133.0483 73.32243 133.00142Q73.35368 132.93892 73.38493 132.89204Q73.43181 132.84517 73.49431 132.81392L75.52556 131.50142Q75.55681 131.4858 75.58806 131.47017Q75.63493 131.45454 75.69743 131.43892Q75.75993 131.4233 75.83806 131.4233Q75.93181 131.4233 76.04118 131.4233Q76.21306 131.4233 76.32243 131.43892Q76.43181 131.45454 76.49431 131.4858Q76.55681 131.50142 76.57243 131.5483Q76.58806 131.57954 76.58806 131.6108L76.58806 139.39204L78.19743 139.39204Q78.24431 139.39204 78.29118 139.4233Q78.33806 139.45454 78.36931 139.51704Q78.40056 139.56392 78.41618 139.65767Q78.44743 139.7358 78.44743 139.8608ZM85.38493 137.4858Q85.38493 138.18892 85.13493 138.75142Q84.90056 139.2983 84.46306 139.68892Q84.02556 140.06392 83.41618 140.26704Q82.82243 140.45454 82.07243 140.45454Q81.66618 140.45454 81.29118 140.39204Q80.93181 140.34517 80.63493 140.26704Q80.35368 140.1733 80.16618 140.09517Q79.97868 140.00142 79.93181 139.95454Q79.88493 139.90767 79.85368 139.87642Q79.83806 139.82954 79.82243 139.78267Q79.80681 139.72017 79.79118 139.62642Q79.79118 139.53267 79.79118 139.40767Q79.79118 139.2983 79.80681 139.20454Q79.82243 139.1108 79.83806 139.06392Q79.86931 139.00142 79.90056 138.97017Q79.94743 138.93892 79.99431 138.93892Q80.05681 138.93892 80.19743 139.03267Q80.35368 139.1108 80.58806 139.22017Q80.83806 139.31392 81.19743 139.40767Q81.55681 139.4858 82.04118 139.4858Q82.49431 139.4858 82.86931 139.37642Q83.25993 139.26704 83.54118 139.03267Q83.82243 138.7983 83.97868 138.45454Q84.13493 138.09517 84.13493 137.59517Q84.13493 137.1733 83.99431 136.84517Q83.86931 136.51704 83.58806 136.31392Q83.32243 136.09517 82.88493 135.9858Q82.46306 135.87642 81.88493 135.87642Q81.46306 135.87642 81.15056 135.9233Q80.85368 135.95454 80.60368 135.95454Q80.41618 135.95454 80.32243 135.87642Q80.24431 135.78267 80.24431 135.53267L80.24431 131.9233Q80.24431 131.70454 80.35368 131.59517Q80.46306 131.4858 80.65056 131.4858L84.57243 131.4858Q84.63493 131.4858 84.68181 131.51704Q84.72868 131.5483 84.75993 131.6108Q84.79118 131.6733 84.80681 131.76704Q84.83806 131.8608 84.83806 131.9858Q84.83806 132.2358 84.75993 132.37642Q84.69743 132.50142 84.57243 132.50142L81.27556 132.50142L81.27556 134.9858Q81.50993 134.95454 81.75993 134.95454Q82.00993 134.93892 82.33806 134.93892Q83.10368 134.93892 83.66618 135.12642Q84.22868 135.2983 84.60368 135.64204Q84.99431 135.97017 85.18181 136.43892Q85.38493 136.90767 85.38493 137.4858ZM88.60368 139.57954Q88.60368 140.06392 88.44743 140.2358Q88.29118 140.39204 87.85368 140.39204Q87.44743 140.39204 87.29118 140.2358Q87.13493 140.07954 87.13493 139.6108Q87.13493 139.12642 87.29118 138.97017Q87.46306 138.7983 87.88493 138.7983Q88.29118 138.7983 88.44743 138.95454Q88.60368 139.1108 88.60368 139.57954ZM96.41618 139.82954Q96.41618 139.93892 96.40056 140.0483Q96.38493 140.14204 96.35368 140.20454Q96.32243 140.26704 96.27556 140.2983Q96.22868 140.32954 96.16618 140.32954L91.27556 140.32954Q91.18181 140.32954 91.10368 140.31392Q91.04118 140.28267 90.97868 140.2358Q90.93181 140.1733 90.90056 140.07954Q90.88493 139.97017 90.88493 139.81392Q90.88493 139.6733 90.88493 139.57954Q90.90056 139.47017 90.93181 139.39204Q90.97868 139.31392 91.02556 139.2358Q91.07243 139.15767 91.15056 139.06392L92.86931 137.25142Q93.46306 136.62642 93.82243 136.12642Q94.18181 135.62642 94.36931 135.22017Q94.57243 134.7983 94.63493 134.47017Q94.69743 134.14204 94.69743 133.84517Q94.69743 133.5483 94.60368 133.28267Q94.50993 133.01704 94.32243 132.82954Q94.15056 132.62642 93.86931 132.51704Q93.60368 132.39204 93.24431 132.39204Q92.82243 132.39204 92.49431 132.51704Q92.16618 132.62642 91.91618 132.76704Q91.66618 132.89204 91.49431 133.01704Q91.32243 133.12642 91.24431 133.12642Q91.19743 133.12642 91.15056 133.1108Q91.11931 133.07954 91.08806 133.01704Q91.07243 132.95454 91.05681 132.8608Q91.04118 132.75142 91.04118 132.6108Q91.04118 132.50142 91.04118 132.4233Q91.05681 132.34517 91.07243 132.2983Q91.08806 132.2358 91.11931 132.18892Q91.15056 132.14204 91.22868 132.07954Q91.30681 132.00142 91.50993 131.87642Q91.71306 131.75142 92.00993 131.64204Q92.32243 131.51704 92.68181 131.43892Q93.05681 131.3608 93.46306 131.3608Q94.10368 131.3608 94.58806 131.5483Q95.07243 131.72017 95.38493 132.03267Q95.69743 132.34517 95.85368 132.76704Q96.00993 133.1733 96.00993 133.65767Q96.00993 134.07954 95.93181 134.50142Q95.86931 134.90767 95.61931 135.40767Q95.38493 135.89204 94.91618 136.50142Q94.46306 137.09517 93.71306 137.8608L92.30681 139.32954L96.15056 139.32954Q96.21306 139.32954 96.25993 139.3608Q96.30681 139.39204 96.33806 139.45454Q96.38493 139.51704 96.40056 139.6108Q96.41618 139.70454 96.41618 139.82954ZM101.40056 133.6733Q101.40056 134.20454 101.27556 134.64204Q101.16618 135.06392 100.93181 135.37642Q100.69743 135.6733 100.32243 135.84517Q99.96306 136.01704 99.46306 136.01704Q98.96306 136.01704 98.60368 135.8608Q98.25993 135.68892 98.02556 135.39204Q97.80681 135.09517 97.69743 134.6733Q97.60368 134.25142 97.60368 133.70454Q97.60368 133.20454 97.71306 132.78267Q97.82243 132.34517 98.05681 132.0483Q98.29118 131.7358 98.65056 131.56392Q99.02556 131.37642 99.50993 131.37642Q100.05681 131.37642 100.41618 131.56392Q100.79118 131.75142 101.00993 132.06392Q101.22868 132.37642 101.30681 132.7983Q101.40056 133.20454 101.40056 133.6733ZM100.44743 133.70454Q100.44743 133.32954 100.38493 133.03267Q100.33806 132.7358 100.22868 132.53267Q100.11931 132.32954 99.93181 132.2358Q99.74431 132.12642 99.49431 132.12642Q99.24431 132.12642 99.07243 132.2358Q98.90056 132.32954 98.77556 132.51704Q98.66618 132.70454 98.60368 133.00142Q98.55681 133.28267 98.55681 133.65767Q98.55681 134.12642 98.61931 134.43892Q98.69743 134.75142 98.80681 134.93892Q98.93181 135.1108 99.10368 135.18892Q99.29118 135.25142 99.52556 135.25142Q99.79118 135.25142 99.96306 135.15767Q100.15056 135.0483 100.24431 134.84517Q100.35368 134.64204 100.40056 134.3608Q100.44743 134.07954 100.44743 133.70454ZM106.61931 138.09517Q106.61931 138.62642 106.49431 139.06392Q106.38493 139.4858 106.15056 139.7983Q105.91618 140.09517 105.54118 140.26704Q105.18181 140.43892 104.68181 140.43892Q104.18181 140.43892 103.82243 140.28267Q103.47868 140.1108 103.24431 139.81392Q103.02556 139.51704 102.91618 139.09517Q102.82243 138.6733 102.82243 138.12642Q102.82243 137.62642 102.93181 137.20454Q103.04118 136.76704 103.27556 136.47017Q103.50993 136.15767 103.86931 135.9858Q104.24431 135.7983 104.72868 135.7983Q105.27556 135.7983 105.63493 135.9858Q106.00993 136.1733 106.22868 136.4858Q106.44743 136.7983 106.52556 137.22017Q106.61931 137.62642 106.61931 138.09517ZM105.66618 138.12642Q105.66618 137.75142 105.60368 137.45454Q105.55681 137.15767 105.44743 136.95454Q105.33806 136.75142 105.15056 136.65767Q104.96306 136.5483 104.71306 136.5483Q104.46306 136.5483 104.29118 136.65767Q104.11931 136.75142 103.99431 136.93892Q103.88493 137.12642 103.82243 137.4233Q103.77556 137.70454 103.77556 138.07954Q103.77556 138.5483 103.83806 138.8608Q103.91618 139.1733 104.02556 139.3608Q104.15056 139.53267 104.32243 139.6108Q104.50993 139.6733 104.74431 139.6733Q105.00993 139.6733 105.18181 139.57954Q105.36931 139.47017 105.46306 139.26704Q105.57243 139.06392 105.61931 138.78267Q105.66618 138.50142 105.66618 138.12642ZM99.46306 140.39204Q99.43181 140.43892 99.38493 140.47017Q99.33806 140.50142 99.25993 140.51704Q99.19743 140.5483 99.10368 140.56392Q99.00993 140.57954 98.86931 140.57954Q98.71306 140.57954 98.61931 140.5483Q98.54118 140.51704 98.49431 140.47017Q98.46306 140.43892 98.46306 140.3608Q98.47868 140.2983 98.54118 140.22017L104.68181 131.40767Q104.72868 131.3608 104.77556 131.32954Q104.82243 131.28267 104.88493 131.26704Q104.96306 131.2358 105.05681 131.2358Q105.15056 131.22017 105.29118 131.22017Q105.43181 131.22017 105.52556 131.25142Q105.61931 131.26704 105.65056 131.31392Q105.69743 131.3608 105.68181 131.43892Q105.68181 131.50142 105.61931 131.57954L99.46306 140.39204Z" fill-rule="nonzero"/><path fill="#4472c4" d="M266.2 53.0C266.2 56.31371 263.5137 59.0 260.2 59.0C256.8863 59.0 254.2 56.31371 254.2 53.0C254.2 49.68629 256.8863 47.0 260.2 47.0C263.5137 47.0 266.2 49.68629 266.2 53.0Z" fill-rule="nonzero"/><path fill="#1a1a1a" d="M278.7469 53.203125Q278.7469 53.265625 278.7469 53.328125Q278.7469 53.375 278.73126 53.421875Q278.71564 53.453125 278.7 53.484375Q278.6844 53.515625 278.6375 53.5625Q278.60626 53.59375 278.46564 53.6875Q278.325 53.78125 278.10626 53.875Q277.90314 53.953125 277.6219 54.015625Q277.35626 54.078125 277.04376 54.078125Q276.48126 54.078125 276.02814 53.890625Q275.59064 53.703125 275.27814 53.34375Q274.96564 52.984375 274.79376 52.453125Q274.6219 51.921875 274.6219 51.234375Q274.6219 50.53125 274.8094 49.984375Q274.9969 49.421875 275.325 49.03125Q275.65314 48.640625 276.10626 48.453125Q276.575 48.25 277.1219 48.25Q277.3719 48.25 277.60626 48.296875Q277.84064 48.328125 278.02814 48.40625Q278.23126 48.46875 278.3875 48.5625Q278.54376 48.65625 278.59064 48.71875Q278.65314 48.78125 278.66876 48.8125Q278.7 48.84375 278.7 48.890625Q278.71564 48.921875 278.71564 48.984375Q278.73126 49.03125 278.73126 49.125Q278.73126 49.203125 278.71564 49.265625Q278.71564 49.328125 278.7 49.375Q278.6844 49.40625 278.65314 49.4375Q278.6375 49.453125 278.59064 49.453125Q278.52814 49.453125 278.41876 49.375Q278.3094 49.28125 278.1375 49.1875Q277.96564 49.078125 277.71564 49.0Q277.46564 48.90625 277.1219 48.90625Q276.7469 48.90625 276.4344 49.0625Q276.1219 49.203125 275.90314 49.5Q275.6844 49.796875 275.5594 50.21875Q275.45 50.640625 275.45 51.1875Q275.45 51.734375 275.5594 52.15625Q275.6844 52.5625 275.8875 52.84375Q276.10626 53.109375 276.41876 53.265625Q276.7469 53.40625 277.1375 53.40625Q277.48126 53.40625 277.73126 53.328125Q277.98126 53.234375 278.15314 53.140625Q278.34064 53.03125 278.45 52.953125Q278.575 52.859375 278.6375 52.859375Q278.66876 52.859375 278.6844 52.875Q278.71564 52.890625 278.73126 52.9375Q278.7469 52.96875 278.7469 53.03125Q278.7469 53.09375 278.7469 53.203125ZM283.54376 51.875Q283.54376 52.359375 283.41876 52.765625Q283.29376 53.171875 283.04376 53.46875Q282.79376 53.75 282.40314 53.921875Q282.02814 54.078125 281.52814 54.078125Q281.04376 54.078125 280.66876 53.9375Q280.3094 53.796875 280.075 53.515625Q279.84064 53.234375 279.71564 52.84375Q279.59064 52.453125 279.59064 51.953125Q279.59064 51.46875 279.71564 51.0625Q279.84064 50.65625 280.09064 50.359375Q280.35626 50.0625 280.73126 49.90625Q281.10626 49.734375 281.60626 49.734375Q282.10626 49.734375 282.46564 49.890625Q282.825 50.03125 283.0594 50.3125Q283.3094 50.578125 283.41876 50.984375Q283.54376 51.375 283.54376 51.875ZM282.79376 51.921875Q282.79376 51.59375 282.73126 51.3125Q282.66876 51.03125 282.52814 50.8125Q282.3875 50.59375 282.15314 50.46875Q281.9344 50.34375 281.575 50.34375Q281.2625 50.34375 281.02814 50.46875Q280.79376 50.578125 280.6375 50.78125Q280.4969 50.984375 280.41876 51.28125Q280.35626 51.5625 280.35626 51.90625Q280.35626 52.21875 280.41876 52.515625Q280.48126 52.796875 280.60626 53.015625Q280.7469 53.21875 280.98126 53.34375Q281.21564 53.46875 281.5594 53.46875Q281.8875 53.46875 282.10626 53.359375Q282.34064 53.25 282.4969 53.046875Q282.65314 52.828125 282.71564 52.546875Q282.79376 52.265625 282.79376 51.921875ZM285.59064 53.890625Q285.59064 53.921875 285.575 53.953125Q285.5594 53.96875 285.5125 54.0Q285.48126 54.015625 285.40314 54.015625Q285.34064 54.03125 285.23126 54.03125Q285.1219 54.03125 285.04376 54.015625Q284.98126 54.015625 284.9344 54.0Q284.90314 53.96875 284.8875 53.953125Q284.8719 53.921875 284.8719 53.890625L284.8719 49.9375Q284.8719 49.90625 284.8875 49.875Q284.90314 49.84375 284.9344 49.828125Q284.98126 49.8125 285.04376 49.8125Q285.1219 49.796875 285.23126 49.796875Q285.34064 49.796875 285.40314 49.8125Q285.48126 49.8125 285.5125 49.828125Q285.5594 49.84375 285.575 49.875Q285.59064 49.90625 285.59064 49.9375L285.59064 53.890625ZM285.6844 48.59375Q285.6844 48.859375 285.575 48.953125Q285.48126 49.03125 285.23126 49.03125Q284.98126 49.03125 284.8719 48.953125Q284.77814 48.859375 284.77814 48.609375Q284.77814 48.359375 284.8719 48.265625Q284.98126 48.171875 285.23126 48.171875Q285.4969 48.171875 285.59064 48.265625Q285.6844 48.34375 285.6844 48.59375ZM290.27814 53.890625Q290.27814 53.921875 290.2625 53.953125Q290.2469 53.96875 290.2 54.0Q290.16876 54.015625 290.09064 54.015625Q290.02814 54.03125 289.91876 54.03125Q289.8094 54.03125 289.73126 54.015625Q289.66876 54.015625 289.6219 54.0Q289.59064 53.96875 289.575 53.953125Q289.5594 53.921875 289.5594 53.890625L289.5594 51.578125Q289.5594 51.234375 289.4969 51.03125Q289.45 50.828125 289.34064 50.6875Q289.2469 50.53125 289.075 50.453125Q288.91876 50.359375 288.71564 50.359375Q288.4344 50.359375 288.16876 50.5625Q287.90314 50.75 287.59064 51.125L287.59064 53.890625Q287.59064 53.921875 287.575 53.953125Q287.5594 53.96875 287.5125 54.0Q287.48126 54.015625 287.40314 54.015625Q287.34064 54.03125 287.23126 54.03125Q287.1219 54.03125 287.04376 54.015625Q286.98126 54.015625 286.9344 54.0Q286.90314 53.96875 286.8875 53.953125Q286.8719 53.921875 286.8719 53.890625L286.8719 49.9375Q286.8719 49.90625 286.8875 49.875Q286.90314 49.84375 286.9344 49.828125Q286.98126 49.8125 287.04376 49.8125Q287.10626 49.796875 287.2 49.796875Q287.29376 49.796875 287.35626 49.8125Q287.41876 49.8125 287.45 49.828125Q287.4969 49.84375 287.5125 49.875Q287.52814 49.90625 287.52814 49.9375L287.52814 50.453125Q287.85626 50.078125 288.1844 49.90625Q288.52814 49.734375 288.85626 49.734375Q289.2625 49.734375 289.52814 49.875Q289.79376 50.0 289.96564 50.234375Q290.1375 50.453125 290.2 50.765625Q290.27814 51.0625 290.27814 51.484375L290.27814 53.890625ZM294.71564 53.28125Q294.71564 53.359375 294.7 53.421875Q294.7 53.46875 294.6844 53.515625Q294.6844 53.546875 294.66876 53.578125Q294.65314 53.609375 294.59064 53.671875Q294.54376 53.71875 294.40314 53.796875Q294.27814 53.875 294.10626 53.9375Q293.95 54.0 293.7469 54.03125Q293.5594 54.078125 293.35626 54.078125Q292.9344 54.078125 292.60626 53.9375Q292.27814 53.796875 292.04376 53.53125Q291.825 53.265625 291.7 52.875Q291.59064 52.46875 291.59064 51.953125Q291.59064 51.375 291.73126 50.953125Q291.8875 50.53125 292.1219 50.265625Q292.3719 50.0 292.7 49.875Q293.04376 49.734375 293.4344 49.734375Q293.6375 49.734375 293.8094 49.78125Q293.98126 49.8125 294.1219 49.875Q294.27814 49.921875 294.3875 50.0Q294.5125 50.078125 294.5594 50.140625Q294.6219 50.1875 294.6375 50.21875Q294.66876 50.25 294.66876 50.296875Q294.6844 50.328125 294.6844 50.390625Q294.7 50.4375 294.7 50.515625Q294.7 50.6875 294.65314 50.75Q294.6219 50.8125 294.5594 50.8125Q294.4969 50.8125 294.40314 50.75Q294.325 50.671875 294.1844 50.59375Q294.0594 50.5 293.8719 50.4375Q293.6844 50.359375 293.4344 50.359375Q292.90314 50.359375 292.6219 50.765625Q292.35626 51.15625 292.35626 51.921875Q292.35626 52.296875 292.41876 52.59375Q292.4969 52.875 292.6375 53.078125Q292.77814 53.265625 292.98126 53.359375Q293.1844 53.453125 293.45 53.453125Q293.7 53.453125 293.8875 53.375Q294.075 53.296875 294.21564 53.203125Q294.35626 53.109375 294.45 53.03125Q294.54376 52.953125 294.59064 52.953125Q294.6219 52.953125 294.6375 52.96875Q294.66876 52.984375 294.6844 53.03125Q294.7 53.078125 294.7 53.140625Q294.71564 53.203125 294.71564 53.28125ZM296.59064 53.890625Q296.59064 53.921875 296.575 53.953125Q296.5594 53.96875 296.5125 54.0Q296.48126 54.015625 296.40314 54.015625Q296.34064 54.03125 296.23126 54.03125Q296.1219 54.03125 296.04376 54.015625Q295.98126 54.015625 295.9344 54.0Q295.90314 53.96875 295.8875 53.953125Q295.8719 53.921875 295.8719 53.890625L295.8719 49.9375Q295.8719 49.90625 295.8875 49.875Q295.90314 49.84375 295.9344 49.828125Q295.98126 49.8125 296.04376 49.8125Q296.1219 49.796875 296.23126 49.796875Q296.34064 49.796875 296.40314 49.8125Q296.48126 49.8125 296.5125 49.828125Q296.5594 49.84375 296.575 49.875Q296.59064 49.90625 296.59064 49.9375L296.59064 53.890625ZM296.6844 48.59375Q296.6844 48.859375 296.575 48.953125Q296.48126 49.03125 296.23126 49.03125Q295.98126 49.03125 295.8719 48.953125Q295.77814 48.859375 295.77814 48.609375Q295.77814 48.359375 295.8719 48.265625Q295.98126 48.171875 296.23126 48.171875Q296.4969 48.171875 296.59064 48.265625Q296.6844 48.34375 296.6844 48.59375ZM301.2625 53.890625Q301.2625 53.921875 301.2469 53.953125Q301.23126 53.984375 301.1844 54.0Q301.15314 54.015625 301.09064 54.015625Q301.02814 54.03125 300.95 54.03125Q300.85626 54.03125 300.79376 54.015625Q300.73126 54.015625 300.6844 54.0Q300.65314 53.984375 300.6375 53.953125Q300.6219 53.921875 300.6219 53.890625L300.6219 53.359375Q300.3094 53.703125 299.96564 53.890625Q299.6375 54.078125 299.23126 54.078125Q298.79376 54.078125 298.48126 53.921875Q298.1844 53.75 297.98126 53.46875Q297.79376 53.171875 297.7 52.78125Q297.6219 52.390625 297.6219 51.953125Q297.6219 51.453125 297.73126 51.046875Q297.84064 50.625 298.0594 50.34375Q298.27814 50.046875 298.59064 49.890625Q298.90314 49.734375 299.325 49.734375Q299.66876 49.734375 299.95 49.890625Q300.2469 50.046875 300.52814 50.328125L300.52814 48.03125Q300.52814 48.0 300.54376 47.984375Q300.5594 47.953125 300.60626 47.9375Q300.65314 47.921875 300.71564 47.90625Q300.79376 47.890625 300.8875 47.890625Q300.9969 47.890625 301.0594 47.90625Q301.1375 47.921875 301.16876 47.9375Q301.21564 47.953125 301.23126 47.984375Q301.2625 48.0 301.2625 48.03125L301.2625 53.890625ZM300.52814 51.109375Q300.23126 50.75 299.95 50.5625Q299.6844 50.359375 299.3875 50.359375Q299.10626 50.359375 298.91876 50.5Q298.73126 50.625 298.60626 50.84375Q298.48126 51.0625 298.41876 51.328125Q298.3719 51.59375 298.3719 51.875Q298.3719 52.1875 298.41876 52.46875Q298.46564 52.75 298.575 52.984375Q298.7 53.203125 298.8875 53.34375Q299.075 53.46875 299.35626 53.46875Q299.4969 53.46875 299.6375 53.4375Q299.77814 53.390625 299.91876 53.296875Q300.0594 53.203125 300.2 53.0625Q300.35626 52.90625 300.52814 52.6875L300.52814 51.109375ZM306.2469 51.734375Q306.2469 51.90625 306.15314 51.984375Q306.075 52.0625 305.96564 52.0625L303.3719 52.0625Q303.3719 52.390625 303.4344 52.65625Q303.5125 52.921875 303.65314 53.109375Q303.8094 53.296875 304.0594 53.40625Q304.3094 53.5 304.66876 53.5Q304.95 53.5 305.16876 53.453125Q305.3875 53.40625 305.54376 53.34375Q305.7 53.28125 305.79376 53.25Q305.90314 53.203125 305.96564 53.203125Q305.9969 53.203125 306.0125 53.21875Q306.04376 53.21875 306.0594 53.25Q306.075 53.28125 306.075 53.34375Q306.075 53.390625 306.075 53.484375Q306.075 53.53125 306.075 53.578125Q306.075 53.625 306.0594 53.65625Q306.0594 53.6875 306.04376 53.71875Q306.02814 53.734375 305.9969 53.765625Q305.98126 53.78125 305.85626 53.84375Q305.7469 53.890625 305.5594 53.953125Q305.3719 54.0 305.1219 54.03125Q304.8719 54.078125 304.59064 54.078125Q304.10626 54.078125 303.73126 53.953125Q303.3719 53.8125 303.10626 53.546875Q302.85626 53.28125 302.73126 52.875Q302.60626 52.46875 302.60626 51.9375Q302.60626 51.421875 302.73126 51.015625Q302.8719 50.609375 303.1219 50.328125Q303.3719 50.046875 303.71564 49.890625Q304.075 49.734375 304.5125 49.734375Q304.96564 49.734375 305.29376 49.890625Q305.6219 50.03125 305.825 50.296875Q306.04376 50.546875 306.1375 50.890625Q306.2469 51.21875 306.2469 51.609375L306.2469 51.734375ZM305.5125 51.53125Q305.52814 50.953125 305.2625 50.625Q304.9969 50.296875 304.48126 50.296875Q304.21564 50.296875 304.0125 50.40625Q303.8094 50.5 303.66876 50.671875Q303.52814 50.84375 303.45 51.0625Q303.3875 51.28125 303.3719 51.53125L305.5125 51.53125Z" fill-rule="nonzero"/><path fill="#ed7d31" d="M266.2 75.0C266.2 78.313705 263.5137 81.0 260.2 81.0C256.8863 81.0 254.2 78.313705 254.2 75.0C254.2 71.686295 256.8863 69.0 260.2 69.0C263.5137 69.0 266.2 71.686295 266.2 75.0Z" fill-rule="nonzero"/><path fill="#1a1a1a" d="M279.2469 75.6875Q279.2469 75.78125 279.21564 75.84375Q279.2 75.90625 279.15314 75.953125Q279.10626 75.984375 279.04376 76.0Q278.9969 76.015625 278.9344 76.015625L278.6844 76.015625Q278.575 76.015625 278.48126 76.0Q278.40314 75.96875 278.325 75.90625Q278.2469 75.84375 278.16876 75.734375Q278.09064 75.625 278.0125 75.453125L276.21564 72.21875Q276.075 71.96875 275.9344 71.6875Q275.79376 71.40625 275.66876 71.15625L275.65314 71.15625Q275.66876 71.46875 275.66876 71.796875Q275.66876 72.125 275.66876 72.453125L275.66876 75.890625Q275.66876 75.921875 275.65314 75.953125Q275.6375 75.96875 275.59064 75.984375Q275.5594 76.0 275.48126 76.015625Q275.41876 76.03125 275.3094 76.03125Q275.2 76.03125 275.1375 76.015625Q275.075 76.0 275.02814 75.984375Q274.9969 75.96875 274.96564 75.953125Q274.95 75.921875 274.95 75.890625L274.95 70.640625Q274.95 70.46875 275.04376 70.390625Q275.15314 70.3125 275.2625 70.3125L275.6219 70.3125Q275.7469 70.3125 275.825 70.34375Q275.91876 70.359375 275.98126 70.40625Q276.0594 70.453125 276.1219 70.546875Q276.1844 70.640625 276.2625 70.78125L277.6375 73.265625Q277.7625 73.5 277.8875 73.71875Q278.0125 73.9375 278.1219 74.15625Q278.23126 74.359375 278.325 74.5625Q278.4344 74.765625 278.54376 74.96875L278.54376 74.96875Q278.54376 74.625 278.54376 74.25Q278.54376 73.875 278.54376 73.53125L278.54376 70.4375Q278.54376 70.40625 278.5594 70.390625Q278.575 70.359375 278.60626 70.34375Q278.65314 70.3125 278.71564 70.3125Q278.79376 70.296875 278.90314 70.296875Q278.9969 70.296875 279.0594 70.3125Q279.1375 70.3125 279.16876 70.34375Q279.21564 70.359375 279.23126 70.390625Q279.2469 70.40625 279.2469 70.4375L279.2469 75.6875ZM284.54376 73.875Q284.54376 74.359375 284.41876 74.765625Q284.29376 75.171875 284.04376 75.46875Q283.79376 75.75 283.40314 75.921875Q283.02814 76.078125 282.52814 76.078125Q282.04376 76.078125 281.66876 75.9375Q281.3094 75.796875 281.075 75.515625Q280.84064 75.234375 280.71564 74.84375Q280.59064 74.453125 280.59064 73.953125Q280.59064 73.46875 280.71564 73.0625Q280.84064 72.65625 281.09064 72.359375Q281.35626 72.0625 281.73126 71.90625Q282.10626 71.734375 282.60626 71.734375Q283.10626 71.734375 283.46564 71.890625Q283.825 72.03125 284.0594 72.3125Q284.3094 72.578125 284.41876 72.984375Q284.54376 73.375 284.54376 73.875ZM283.79376 73.921875Q283.79376 73.59375 283.73126 73.3125Q283.66876 73.03125 283.52814 72.8125Q283.3875 72.59375 283.15314 72.46875Q282.9344 72.34375 282.575 72.34375Q282.2625 72.34375 282.02814 72.46875Q281.79376 72.578125 281.6375 72.78125Q281.4969 72.984375 281.41876 73.28125Q281.35626 73.5625 281.35626 73.90625Q281.35626 74.21875 281.41876 74.515625Q281.48126 74.796875 281.60626 75.015625Q281.7469 75.21875 281.98126 75.34375Q282.21564 75.46875 282.5594 75.46875Q282.8875 75.46875 283.10626 75.359375Q283.34064 75.25 283.4969 75.046875Q283.65314 74.828125 283.71564 74.546875Q283.79376 74.265625 283.79376 73.921875ZM291.7469 75.203125Q291.7469 75.265625 291.7469 75.328125Q291.7469 75.375 291.73126 75.421875Q291.71564 75.453125 291.7 75.484375Q291.6844 75.515625 291.6375 75.5625Q291.60626 75.59375 291.46564 75.6875Q291.325 75.78125 291.10626 75.875Q290.90314 75.953125 290.6219 76.015625Q290.35626 76.078125 290.04376 76.078125Q289.48126 76.078125 289.02814 75.890625Q288.59064 75.703125 288.27814 75.34375Q287.96564 74.984375 287.79376 74.453125Q287.6219 73.921875 287.6219 73.234375Q287.6219 72.53125 287.8094 71.984375Q287.9969 71.421875 288.325 71.03125Q288.65314 70.640625 289.10626 70.453125Q289.575 70.25 290.1219 70.25Q290.3719 70.25 290.60626 70.296875Q290.84064 70.328125 291.02814 70.40625Q291.23126 70.46875 291.3875 70.5625Q291.54376 70.65625 291.59064 70.71875Q291.65314 70.78125 291.66876 70.8125Q291.7 70.84375 291.7 70.890625Q291.71564 70.921875 291.71564 70.984375Q291.73126 71.03125 291.73126 71.125Q291.73126 71.203125 291.71564 71.265625Q291.71564 71.328125 291.7 71.375Q291.6844 71.40625 291.65314 71.4375Q291.6375 71.453125 291.59064 71.453125Q291.52814 71.453125 291.41876 71.375Q291.3094 71.28125 291.1375 71.1875Q290.96564 71.078125 290.71564 71.0Q290.46564 70.90625 290.1219 70.90625Q289.7469 70.90625 289.4344 71.0625Q289.1219 71.203125 288.90314 71.5Q288.6844 71.796875 288.5594 72.21875Q288.45 72.640625 288.45 73.1875Q288.45 73.734375 288.5594 74.15625Q288.6844 74.5625 288.8875 74.84375Q289.10626 75.109375 289.41876 75.265625Q289.7469 75.40625 290.1375 75.40625Q290.48126 75.40625 290.73126 75.328125Q290.98126 75.234375 291.15314 75.140625Q291.34064 75.03125 291.45 74.953125Q291.575 74.859375 291.6375 74.859375Q291.66876 74.859375 291.6844 74.875Q291.71564 74.890625 291.73126 74.9375Q291.7469 74.96875 291.7469 75.03125Q291.7469 75.09375 291.7469 75.203125ZM296.54376 73.875Q296.54376 74.359375 296.41876 74.765625Q296.29376 75.171875 296.04376 75.46875Q295.79376 75.75 295.40314 75.921875Q295.02814 76.078125 294.52814 76.078125Q294.04376 76.078125 293.66876 75.9375Q293.3094 75.796875 293.075 75.515625Q292.84064 75.234375 292.71564 74.84375Q292.59064 74.453125 292.59064 73.953125Q292.59064 73.46875 292.71564 73.0625Q292.84064 72.65625 293.09064 72.359375Q293.35626 72.0625 293.73126 71.90625Q294.10626 71.734375 294.60626 71.734375Q295.10626 71.734375 295.46564 71.890625Q295.825 72.03125 296.0594 72.3125Q296.3094 72.578125 296.41876 72.984375Q296.54376 73.375 296.54376 73.875ZM295.79376 73.921875Q295.79376 73.59375 295.73126 73.3125Q295.66876 73.03125 295.52814 72.8125Q295.3875 72.59375 295.15314 72.46875Q294.9344 72.34375 294.575 72.34375Q294.2625 72.34375 294.02814 72.46875Q293.79376 72.578125 293.6375 72.78125Q293.4969 72.984375 293.41876 73.28125Q293.35626 73.5625 293.35626 73.90625Q293.35626 74.21875 293.41876 74.515625Q293.48126 74.796875 293.60626 75.015625Q293.7469 75.21875 293.98126 75.34375Q294.21564 75.46875 294.5594 75.46875Q294.8875 75.46875 295.10626 75.359375Q295.34064 75.25 295.4969 75.046875Q295.65314 74.828125 295.71564 74.546875Q295.79376 74.265625 295.79376 73.921875ZM298.59064 75.890625Q298.59064 75.921875 298.575 75.953125Q298.5594 75.96875 298.5125 76.0Q298.48126 76.015625 298.40314 76.015625Q298.34064 76.03125 298.23126 76.03125Q298.1219 76.03125 298.04376 76.015625Q297.98126 76.015625 297.9344 76.0Q297.90314 75.96875 297.8875 75.953125Q297.8719 75.921875 297.8719 75.890625L297.8719 71.9375Q297.8719 71.90625 297.8875 71.875Q297.90314 71.84375 297.9344 71.828125Q297.98126 71.8125 298.04376 71.8125Q298.1219 71.796875 298.23126 71.796875Q298.34064 71.796875 298.40314 71.8125Q298.48126 71.8125 298.5125 71.828125Q298.5594 71.84375 298.575 71.875Q298.59064 71.90625 298.59064 71.9375L298.59064 75.890625ZM298.6844 70.59375Q298.6844 70.859375 298.575 70.953125Q298.48126 71.03125 298.23126 71.03125Q297.98126 71.03125 297.8719 70.953125Q297.77814 70.859375 297.77814 70.609375Q297.77814 70.359375 297.8719 70.265625Q297.98126 70.171875 298.23126 70.171875Q298.4969 70.171875 298.59064 70.265625Q298.6844 70.34375 298.6844 70.59375ZM303.27814 75.890625Q303.27814 75.921875 303.2625 75.953125Q303.2469 75.96875 303.2 76.0Q303.16876 76.015625 303.09064 76.015625Q303.02814 76.03125 302.91876 76.03125Q302.8094 76.03125 302.73126 76.015625Q302.66876 76.015625 302.6219 76.0Q302.59064 75.96875 302.575 75.953125Q302.5594 75.921875 302.5594 75.890625L302.5594 73.578125Q302.5594 73.234375 302.4969 73.03125Q302.45 72.828125 302.34064 72.6875Q302.2469 72.53125 302.075 72.453125Q301.91876 72.359375 301.71564 72.359375Q301.4344 72.359375 301.16876 72.5625Q300.90314 72.75 300.59064 73.125L300.59064 75.890625Q300.59064 75.921875 300.575 75.953125Q300.5594 75.96875 300.5125 76.0Q300.48126 76.015625 300.40314 76.015625Q300.34064 76.03125 300.23126 76.03125Q300.1219 76.03125 300.04376 76.015625Q299.98126 76.015625 299.9344 76.0Q299.90314 75.96875 299.8875 75.953125Q299.8719 75.921875 299.8719 75.890625L299.8719 71.9375Q299.8719 71.90625 299.8875 71.875Q299.90314 71.84375 299.9344 71.828125Q299.98126 71.8125 300.04376 71.8125Q300.10626 71.796875 300.2 71.796875Q300.29376 71.796875 300.35626 71.8125Q300.41876 71.8125 300.45 71.828125Q300.4969 71.84375 300.5125 71.875Q300.52814 71.90625 300.52814 71.9375L300.52814 72.453125Q300.85626 72.078125 301.1844 71.90625Q301.52814 71.734375 301.85626 71.734375Q302.2625 71.734375 302.52814 71.875Q302.79376 72.0 302.96564 72.234375Q303.1375 72.453125 303.2 72.765625Q303.27814 73.0625 303.27814 73.484375L303.27814 75.890625ZM307.71564 75.28125Q307.71564 75.359375 307.7 75.421875Q307.7 75.46875 307.6844 75.515625Q307.6844 75.546875 307.66876 75.578125Q307.65314 75.609375 307.59064 75.671875Q307.54376 75.71875 307.40314 75.796875Q307.27814 75.875 307.10626 75.9375Q306.95 76.0 306.7469 76.03125Q306.5594 76.078125 306.35626 76.078125Q305.9344 76.078125 305.60626 75.9375Q305.27814 75.796875 305.04376 75.53125Q304.825 75.265625 304.7 74.875Q304.59064 74.46875 304.59064 73.953125Q304.59064 73.375 304.73126 72.953125Q304.8875 72.53125 305.1219 72.265625Q305.3719 72.0 305.7 71.875Q306.04376 71.734375 306.4344 71.734375Q306.6375 71.734375 306.8094 71.78125Q306.98126 71.8125 307.1219 71.875Q307.27814 71.921875 307.3875 72.0Q307.5125 72.078125 307.5594 72.140625Q307.6219 72.1875 307.6375 72.21875Q307.66876 72.25 307.66876 72.296875Q307.6844 72.328125 307.6844 72.390625Q307.7 72.4375 307.7 72.515625Q307.7 72.6875 307.65314 72.75Q307.6219 72.8125 307.5594 72.8125Q307.4969 72.8125 307.40314 72.75Q307.325 72.671875 307.1844 72.59375Q307.0594 72.5 306.8719 72.4375Q306.6844 72.359375 306.4344 72.359375Q305.90314 72.359375 305.6219 72.765625Q305.35626 73.15625 305.35626 73.921875Q305.35626 74.296875 305.41876 74.59375Q305.4969 74.875 305.6375 75.078125Q305.77814 75.265625 305.98126 75.359375Q306.1844 75.453125 306.45 75.453125Q306.7 75.453125 306.8875 75.375Q307.075 75.296875 307.21564 75.203125Q307.35626 75.109375 307.45 75.03125Q307.54376 74.953125 307.59064 74.953125Q307.6219 74.953125 307.6375 74.96875Q307.66876 74.984375 307.6844 75.03125Q307.7 75.078125 307.7 75.140625Q307.71564 75.203125 307.71564 75.28125ZM309.59064 75.890625Q309.59064 75.921875 309.575 75.953125Q309.5594 75.96875 309.5125 76.0Q309.48126 76.015625 309.40314 76.015625Q309.34064 76.03125 309.23126 76.03125Q309.1219 76.03125 309.04376 76.015625Q308.98126 76.015625 308.9344 76.0Q308.90314 75.96875 308.8875 75.953125Q308.8719 75.921875 308.8719 75.890625L308.8719 71.9375Q308.8719 71.90625 308.8875 71.875Q308.90314 71.84375 308.9344 71.828125Q308.98126 71.8125 309.04376 71.8125Q309.1219 71.796875 309.23126 71.796875Q309.34064 71.796875 309.40314 71.8125Q309.48126 71.8125 309.5125 71.828125Q309.5594 71.84375 309.575 71.875Q309.59064 71.90625 309.59064 71.9375L309.59064 75.890625ZM309.6844 70.59375Q309.6844 70.859375 309.575 70.953125Q309.48126 71.03125 309.23126 71.03125Q308.98126 71.03125 308.8719 70.953125Q308.77814 70.859375 308.77814 70.609375Q308.77814 70.359375 308.8719 70.265625Q308.98126 70.171875 309.23126 70.171875Q309.4969 70.171875 309.59064 70.265625Q309.6844 70.34375 309.6844 70.59375ZM314.2625 75.890625Q314.2625 75.921875 314.2469 75.953125Q314.23126 75.984375 314.1844 76.0Q314.15314 76.015625 314.09064 76.015625Q314.02814 76.03125 313.95 76.03125Q313.85626 76.03125 313.79376 76.015625Q313.73126 76.015625 313.6844 76.0Q313.65314 75.984375 313.6375 75.953125Q313.6219 75.921875 313.6219 75.890625L313.6219 75.359375Q313.3094 75.703125 312.96564 75.890625Q312.6375 76.078125 312.23126 76.078125Q311.79376 76.078125 311.48126 75.921875Q311.1844 75.75 310.98126 75.46875Q310.79376 75.171875 310.7 74.78125Q310.6219 74.390625 310.6219 73.953125Q310.6219 73.453125 310.73126 73.046875Q310.84064 72.625 311.0594 72.34375Q311.27814 72.046875 311.59064 71.890625Q311.90314 71.734375 312.325 71.734375Q312.66876 71.734375 312.95 71.890625Q313.2469 72.046875 313.52814 72.328125L313.52814 70.03125Q313.52814 70.0 313.54376 69.984375Q313.5594 69.953125 313.60626 69.9375Q313.65314 69.921875 313.71564 69.90625Q313.79376 69.890625 313.8875 69.890625Q313.9969 69.890625 314.0594 69.90625Q314.1375 69.921875 314.16876 69.9375Q314.21564 69.953125 314.23126 69.984375Q314.2625 70.0 314.2625 70.03125L314.2625 75.890625ZM313.52814 73.109375Q313.23126 72.75 312.95 72.5625Q312.6844 72.359375 312.3875 72.359375Q312.10626 72.359375 311.91876 72.5Q311.73126 72.625 311.60626 72.84375Q311.48126 73.0625 311.41876 73.328125Q311.3719 73.59375 311.3719 73.875Q311.3719 74.1875 311.41876 74.46875Q311.46564 74.75 311.575 74.984375Q311.7 75.203125 311.8875 75.34375Q312.075 75.46875 312.35626 75.46875Q312.4969 75.46875 312.6375 75.4375Q312.77814 75.390625 312.91876 75.296875Q313.0594 75.203125 313.2 75.0625Q313.35626 74.90625 313.52814 74.6875L313.52814 73.109375ZM319.2469 73.734375Q319.2469 73.90625 319.15314 73.984375Q319.075 74.0625 318.96564 74.0625L316.3719 74.0625Q316.3719 74.390625 316.4344 74.65625Q316.5125 74.921875 316.65314 75.109375Q316.8094 75.296875 317.0594 75.40625Q317.3094 75.5 317.66876 75.5Q317.95 75.5 318.16876 75.453125Q318.3875 75.40625 318.54376 75.34375Q318.7 75.28125 318.79376 75.25Q318.90314 75.203125 318.96564 75.203125Q318.9969 75.203125 319.0125 75.21875Q319.04376 75.21875 319.0594 75.25Q319.075 75.28125 319.075 75.34375Q319.075 75.390625 319.075 75.484375Q319.075 75.53125 319.075 75.578125Q319.075 75.625 319.0594 75.65625Q319.0594 75.6875 319.04376 75.71875Q319.02814 75.734375 318.9969 75.765625Q318.98126 75.78125 318.85626 75.84375Q318.7469 75.890625 318.5594 75.953125Q318.3719 76.0 318.1219 76.03125Q317.8719 76.078125 317.59064 76.078125Q317.10626 76.078125 316.73126 75.953125Q316.3719 75.8125 316.10626 75.546875Q315.85626 75.28125 315.73126 74.875Q315.60626 74.46875 315.60626 73.9375Q315.60626 73.421875 315.73126 73.015625Q315.8719 72.609375 316.1219 72.328125Q316.3719 72.046875 316.71564 71.890625Q317.075 71.734375 317.5125 71.734375Q317.96564 71.734375 318.29376 71.890625Q318.6219 72.03125 318.825 72.296875Q319.04376 72.546875 319.1375 72.890625Q319.2469 73.21875 319.2469 73.609375L319.2469 73.734375ZM318.5125 73.53125Q318.52814 72.953125 318.2625 72.625Q317.9969 72.296875 317.48126 72.296875Q317.21564 72.296875 317.0125 72.40625Q316.8094 72.5 316.66876 72.671875Q316.52814 72.84375 316.45 73.0625Q316.3875 73.28125 316.3719 73.53125L318.5125 73.53125Z" fill-rule="nonzero"/><path fill="#757575" d="M70.609375 29.08125Q70.609375 29.3 70.59375 29.45625Q70.578125 29.596874 70.546875 29.721874Q70.53125 29.83125 70.484375 29.909374Q70.4375 29.9875 70.34375 30.096874Q70.25 30.190624 69.96875 30.346874Q69.6875 30.503124 69.28125 30.64375Q68.890625 30.784374 68.375 30.878124Q67.859375 30.9875 67.265625 30.9875Q66.09375 30.9875 65.15625 30.628124Q64.21875 30.26875 63.546875 29.55Q62.890625 28.83125 62.53125 27.76875Q62.1875 26.690624 62.1875 25.26875Q62.1875 23.815624 62.578125 22.690624Q62.96875 21.565624 63.65625 20.8Q64.359375 20.034374 65.328125 19.64375Q66.296875 19.2375 67.46875 19.2375Q67.9375 19.2375 68.375 19.315624Q68.828125 19.39375 69.1875 19.534374Q69.5625 19.659374 69.859375 19.83125Q70.171875 19.9875 70.28125 20.1125Q70.40625 20.221874 70.4375 20.3Q70.484375 20.378124 70.515625 20.503124Q70.546875 20.628124 70.5625 20.8Q70.578125 20.971874 70.578125 21.20625Q70.578125 21.471874 70.546875 21.659374Q70.53125 21.846874 70.484375 21.95625Q70.453125 22.065624 70.390625 22.128124Q70.328125 22.175 70.25 22.175Q70.109375 22.175 69.90625 22.01875Q69.703125 21.8625 69.375 21.675Q69.0625 21.4875 68.625 21.346874Q68.1875 21.190624 67.5625 21.190624Q66.890625 21.190624 66.359375 21.471874Q65.828125 21.7375 65.453125 22.253124Q65.078125 22.76875 64.875 23.503124Q64.6875 24.221874 64.6875 25.14375Q64.6875 26.14375 64.890625 26.878124Q65.109375 27.6125 65.484375 28.096874Q65.875 28.565624 66.40625 28.8Q66.953125 29.01875 67.625 29.01875Q68.234375 29.01875 68.6875 28.878124Q69.140625 28.7375 69.453125 28.565624Q69.78125 28.378124 69.984375 28.2375Q70.1875 28.096874 70.3125 28.096874Q70.390625 28.096874 70.4375 28.14375Q70.5 28.175 70.53125 28.284374Q70.578125 28.378124 70.59375 28.565624Q70.609375 28.753124 70.609375 29.08125ZM80.53125 26.503124Q80.53125 27.503124 80.265625 28.33125Q80.015625 29.159374 79.46875 29.753124Q78.9375 30.346874 78.125 30.675Q77.3125 31.003124 76.234375 31.003124Q75.1875 31.003124 74.40625 30.721874Q73.640625 30.425 73.125 29.878124Q72.625 29.315624 72.375 28.503124Q72.140625 27.690624 72.140625 26.659374Q72.140625 25.659374 72.40625 24.83125Q72.671875 24.003124 73.203125 23.409374Q73.734375 22.815624 74.53125 22.4875Q75.34375 22.159374 76.4375 22.159374Q77.484375 22.159374 78.25 22.45625Q79.03125 22.7375 79.53125 23.284374Q80.046875 23.83125 80.28125 24.64375Q80.53125 25.45625 80.53125 26.503124ZM78.265625 26.596874Q78.265625 26.003124 78.171875 25.51875Q78.078125 25.034374 77.859375 24.675Q77.640625 24.315624 77.265625 24.1125Q76.90625 23.909374 76.359375 23.909374Q75.859375 23.909374 75.484375 24.096874Q75.125 24.26875 74.875 24.6125Q74.640625 24.95625 74.515625 25.45625Q74.40625 25.940624 74.40625 26.565624Q74.40625 27.14375 74.5 27.628124Q74.609375 28.1125 74.8125 28.4875Q75.03125 28.846874 75.390625 29.05Q75.765625 29.2375 76.3125 29.2375Q76.8125 29.2375 77.1875 29.065624Q77.5625 28.878124 77.796875 28.534374Q78.03125 28.190624 78.140625 27.70625Q78.265625 27.20625 78.265625 26.596874ZM95.078125 30.503124Q95.078125 30.58125 95.015625 30.659374Q94.96875 30.721874 94.84375 30.76875Q94.734375 30.815624 94.515625 30.83125Q94.3125 30.846874 93.984375 30.846874Q93.640625 30.846874 93.421875 30.83125Q93.21875 30.815624 93.09375 30.76875Q92.96875 30.721874 92.921875 30.659374Q92.875 30.58125 92.875 30.503124L92.875 25.846874Q92.875 25.45625 92.796875 25.128124Q92.71875 24.8 92.5625 24.58125Q92.421875 24.346874 92.1875 24.221874Q91.953125 24.08125 91.625 24.08125Q91.234375 24.08125 90.828125 24.39375Q90.421875 24.70625 89.953125 25.284374L89.953125 30.503124Q89.953125 30.58125 89.890625 30.659374Q89.84375 30.721874 89.71875 30.76875Q89.59375 30.815624 89.375 30.83125Q89.171875 30.846874 88.84375 30.846874Q88.515625 30.846874 88.296875 30.83125Q88.09375 30.815624 87.96875 30.76875Q87.84375 30.721874 87.78125 30.659374Q87.734375 30.58125 87.734375 30.503124L87.734375 25.846874Q87.734375 25.45625 87.65625 25.128124Q87.59375 24.8 87.4375 24.58125Q87.296875 24.346874 87.046875 24.221874Q86.8125 24.08125 86.5 24.08125Q86.09375 24.08125 85.6875 24.39375Q85.28125 24.70625 84.828125 25.284374L84.828125 30.503124Q84.828125 30.58125 84.765625 30.659374Q84.71875 30.721874 84.59375 30.76875Q84.46875 30.815624 84.25 30.83125Q84.046875 30.846874 83.71875 30.846874Q83.390625 30.846874 83.171875 30.83125Q82.96875 30.815624 82.84375 30.76875Q82.71875 30.721874 82.65625 30.659374Q82.609375 30.58125 82.609375 30.503124L82.609375 22.659374Q82.609375 22.565624 82.65625 22.503124Q82.703125 22.440624 82.8125 22.39375Q82.921875 22.346874 83.09375 22.33125Q83.28125 22.315624 83.5625 22.315624Q83.84375 22.315624 84.015625 22.33125Q84.203125 22.346874 84.296875 22.39375Q84.40625 22.440624 84.453125 22.503124Q84.5 22.565624 84.5 22.659374L84.5 23.565624Q85.140625 22.8625 85.78125 22.51875Q86.4375 22.159374 87.140625 22.159374Q87.625 22.159374 88.015625 22.26875Q88.40625 22.3625 88.703125 22.55Q89.0 22.7375 89.21875 23.003124Q89.453125 23.26875 89.59375 23.596874Q89.953125 23.221874 90.28125 22.95625Q90.625 22.675 90.953125 22.503124Q91.28125 22.33125 91.609375 22.253124Q91.9375 22.159374 92.28125 22.159374Q93.0625 22.159374 93.59375 22.425Q94.140625 22.690624 94.46875 23.14375Q94.796875 23.596874 94.9375 24.20625Q95.078125 24.8 95.078125 25.4875L95.078125 30.503124ZM105.5 26.471874Q105.5 27.51875 105.265625 28.3625Q105.046875 29.190624 104.609375 29.784374Q104.1875 30.3625 103.546875 30.690624Q102.90625 31.003124 102.078125 31.003124Q101.734375 31.003124 101.453125 30.940624Q101.171875 30.878124 100.890625 30.7375Q100.625 30.596874 100.359375 30.39375Q100.109375 30.190624 99.828125 29.925L99.828125 33.6125Q99.828125 33.70625 99.765625 33.76875Q99.71875 33.846874 99.59375 33.89375Q99.46875 33.940624 99.25 33.95625Q99.046875 33.9875 98.71875 33.9875Q98.390625 33.9875 98.171875 33.95625Q97.96875 33.940624 97.84375 33.89375Q97.71875 33.846874 97.65625 33.76875Q97.609375 33.70625 97.609375 33.6125L97.609375 22.659374Q97.609375 22.565624 97.65625 22.503124Q97.703125 22.440624 97.8125 22.39375Q97.921875 22.346874 98.09375 22.33125Q98.28125 22.315624 98.546875 22.315624Q98.8125 22.315624 98.984375 22.33125Q99.171875 22.346874 99.28125 22.39375Q99.390625 22.440624 99.4375 22.503124Q99.484375 22.565624 99.484375 22.659374L99.484375 23.58125Q99.828125 23.2375 100.15625 22.971874Q100.484375 22.690624 100.828125 22.51875Q101.171875 22.33125 101.53125 22.253124Q101.890625 22.159374 102.3125 22.159374Q103.171875 22.159374 103.78125 22.503124Q104.390625 22.83125 104.765625 23.425Q105.15625 24.01875 105.328125 24.8Q105.5 25.58125 105.5 26.471874ZM103.203125 26.628124Q103.203125 26.128124 103.125 25.675Q103.046875 25.20625 102.859375 24.846874Q102.6875 24.4875 102.390625 24.26875Q102.09375 24.05 101.65625 24.05Q101.4375 24.05 101.21875 24.1125Q101.015625 24.175 100.78125 24.33125Q100.5625 24.4875 100.328125 24.721874Q100.09375 24.95625 99.828125 25.3L99.828125 27.89375Q100.28125 28.471874 100.703125 28.8Q101.125 29.128124 101.59375 29.128124Q102.015625 29.128124 102.3125 28.909374Q102.625 28.675 102.8125 28.33125Q103.015625 27.971874 103.109375 27.51875Q103.203125 27.065624 103.203125 26.628124ZM114.28125 30.534374Q114.28125 30.64375 114.1875 30.721874Q114.109375 30.784374 113.921875 30.815624Q113.734375 30.846874 113.359375 30.846874Q112.96875 30.846874 112.78125 30.815624Q112.609375 30.784374 112.53125 30.721874Q112.453125 30.64375 112.453125 30.534374L112.453125 29.909374Q111.96875 30.425 111.34375 30.721874Q110.734375 31.003124 109.984375 31.003124Q109.359375 31.003124 108.828125 30.83125Q108.3125 30.675 107.921875 30.3625Q107.546875 30.034374 107.328125 29.565624Q107.125 29.08125 107.125 28.45625Q107.125 27.76875 107.390625 27.26875Q107.65625 26.753124 108.1875 26.425Q108.71875 26.096874 109.515625 25.940624Q110.3125 25.784374 111.359375 25.784374L112.109375 25.784374L112.109375 25.3Q112.109375 24.940624 112.03125 24.659374Q111.96875 24.378124 111.796875 24.20625Q111.625 24.01875 111.328125 23.925Q111.046875 23.83125 110.625 23.83125Q110.078125 23.83125 109.640625 23.95625Q109.203125 24.08125 108.875 24.2375Q108.546875 24.378124 108.3125 24.503124Q108.09375 24.628124 107.953125 24.628124Q107.859375 24.628124 107.78125 24.565624Q107.703125 24.503124 107.65625 24.39375Q107.609375 24.284374 107.578125 24.1125Q107.5625 23.940624 107.5625 23.7375Q107.5625 23.471874 107.59375 23.315624Q107.640625 23.159374 107.765625 23.034374Q107.890625 22.89375 108.1875 22.753124Q108.5 22.596874 108.90625 22.471874Q109.328125 22.33125 109.8125 22.253124Q110.3125 22.159374 110.828125 22.159374Q111.75 22.159374 112.40625 22.346874Q113.0625 22.51875 113.484375 22.89375Q113.90625 23.26875 114.09375 23.8625Q114.28125 24.440624 114.28125 25.253124L114.28125 30.534374ZM112.109375 27.175L111.265625 27.175Q110.734375 27.175 110.359375 27.253124Q109.984375 27.33125 109.734375 27.4875Q109.5 27.64375 109.390625 27.878124Q109.28125 28.096874 109.28125 28.378124Q109.28125 28.878124 109.59375 29.159374Q109.90625 29.440624 110.46875 29.440624Q110.9375 29.440624 111.328125 29.20625Q111.71875 28.95625 112.109375 28.503124L112.109375 27.175ZM121.640625 23.39375Q121.640625 23.70625 121.625 23.909374Q121.609375 24.1125 121.5625 24.2375Q121.53125 24.346874 121.46875 24.39375Q121.421875 24.425 121.34375 24.425Q121.265625 24.425 121.171875 24.39375Q121.09375 24.3625 120.984375 24.33125Q120.875 24.3 120.734375 24.26875Q120.609375 24.2375 120.453125 24.2375Q120.265625 24.2375 120.078125 24.315624Q119.890625 24.378124 119.6875 24.55Q119.5 24.70625 119.28125 24.971874Q119.0625 25.221874 118.828125 25.6125L118.828125 30.503124Q118.828125 30.58125 118.765625 30.659374Q118.71875 30.721874 118.59375 30.76875Q118.46875 30.815624 118.25 30.83125Q118.046875 30.846874 117.71875 30.846874Q117.390625 30.846874 117.171875 30.83125Q116.96875 30.815624 116.84375 30.76875Q116.71875 30.721874 116.65625 30.659374Q116.609375 30.58125 116.609375 30.503124L116.609375 22.659374Q116.609375 22.565624 116.65625 22.503124Q116.703125 22.440624 116.8125 22.39375Q116.921875 22.346874 117.09375 22.33125Q117.28125 22.315624 117.5625 22.315624Q117.84375 22.315624 118.015625 22.33125Q118.203125 22.346874 118.296875 22.39375Q118.40625 22.440624 118.453125 22.503124Q118.5 22.565624 118.5 22.659374L118.5 23.64375Q118.8125 23.190624 119.078125 22.909374Q119.34375 22.628124 119.59375 22.45625Q119.84375 22.284374 120.078125 22.221874Q120.328125 22.159374 120.578125 22.159374Q120.6875 22.159374 120.8125 22.175Q120.953125 22.190624 121.09375 22.221874Q121.234375 22.253124 121.34375 22.3Q121.453125 22.33125 121.5 22.378124Q121.546875 22.409374 121.5625 22.471874Q121.59375 22.51875 121.609375 22.6125Q121.625 22.70625 121.625 22.89375Q121.640625 23.08125 121.640625 23.39375ZM129.28125 30.534374Q129.28125 30.64375 129.1875 30.721874Q129.10938 30.784374 128.92188 30.815624Q128.73438 30.846874 128.35938 30.846874Q127.96875 30.846874 127.78125 30.815624Q127.609375 30.784374 127.53125 30.721874Q127.453125 30.64375 127.453125 30.534374L127.453125 29.909374Q126.96875 30.425 126.34375 30.721874Q125.734375 31.003124 124.984375 31.003124Q124.359375 31.003124 123.828125 30.83125Q123.3125 30.675 122.921875 30.3625Q122.546875 30.034374 122.328125 29.565624Q122.125 29.08125 122.125 28.45625Q122.125 27.76875 122.390625 27.26875Q122.65625 26.753124 123.1875 26.425Q123.71875 26.096874 124.515625 25.940624Q125.3125 25.784374 126.359375 25.784374L127.109375 25.784374L127.109375 25.3Q127.109375 24.940624 127.03125 24.659374Q126.96875 24.378124 126.796875 24.20625Q126.625 24.01875 126.328125 23.925Q126.046875 23.83125 125.625 23.83125Q125.078125 23.83125 124.640625 23.95625Q124.203125 24.08125 123.875 24.2375Q123.546875 24.378124 123.3125 24.503124Q123.09375 24.628124 122.953125 24.628124Q122.859375 24.628124 122.78125 24.565624Q122.703125 24.503124 122.65625 24.39375Q122.609375 24.284374 122.578125 24.1125Q122.5625 23.940624 122.5625 23.7375Q122.5625 23.471874 122.59375 23.315624Q122.640625 23.159374 122.765625 23.034374Q122.890625 22.89375 123.1875 22.753124Q123.5 22.596874 123.90625 22.471874Q124.328125 22.33125 124.8125 22.253124Q125.3125 22.159374 125.828125 22.159374Q126.75 22.159374 127.40625 22.346874Q128.0625 22.51875 128.48438 22.89375Q128.90625 23.26875 129.09375 23.8625Q129.28125 24.440624 129.28125 25.253124L129.28125 30.534374ZM127.109375 27.175L126.265625 27.175Q125.734375 27.175 125.359375 27.253124Q124.984375 27.33125 124.734375 27.4875Q124.5 27.64375 124.390625 27.878124Q124.28125 28.096874 124.28125 28.378124Q124.28125 28.878124 124.59375 29.159374Q124.90625 29.440624 125.46875 29.440624Q125.9375 29.440624 126.328125 29.20625Q126.71875 28.95625 127.109375 28.503124L127.109375 27.175ZM136.25 29.721874Q136.25 30.1125 136.20312 30.33125Q136.15625 30.534374 136.07812 30.6125Q136.0 30.690624 135.84375 30.76875Q135.6875 30.83125 135.46875 30.878124Q135.26562 30.925 135.03125 30.940624Q134.79688 30.971874 134.54688 30.971874Q133.89062 30.971874 133.40625 30.8Q132.92188 30.64375 132.59375 30.3Q132.28125 29.940624 132.125 29.425Q131.98438 28.89375 131.98438 28.175L131.98438 24.159374L131.04688 24.159374Q130.875 24.159374 130.78125 23.95625Q130.70312 23.7375 130.70312 23.253124Q130.70312 23.003124 130.71875 22.83125Q130.75 22.659374 130.78125 22.565624Q130.82812 22.45625 130.89062 22.409374Q130.96875 22.3625 131.04688 22.3625L131.98438 22.3625L131.98438 20.6125Q131.98438 20.51875 132.03125 20.45625Q132.07812 20.378124 132.20312 20.33125Q132.34375 20.284374 132.54688 20.26875Q132.76562 20.2375 133.07812 20.2375Q133.40625 20.2375 133.625 20.26875Q133.84375 20.284374 133.96875 20.33125Q134.09375 20.378124 134.14062 20.45625Q134.1875 20.51875 134.1875 20.6125L134.1875 22.3625L135.89062 22.3625Q135.98438 22.3625 136.04688 22.409374Q136.10938 22.45625 136.15625 22.565624Q136.20312 22.659374 136.21875 22.83125Q136.25 23.003124 136.25 23.253124Q136.25 23.7375 136.15625 23.95625Q136.07812 24.159374 135.90625 24.159374L134.1875 24.159374L134.1875 27.83125Q134.1875 28.471874 134.39062 28.8Q134.59375 29.128124 135.10938 29.128124Q135.29688 29.128124 135.4375 29.096874Q135.57812 29.065624 135.6875 29.034374Q135.79688 28.9875 135.85938 28.95625Q135.9375 28.925 136.0 28.925Q136.0625 28.925 136.10938 28.95625Q136.15625 28.9875 136.17188 29.08125Q136.20312 29.159374 136.21875 29.33125Q136.25 29.4875 136.25 29.721874ZM139.82812 30.503124Q139.82812 30.58125 139.76562 30.659374Q139.71875 30.721874 139.59375 30.76875Q139.46875 30.815624 139.25 30.83125Q139.04688 30.846874 138.71875 30.846874Q138.39062 30.846874 138.17188 30.83125Q137.96875 30.815624 137.84375 30.76875Q137.71875 30.721874 137.65625 30.659374Q137.60938 30.58125 137.60938 30.503124L137.60938 22.675Q137.60938 22.596874 137.65625 22.534374Q137.71875 22.45625 137.84375 22.409374Q137.96875 22.3625 138.17188 22.346874Q138.39062 22.315624 138.71875 22.315624Q139.04688 22.315624 139.25 22.346874Q139.46875 22.3625 139.59375 22.409374Q139.71875 22.45625 139.76562 22.534374Q139.82812 22.596874 139.82812 22.675L139.82812 30.503124ZM139.98438 20.003124Q139.98438 20.675 139.70312 20.940624Q139.4375 21.190624 138.70312 21.190624Q137.95312 21.190624 137.6875 20.940624Q137.4375 20.690624 137.4375 20.05Q137.4375 19.378124 137.70312 19.128124Q137.98438 18.8625 138.71875 18.8625Q139.46875 18.8625 139.71875 19.1125Q139.98438 19.3625 139.98438 20.003124ZM148.82812 22.659374Q148.82812 22.690624 148.8125 22.753124Q148.8125 22.815624 148.79688 22.89375Q148.78125 22.971874 148.76562 23.065624Q148.75 23.159374 148.70312 23.284374L146.35938 30.378124Q146.3125 30.534374 146.23438 30.628124Q146.15625 30.70625 145.98438 30.76875Q145.8125 30.815624 145.51562 30.83125Q145.23438 30.846874 144.75 30.846874Q144.28125 30.846874 143.98438 30.83125Q143.70312 30.815624 143.53125 30.76875Q143.35938 30.70625 143.28125 30.6125Q143.21875 30.51875 143.17188 30.378124L140.8125 23.284374Q140.76562 23.1125 140.73438 22.971874Q140.70312 22.83125 140.6875 22.76875Q140.6875 22.70625 140.6875 22.659374Q140.6875 22.565624 140.73438 22.503124Q140.79688 22.425 140.90625 22.39375Q141.03125 22.346874 141.25 22.33125Q141.46875 22.315624 141.79688 22.315624Q142.15625 22.315624 142.375 22.33125Q142.59375 22.346874 142.71875 22.39375Q142.84375 22.425 142.89062 22.503124Q142.95312 22.58125 142.98438 22.690624L144.76562 28.440624L144.82812 28.659374L144.875 28.440624L146.64062 22.690624Q146.65625 22.58125 146.71875 22.503124Q146.78125 22.425 146.89062 22.39375Q147.01562 22.346874 147.21875 22.33125Q147.4375 22.315624 147.76562 22.315624Q148.09375 22.315624 148.29688 22.33125Q148.5 22.346874 148.60938 22.39375Q148.73438 22.425 148.78125 22.503124Q148.82812 22.565624 148.82812 22.659374ZM157.28125 30.534374Q157.28125 30.64375 157.1875 30.721874Q157.10938 30.784374 156.92188 30.815624Q156.73438 30.846874 156.35938 30.846874Q155.96875 30.846874 155.78125 30.815624Q155.60938 30.784374 155.53125 30.721874Q155.45312 30.64375 155.45312 30.534374L155.45312 29.909374Q154.96875 30.425 154.34375 30.721874Q153.73438 31.003124 152.98438 31.003124Q152.35938 31.003124 151.82812 30.83125Q151.3125 30.675 150.92188 30.3625Q150.54688 30.034374 150.32812 29.565624Q150.125 29.08125 150.125 28.45625Q150.125 27.76875 150.39062 27.26875Q150.65625 26.753124 151.1875 26.425Q151.71875 26.096874 152.51562 25.940624Q153.3125 25.784374 154.35938 25.784374L155.10938 25.784374L155.10938 25.3Q155.10938 24.940624 155.03125 24.659374Q154.96875 24.378124 154.79688 24.20625Q154.625 24.01875 154.32812 23.925Q154.04688 23.83125 153.625 23.83125Q153.07812 23.83125 152.64062 23.95625Q152.20312 24.08125 151.875 24.2375Q151.54688 24.378124 151.3125 24.503124Q151.09375 24.628124 150.95312 24.628124Q150.85938 24.628124 150.78125 24.565624Q150.70312 24.503124 150.65625 24.39375Q150.60938 24.284374 150.57812 24.1125Q150.5625 23.940624 150.5625 23.7375Q150.5625 23.471874 150.59375 23.315624Q150.64062 23.159374 150.76562 23.034374Q150.89062 22.89375 151.1875 22.753124Q151.5 22.596874 151.90625 22.471874Q152.32812 22.33125 152.8125 22.253124Q153.3125 22.159374 153.82812 22.159374Q154.75 22.159374 155.40625 22.346874Q156.0625 22.51875 156.48438 22.89375Q156.90625 23.26875 157.09375 23.8625Q157.28125 24.440624 157.28125 25.253124L157.28125 30.534374ZM155.10938 27.175L154.26562 27.175Q153.73438 27.175 153.35938 27.253124Q152.98438 27.33125 152.73438 27.4875Q152.5 27.64375 152.39062 27.878124Q152.28125 28.096874 152.28125 28.378124Q152.28125 28.878124 152.59375 29.159374Q152.90625 29.440624 153.46875 29.440624Q153.9375 29.440624 154.32812 29.20625Q154.71875 28.95625 155.10938 28.503124L155.10938 27.175ZM172.85938 21.190624Q172.85938 21.440624 172.82812 21.628124Q172.8125 21.815624 172.76562 21.925Q172.73438 22.034374 172.67188 22.08125Q172.625 22.128124 172.54688 22.128124Q172.4375 22.128124 172.17188 21.971874Q171.92188 21.815624 171.5 21.628124Q171.07812 21.440624 170.48438 21.284374Q169.90625 21.128124 169.14062 21.128124Q168.3125 21.128124 167.64062 21.409374Q166.96875 21.690624 166.5 22.221874Q166.03125 22.7375 165.76562 23.471874Q165.51562 24.20625 165.51562 25.096874Q165.51562 26.065624 165.76562 26.815624Q166.03125 27.55 166.5 28.065624Q166.96875 28.565624 167.625 28.815624Q168.28125 29.065624 169.0625 29.065624Q169.45312 29.065624 169.82812 28.9875Q170.20312 28.89375 170.53125 28.721874L170.53125 26.08125L168.375 26.08125Q168.21875 26.08125 168.125 25.89375Q168.04688 25.690624 168.04688 25.20625Q168.04688 24.95625 168.0625 24.8Q168.09375 24.628124 168.125 24.534374Q168.17188 24.425 168.23438 24.378124Q168.29688 24.33125 168.375 24.33125L172.21875 24.33125Q172.35938 24.33125 172.46875 24.378124Q172.57812 24.425 172.65625 24.534374Q172.75 24.628124 172.79688 24.76875Q172.84375 24.89375 172.84375 25.065624L172.84375 29.596874Q172.84375 29.8625 172.75 30.065624Q172.65625 30.253124 172.35938 30.378124Q172.07812 30.4875 171.65625 30.6125Q171.23438 30.721874 170.78125 30.815624Q170.32812 30.909374 169.85938 30.940624Q169.40625 30.9875 168.9375 30.9875Q167.57812 30.9875 166.5 30.596874Q165.42188 30.20625 164.67188 29.471874Q163.9375 28.721874 163.53125 27.659374Q163.14062 26.596874 163.14062 25.2375Q163.14062 23.83125 163.5625 22.721874Q163.98438 21.6125 164.75 20.846874Q165.53125 20.065624 166.625 19.659374Q167.71875 19.2375 169.0625 19.2375Q169.79688 19.2375 170.40625 19.346874Q171.01562 19.440624 171.46875 19.58125Q171.92188 19.721874 172.21875 19.89375Q172.51562 20.065624 172.625 20.190624Q172.75 20.3 172.79688 20.534374Q172.85938 20.753124 172.85938 21.190624ZM181.84375 26.346874Q181.84375 26.753124 181.65625 26.95625Q181.48438 27.14375 181.17188 27.14375L176.40625 27.14375Q176.40625 27.64375 176.51562 28.05Q176.64062 28.45625 176.89062 28.753124Q177.15625 29.034374 177.5625 29.190624Q177.96875 29.33125 178.54688 29.33125Q179.125 29.33125 179.5625 29.253124Q180.0 29.159374 180.3125 29.065624Q180.64062 28.95625 180.84375 28.878124Q181.0625 28.8 181.20312 28.8Q181.28125 28.8 181.32812 28.83125Q181.39062 28.8625 181.42188 28.940624Q181.45312 29.01875 181.46875 29.159374Q181.48438 29.3 181.48438 29.51875Q181.48438 29.721874 181.46875 29.8625Q181.46875 29.9875 181.4375 30.096874Q181.42188 30.190624 181.39062 30.253124Q181.35938 30.315624 181.29688 30.378124Q181.25 30.440624 180.98438 30.55Q180.73438 30.64375 180.32812 30.753124Q179.9375 30.846874 179.42188 30.925Q178.92188 31.003124 178.34375 31.003124Q177.29688 31.003124 176.5 30.7375Q175.71875 30.471874 175.1875 29.940624Q174.67188 29.409374 174.40625 28.596874Q174.15625 27.76875 174.15625 26.675Q174.15625 25.628124 174.42188 24.784374Q174.70312 23.940624 175.21875 23.3625Q175.73438 22.76875 176.46875 22.471874Q177.21875 22.159374 178.15625 22.159374Q179.14062 22.159374 179.82812 22.45625Q180.53125 22.7375 180.96875 23.253124Q181.42188 23.76875 181.625 24.471874Q181.84375 25.175 181.84375 26.003124L181.84375 26.346874ZM179.70312 25.721874Q179.73438 24.784374 179.32812 24.253124Q178.9375 23.721874 178.09375 23.721874Q177.67188 23.721874 177.35938 23.878124Q177.04688 24.034374 176.84375 24.315624Q176.64062 24.58125 176.53125 24.940624Q176.42188 25.3 176.40625 25.721874L179.70312 25.721874ZM191.53125 26.503124Q191.53125 27.503124 191.26562 28.33125Q191.01562 29.159374 190.46875 29.753124Q189.9375 30.346874 189.125 30.675Q188.3125 31.003124 187.23438 31.003124Q186.1875 31.003124 185.40625 30.721874Q184.64062 30.425 184.125 29.878124Q183.625 29.315624 183.375 28.503124Q183.14062 27.690624 183.14062 26.659374Q183.14062 25.659374 183.40625 24.83125Q183.67188 24.003124 184.20312 23.409374Q184.73438 22.815624 185.53125 22.4875Q186.34375 22.159374 187.4375 22.159374Q188.48438 22.159374 189.25 22.45625Q190.03125 22.7375 190.53125 23.284374Q191.04688 23.83125 191.28125 24.64375Q191.53125 25.45625 191.53125 26.503124ZM189.26562 26.596874Q189.26562 26.003124 189.17188 25.51875Q189.07812 25.034374 188.85938 24.675Q188.64062 24.315624 188.26562 24.1125Q187.90625 23.909374 187.35938 23.909374Q186.85938 23.909374 186.48438 24.096874Q186.125 24.26875 185.875 24.6125Q185.64062 24.95625 185.51562 25.45625Q185.40625 25.940624 185.40625 26.565624Q185.40625 27.14375 185.5 27.628124Q185.60938 28.1125 185.8125 28.4875Q186.03125 28.846874 186.39062 29.05Q186.76562 29.2375 187.3125 29.2375Q187.8125 29.2375 188.1875 29.065624Q188.5625 28.878124 188.79688 28.534374Q189.03125 28.190624 189.14062 27.70625Q189.26562 27.20625 189.26562 26.596874ZM198.64062 23.39375Q198.64062 23.70625 198.625 23.909374Q198.60938 24.1125 198.5625 24.2375Q198.53125 24.346874 198.46875 24.39375Q198.42188 24.425 198.34375 24.425Q198.26562 24.425 198.17188 24.39375Q198.09375 24.3625 197.98438 24.33125Q197.875 24.3 197.73438 24.26875Q197.60938 24.2375 197.45312 24.2375Q197.26562 24.2375 197.07812 24.315624Q196.89062 24.378124 196.6875 24.55Q196.5 24.70625 196.28125 24.971874Q196.0625 25.221874 195.82812 25.6125L195.82812 30.503124Q195.82812 30.58125 195.76562 30.659374Q195.71875 30.721874 195.59375 30.76875Q195.46875 30.815624 195.25 30.83125Q195.04688 30.846874 194.71875 30.846874Q194.39062 30.846874 194.17188 30.83125Q193.96875 30.815624 193.84375 30.76875Q193.71875 30.721874 193.65625 30.659374Q193.60938 30.58125 193.60938 30.503124L193.60938 22.659374Q193.60938 22.565624 193.65625 22.503124Q193.70312 22.440624 193.8125 22.39375Q193.92188 22.346874 194.09375 22.33125Q194.28125 22.315624 194.5625 22.315624Q194.84375 22.315624 195.01562 22.33125Q195.20312 22.346874 195.29688 22.39375Q195.40625 22.440624 195.45312 22.503124Q195.5 22.565624 195.5 22.659374L195.5 23.64375Q195.8125 23.190624 196.07812 22.909374Q196.34375 22.628124 196.59375 22.45625Q196.84375 22.284374 197.07812 22.221874Q197.32812 22.159374 197.57812 22.159374Q197.6875 22.159374 197.8125 22.175Q197.95312 22.190624 198.09375 22.221874Q198.23438 22.253124 198.34375 22.3Q198.45312 22.33125 198.5 22.378124Q198.54688 22.409374 198.5625 22.471874Q198.59375 22.51875 198.60938 22.6125Q198.625 22.70625 198.625 22.89375Q198.64062 23.08125 198.64062 23.39375ZM204.64062 23.39375Q204.64062 23.70625 204.625 23.909374Q204.60938 24.1125 204.5625 24.2375Q204.53125 24.346874 204.46875 24.39375Q204.42188 24.425 204.34375 24.425Q204.26562 24.425 204.17188 24.39375Q204.09375 24.3625 203.98438 24.33125Q203.875 24.3 203.73438 24.26875Q203.60938 24.2375 203.45312 24.2375Q203.26562 24.2375 203.07812 24.315624Q202.89062 24.378124 202.6875 24.55Q202.5 24.70625 202.28125 24.971874Q202.0625 25.221874 201.82812 25.6125L201.82812 30.503124Q201.82812 30.58125 201.76562 30.659374Q201.71875 30.721874 201.59375 30.76875Q201.46875 30.815624 201.25 30.83125Q201.04688 30.846874 200.71875 30.846874Q200.39062 30.846874 200.17188 30.83125Q199.96875 30.815624 199.84375 30.76875Q199.71875 30.721874 199.65625 30.659374Q199.60938 30.58125 199.60938 30.503124L199.60938 22.659374Q199.60938 22.565624 199.65625 22.503124Q199.70312 22.440624 199.8125 22.39375Q199.92188 22.346874 200.09375 22.33125Q200.28125 22.315624 200.5625 22.315624Q200.84375 22.315624 201.01562 22.33125Q201.20312 22.346874 201.29688 22.39375Q201.40625 22.440624 201.45312 22.503124Q201.5 22.565624 201.5 22.659374L201.5 23.64375Q201.8125 23.190624 202.07812 22.909374Q202.34375 22.628124 202.59375 22.45625Q202.84375 22.284374 203.07812 22.221874Q203.32812 22.159374 203.57812 22.159374Q203.6875 22.159374 203.8125 22.175Q203.95312 22.190624 204.09375 22.221874Q204.23438 22.253124 204.34375 22.3Q204.45312 22.33125 204.5 22.378124Q204.54688 22.409374 204.5625 22.471874Q204.59375 22.51875 204.60938 22.6125Q204.625 22.70625 204.625 22.89375Q204.64062 23.08125 204.64062 23.39375ZM212.84375 26.346874Q212.84375 26.753124 212.65625 26.95625Q212.48438 27.14375 212.17188 27.14375L207.40625 27.14375Q207.40625 27.64375 207.51562 28.05Q207.64062 28.45625 207.89062 28.753124Q208.15625 29.034374 208.5625 29.190624Q208.96875 29.33125 209.54688 29.33125Q210.125 29.33125 210.5625 29.253124Q211.0 29.159374 211.3125 29.065624Q211.64062 28.95625 211.84375 28.878124Q212.0625 28.8 212.20312 28.8Q212.28125 28.8 212.32812 28.83125Q212.39062 28.8625 212.42188 28.940624Q212.45312 29.01875 212.46875 29.159374Q212.48438 29.3 212.48438 29.51875Q212.48438 29.721874 212.46875 29.8625Q212.46875 29.9875 212.4375 30.096874Q212.42188 30.190624 212.39062 30.253124Q212.35938 30.315624 212.29688 30.378124Q212.25 30.440624 211.98438 30.55Q211.73438 30.64375 211.32812 30.753124Q210.9375 30.846874 210.42188 30.925Q209.92188 31.003124 209.34375 31.003124Q208.29688 31.003124 207.5 30.7375Q206.71875 30.471874 206.1875 29.940624Q205.67188 29.409374 205.40625 28.596874Q205.15625 27.76875 205.15625 26.675Q205.15625 25.628124 205.42188 24.784374Q205.70312 23.940624 206.21875 23.3625Q206.73438 22.76875 207.46875 22.471874Q208.21875 22.159374 209.15625 22.159374Q210.14062 22.159374 210.82812 22.45625Q211.53125 22.7375 211.96875 23.253124Q212.42188 23.76875 212.625 24.471874Q212.84375 25.175 212.84375 26.003124L212.84375 26.346874ZM210.70312 25.721874Q210.73438 24.784374 210.32812 24.253124Q209.9375 23.721874 209.09375 23.721874Q208.67188 23.721874 208.35938 23.878124Q208.04688 24.034374 207.84375 24.315624Q207.64062 24.58125 207.53125 24.940624Q207.42188 25.3 207.40625 25.721874L210.70312 25.721874ZM219.34375 19.675Q219.34375 19.925 219.3125 20.08125Q219.29688 20.2375 219.26562 20.33125Q219.23438 20.409374 219.1875 20.440624Q219.14062 20.45625 219.09375 20.45625Q219.03125 20.45625 218.95312 20.440624Q218.875 20.409374 218.76562 20.378124Q218.65625 20.33125 218.5 20.3Q218.35938 20.26875 218.15625 20.26875Q217.92188 20.26875 217.75 20.346874Q217.57812 20.425 217.45312 20.58125Q217.34375 20.7375 217.29688 21.003124Q217.25 21.26875 217.25 21.64375L217.25 22.3625L218.67188 22.3625Q218.75 22.3625 218.8125 22.409374Q218.89062 22.45625 218.92188 22.565624Q218.96875 22.659374 218.98438 22.83125Q219.01562 23.003124 219.01562 23.253124Q219.01562 23.7375 218.92188 23.95625Q218.84375 24.159374 218.67188 24.159374L217.25 24.159374L217.25 30.503124Q217.25 30.58125 217.1875 30.659374Q217.14062 30.721874 217.01562 30.76875Q216.89062 30.815624 216.67188 30.83125Q216.45312 30.846874 216.14062 30.846874Q215.82812 30.846874 215.60938 30.83125Q215.39062 30.815624 215.26562 30.76875Q215.14062 30.721874 215.07812 30.659374Q215.03125 30.58125 215.03125 30.503124L215.03125 24.159374L214.04688 24.159374Q213.89062 24.159374 213.79688 23.95625Q213.71875 23.7375 213.71875 23.253124Q213.71875 23.003124 213.73438 22.83125Q213.76562 22.659374 213.79688 22.565624Q213.84375 22.45625 213.90625 22.409374Q213.96875 22.3625 214.0625 22.3625L215.03125 22.3625L215.03125 21.70625Q215.03125 20.909374 215.1875 20.315624Q215.35938 19.70625 215.6875 19.3Q216.03125 18.89375 216.54688 18.690624Q217.07812 18.4875 217.79688 18.4875Q218.125 18.4875 218.4375 18.55Q218.75 18.6125 218.92188 18.675Q219.09375 18.7375 219.15625 18.8Q219.21875 18.8625 219.25 18.971874Q219.29688 19.08125 219.3125 19.253124Q219.34375 19.425 219.34375 19.675ZM227.84375 26.346874Q227.84375 26.753124 227.65625 26.95625Q227.48438 27.14375 227.17188 27.14375L222.40625 27.14375Q222.40625 27.64375 222.51562 28.05Q222.64062 28.45625 222.89062 28.753124Q223.15625 29.034374 223.5625 29.190624Q223.96875 29.33125 224.54688 29.33125Q225.125 29.33125 225.5625 29.253124Q226.0 29.159374 226.3125 29.065624Q226.64062 28.95625 226.84375 28.878124Q227.0625 28.8 227.20312 28.8Q227.28125 28.8 227.32812 28.83125Q227.39062 28.8625 227.42188 28.940624Q227.45312 29.01875 227.46875 29.159374Q227.48438 29.3 227.48438 29.51875Q227.48438 29.721874 227.46875 29.8625Q227.46875 29.9875 227.4375 30.096874Q227.42188 30.190624 227.39062 30.253124Q227.35938 30.315624 227.29688 30.378124Q227.25 30.440624 226.98438 30.55Q226.73438 30.64375 226.32812 30.753124Q225.9375 30.846874 225.42188 30.925Q224.92188 31.003124 224.34375 31.003124Q223.29688 31.003124 222.5 30.7375Q221.71875 30.471874 221.1875 29.940624Q220.67188 29.409374 220.40625 28.596874Q220.15625 27.76875 220.15625 26.675Q220.15625 25.628124 220.42188 24.784374Q220.70312 23.940624 221.21875 23.3625Q221.73438 22.76875 222.46875 22.471874Q223.21875 22.159374 224.15625 22.159374Q225.14062 22.159374 225.82812 22.45625Q226.53125 22.7375 226.96875 23.253124Q227.42188 23.76875 227.625 24.471874Q227.84375 25.175 227.84375 26.003124L227.84375 26.346874ZM225.70312 25.721874Q225.73438 24.784374 225.32812 24.253124Q224.9375 23.721874 224.09375 23.721874Q223.67188 23.721874 223.35938 23.878124Q223.04688 24.034374 222.84375 24.315624Q222.64062 24.58125 222.53125 24.940624Q222.42188 25.3 222.40625 25.721874L225.70312 25.721874ZM234.64062 23.39375Q234.64062 23.70625 234.625 23.909374Q234.60938 24.1125 234.5625 24.2375Q234.53125 24.346874 234.46875 24.39375Q234.42188 24.425 234.34375 24.425Q234.26562 24.425 234.17188 24.39375Q234.09375 24.3625 233.98438 24.33125Q233.875 24.3 233.73438 24.26875Q233.60938 24.2375 233.45312 24.2375Q233.26562 24.2375 233.07812 24.315624Q232.89062 24.378124 232.6875 24.55Q232.5 24.70625 232.28125 24.971874Q232.0625 25.221874 231.82812 25.6125L231.82812 30.503124Q231.82812 30.58125 231.76562 30.659374Q231.71875 30.721874 231.59375 30.76875Q231.46875 30.815624 231.25 30.83125Q231.04688 30.846874 230.71875 30.846874Q230.39062 30.846874 230.17188 30.83125Q229.96875 30.815624 229.84375 30.76875Q229.71875 30.721874 229.65625 30.659374Q229.60938 30.58125 229.60938 30.503124L229.60938 22.659374Q229.60938 22.565624 229.65625 22.503124Q229.70312 22.440624 229.8125 22.39375Q229.92188 22.346874 230.09375 22.33125Q230.28125 22.315624 230.5625 22.315624Q230.84375 22.315624 231.01562 22.33125Q231.20312 22.346874 231.29688 22.39375Q231.40625 22.440624 231.45312 22.503124Q231.5 22.565624 231.5 22.659374L231.5 23.64375Q231.8125 23.190624 232.07812 22.909374Q232.34375 22.628124 232.59375 22.45625Q232.84375 22.284374 233.07812 22.221874Q233.32812 22.159374 233.57812 22.159374Q233.6875 22.159374 233.8125 22.175Q233.95312 22.190624 234.09375 22.221874Q234.23438 22.253124 234.34375 22.3Q234.45312 22.33125 234.5 22.378124Q234.54688 22.409374 234.5625 22.471874Q234.59375 22.51875 234.60938 22.6125Q234.625 22.70625 234.625 22.89375Q234.64062 23.08125 234.64062 23.39375ZM242.84375 26.346874Q242.84375 26.753124 242.65625 26.95625Q242.48438 27.14375 242.17188 27.14375L237.40625 27.14375Q237.40625 27.64375 237.51562 28.05Q237.64062 28.45625 237.89062 28.753124Q238.15625 29.034374 238.5625 29.190624Q238.96875 29.33125 239.54688 29.33125Q240.125 29.33125 240.5625 29.253124Q241.0 29.159374 241.3125 29.065624Q241.64062 28.95625 241.84375 28.878124Q242.0625 28.8 242.20312 28.8Q242.28125 28.8 242.32812 28.83125Q242.39062 28.8625 242.42188 28.940624Q242.45312 29.01875 242.46875 29.159374Q242.48438 29.3 242.48438 29.51875Q242.48438 29.721874 242.46875 29.8625Q242.46875 29.9875 242.4375 30.096874Q242.42188 30.190624 242.39062 30.253124Q242.35938 30.315624 242.29688 30.378124Q242.25 30.440624 241.98438 30.55Q241.73438 30.64375 241.32812 30.753124Q240.9375 30.846874 240.42188 30.925Q239.92188 31.003124 239.34375 31.003124Q238.29688 31.003124 237.5 30.7375Q236.71875 30.471874 236.1875 29.940624Q235.67188 29.409374 235.40625 28.596874Q235.15625 27.76875 235.15625 26.675Q235.15625 25.628124 235.42188 24.784374Q235.70312 23.940624 236.21875 23.3625Q236.73438 22.76875 237.46875 22.471874Q238.21875 22.159374 239.15625 22.159374Q240.14062 22.159374 240.82812 22.45625Q241.53125 22.7375 241.96875 23.253124Q242.42188 23.76875 242.625 24.471874Q242.84375 25.175 242.84375 26.003124L242.84375 26.346874ZM240.70312 25.721874Q240.73438 24.784374 240.32812 24.253124Q239.9375 23.721874 239.09375 23.721874Q238.67188 23.721874 238.35938 23.878124Q238.04688 24.034374 237.84375 24.315624Q237.64062 24.58125 237.53125 24.940624Q237.42188 25.3 237.40625 25.721874L240.70312 25.721874ZM252.09375 30.503124Q252.09375 30.58125 252.03125 30.659374Q251.98438 30.721874 251.85938 30.76875Q251.75 30.815624 251.53125 30.83125Q251.3125 30.846874 251.0 30.846874Q250.67188 30.846874 250.45312 30.83125Q250.23438 30.815624 250.10938 30.76875Q250.0 30.721874 249.9375 30.659374Q249.89062 30.58125 249.89062 30.503124L249.89062 26.034374Q249.89062 25.45625 249.79688 25.128124Q249.71875 24.8 249.5625 24.58125Q249.40625 24.346874 249.15625 24.221874Q248.90625 24.08125 248.57812 24.08125Q248.15625 24.08125 247.71875 24.39375Q247.28125 24.70625 246.82812 25.284374L246.82812 30.503124Q246.82812 30.58125 246.76562 30.659374Q246.71875 30.721874 246.59375 30.76875Q246.46875 30.815624 246.25 30.83125Q246.04688 30.846874 245.71875 30.846874Q245.39062 30.846874 245.17188 30.83125Q244.96875 30.815624 244.84375 30.76875Q244.71875 30.721874 244.65625 30.659374Q244.60938 30.58125 244.60938 30.503124L244.60938 22.659374Q244.60938 22.565624 244.65625 22.503124Q244.70312 22.440624 244.8125 22.39375Q244.92188 22.346874 245.09375 22.33125Q245.28125 22.315624 245.5625 22.315624Q245.84375 22.315624 246.01562 22.33125Q246.20312 22.346874 246.29688 22.39375Q246.40625 22.440624 246.45312 22.503124Q246.5 22.565624 246.5 22.659374L246.5 23.565624Q247.14062 22.8625 247.8125 22.51875Q248.5 22.159374 249.21875 22.159374Q250.01562 22.159374 250.5625 22.425Q251.125 22.690624 251.45312 23.14375Q251.79688 23.596874 251.9375 24.20625Q252.09375 24.8 252.09375 25.659374L252.09375 30.503124ZM260.54688 29.253124Q260.54688 29.4875 260.53125 29.64375Q260.51562 29.784374 260.48438 29.89375Q260.46875 30.003124 260.4375 30.065624Q260.40625 30.128124 260.29688 30.2375Q260.20312 30.33125 259.9375 30.4875Q259.6875 30.628124 259.35938 30.7375Q259.03125 30.846874 258.64062 30.909374Q258.26562 30.9875 257.875 30.9875Q256.96875 30.9875 256.26562 30.70625Q255.5625 30.425 255.07812 29.878124Q254.60938 29.33125 254.375 28.55Q254.14062 27.753124 254.14062 26.7375Q254.14062 25.55 254.42188 24.690624Q254.71875 23.83125 255.25 23.26875Q255.78125 22.70625 256.5 22.440624Q257.21875 22.175 258.07812 22.175Q258.4375 22.175 258.76562 22.2375Q259.10938 22.284374 259.40625 22.39375Q259.70312 22.503124 259.92188 22.64375Q260.15625 22.76875 260.25 22.8625Q260.35938 22.95625 260.39062 23.034374Q260.4375 23.096874 260.45312 23.20625Q260.48438 23.3 260.48438 23.45625Q260.5 23.6125 260.5 23.83125Q260.5 24.346874 260.40625 24.55Q260.32812 24.753124 260.1875 24.753124Q260.04688 24.753124 259.875 24.628124Q259.70312 24.503124 259.46875 24.3625Q259.25 24.20625 258.92188 24.08125Q258.60938 23.95625 258.17188 23.95625Q257.3125 23.95625 256.85938 24.628124Q256.40625 25.284374 256.40625 26.565624Q256.40625 27.20625 256.51562 27.690624Q256.625 28.175 256.84375 28.503124Q257.07812 28.815624 257.40625 28.9875Q257.75 29.14375 258.20312 29.14375Q258.65625 29.14375 258.98438 29.01875Q259.3125 28.878124 259.5625 28.70625Q259.8125 28.534374 259.96875 28.409374Q260.14062 28.26875 260.26562 28.26875Q260.34375 28.26875 260.39062 28.315624Q260.4375 28.3625 260.46875 28.4875Q260.5 28.596874 260.51562 28.784374Q260.54688 28.95625 260.54688 29.253124ZM264.82812 30.503124Q264.82812 30.58125 264.76562 30.659374Q264.71875 30.721874 264.59375 30.76875Q264.46875 30.815624 264.25 30.83125Q264.04688 30.846874 263.71875 30.846874Q263.39062 30.846874 263.17188 30.83125Q262.96875 30.815624 262.84375 30.76875Q262.71875 30.721874 262.65625 30.659374Q262.60938 30.58125 262.60938 30.503124L262.60938 22.675Q262.60938 22.596874 262.65625 22.534374Q262.71875 22.45625 262.84375 22.409374Q262.96875 22.3625 263.17188 22.346874Q263.39062 22.315624 263.71875 22.315624Q264.04688 22.315624 264.25 22.346874Q264.46875 22.3625 264.59375 22.409374Q264.71875 22.45625 264.76562 22.534374Q264.82812 22.596874 264.82812 22.675L264.82812 30.503124ZM264.98438 20.003124Q264.98438 20.675 264.70312 20.940624Q264.4375 21.190624 263.70312 21.190624Q262.95312 21.190624 262.6875 20.940624Q262.4375 20.690624 262.4375 20.05Q262.4375 19.378124 262.70312 19.128124Q262.98438 18.8625 263.71875 18.8625Q264.46875 18.8625 264.71875 19.1125Q264.98438 19.3625 264.98438 20.003124ZM273.28125 30.534374Q273.28125 30.64375 273.1875 30.721874Q273.10938 30.784374 272.92188 30.815624Q272.73438 30.846874 272.35938 30.846874Q271.96875 30.846874 271.78125 30.815624Q271.60938 30.784374 271.53125 30.721874Q271.45312 30.64375 271.45312 30.534374L271.45312 29.909374Q270.96875 30.425 270.34375 30.721874Q269.73438 31.003124 268.98438 31.003124Q268.35938 31.003124 267.82812 30.83125Q267.3125 30.675 266.92188 30.3625Q266.54688 30.034374 266.32812 29.565624Q266.125 29.08125 266.125 28.45625Q266.125 27.76875 266.39062 27.26875Q266.65625 26.753124 267.1875 26.425Q267.71875 26.096874 268.51562 25.940624Q269.3125 25.784374 270.35938 25.784374L271.10938 25.784374L271.10938 25.3Q271.10938 24.940624 271.03125 24.659374Q270.96875 24.378124 270.79688 24.20625Q270.625 24.01875 270.32812 23.925Q270.04688 23.83125 269.625 23.83125Q269.07812 23.83125 268.64062 23.95625Q268.20312 24.08125 267.875 24.2375Q267.54688 24.378124 267.3125 24.503124Q267.09375 24.628124 266.95312 24.628124Q266.85938 24.628124 266.78125 24.565624Q266.70312 24.503124 266.65625 24.39375Q266.60938 24.284374 266.57812 24.1125Q266.5625 23.940624 266.5625 23.7375Q266.5625 23.471874 266.59375 23.315624Q266.64062 23.159374 266.76562 23.034374Q266.89062 22.89375 267.1875 22.753124Q267.5 22.596874 267.90625 22.471874Q268.32812 22.33125 268.8125 22.253124Q269.3125 22.159374 269.82812 22.159374Q270.75 22.159374 271.40625 22.346874Q272.0625 22.51875 272.48438 22.89375Q272.90625 23.26875 273.09375 23.8625Q273.28125 24.440624 273.28125 25.253124L273.28125 30.534374ZM271.10938 27.175L270.26562 27.175Q269.73438 27.175 269.35938 27.253124Q268.98438 27.33125 268.73438 27.4875Q268.5 27.64375 268.39062 27.878124Q268.28125 28.096874 268.28125 28.378124Q268.28125 28.878124 268.59375 29.159374Q268.90625 29.440624 269.46875 29.440624Q269.9375 29.440624 270.32812 29.20625Q270.71875 28.95625 271.10938 28.503124L271.10938 27.175Z" fill-rule="nonzero"/></svg>